<mxfile host="Electron" modified="2023-09-28T16:48:26.961Z" agent="Mozilla/5.0 (X11; Linux x86_64) AppleWebKit/537.36 (KHTML, like Gecko) draw.io/21.3.7 Chrome/112.0.5615.204 Electron/24.5.0 Safari/537.36" etag="VDf5RZjMQ0UfyqUkqBkz" version="21.3.7" type="device">
  <diagram name="Pagina-1" id="2SXb1-iuxUs5A6vmgQbZ">
    <mxGraphModel dx="1434" dy="868" grid="1" gridSize="10" guides="1" tooltips="1" connect="1" arrows="1" fold="1" page="1" pageScale="1" pageWidth="827" pageHeight="1169" math="0" shadow="0">
      <root>
        <mxCell id="0" />
        <mxCell id="1" parent="0" />
        <mxCell id="TVynHAeKMUivycCZFWxq-7" style="edgeStyle=orthogonalEdgeStyle;rounded=0;orthogonalLoop=1;jettySize=auto;html=1;exitX=1;exitY=0.5;exitDx=0;exitDy=0;startArrow=classic;startFill=1;strokeWidth=2;" parent="1" source="TVynHAeKMUivycCZFWxq-1" target="TVynHAeKMUivycCZFWxq-2" edge="1">
          <mxGeometry relative="1" as="geometry" />
        </mxCell>
        <mxCell id="TVynHAeKMUivycCZFWxq-1" value="" style="shape=image;verticalLabelPosition=bottom;labelBackgroundColor=default;verticalAlign=top;aspect=fixed;imageAspect=0;image=data:image/png,iVBORw0KGgoAAAANSUhEUgAAA6QAAALRCAIAAADDRflMAAAAA3NCSVQICAjb4U/gAAAAGXRFWHRTb2Z0d2FyZQBnbm9tZS1zY3JlZW5zaG907wO/PgAAIABJREFUeJzs3Xd4U9Ufx/GTtEnTvdM96WRDgbJEAXH8xIVbRJDhBAXBvRXBrbj33gPcgFsE2aMs2VCabrpX0jbJ74+LMaSDjrSlh/fr8fFJ7jj3e3MP4XDzufeqJkyYkJiYaDAYampqiouLIyIi7F8wi1nMYhazmMUsZjGLWd13liqx5yCLuV4AAAAAslC7uLrpPHomhKoZ6QIAAEAyFnO9yVit1WpdAoJCu7oYAAAAwMmsVovKWqvu6jIAAACADqHX6xnsAgAAQE7EGAAAACAtYgwAAACQFjEGAAAASIsYAwAAAKRFjAEAAADSIsYAAAAAaRFjAAAAgLSIMQAAAEBaxBgAAAAgLWIMAAAAkBYxBgAAAEiLGAMAAACkRYwBAAAA0iLGAAAAAGkRYwAAAIC0iDEAAABAWsQYAAAAIC1iDAAAAJAWMQYAAABIixgDAAAApEWMAQAAANIixgAAAABpEWMAAACAtIgxAAAAQFrEGAAAACAtYgwAAACQFjEGAAAASIsYAwAAAKSlsta6dv5Wzx1/zkUXX2h7u2fP3gULHu/8MnAi8PPzGzdubJ8+vYODgtzd3YXq6PRFi17cvHlLl5YGAAC6Pb1e37rBbu9evebPf6jRWRaLuabGWFFRcfhw1rZt21f8tbKsrKzRJYOCg1JTUmxva021raoB0hg9+tR7773by9Oz4Swfb+/OrwcAAEhGq9W2brCrddOGhR0n9jBgQP/zzz/XZDJ99NEnr7/xltVqbUeFkFZUVNQjDz+o0Wi6uhAAACAtg8HQUTEGNze3qVOn+Af4P/bYkx20CXRrEy4832Gk+8+uXTnZORaLVQiRX1DQRXUBAAB5tDrG0FoXXnD+kiXf7N69x37ipk2bX33tDdvb/Lz8Dq0BJ6bU1BT7tz8uXfbQQ/O7qhgAACClVscYGnr3vff/WrFKCOHu4Z6SnHTVVVf6+fnZLzD6tFMdBrsZGVszMra2c7vo7ryPTeXu2rW7qyoBAACyckKMITs7Z/uOHcrr9es37Nm77/lFz9gvEBkZ6bBKcnJSz56ptrdFR4pW/LWy0cb1wcFDh6b37t0rODjI29u7qrq6uLjYkGVYv2Hjjh07zWZzo2vFxsYMTU/v2TPF39/f3d29rLw825C9fsOGv/9e09QqTZXUu1evM88cFxUV6e3tvXrN2jfffLvN5QUHByUkJCQk9IiICPfx9vb29vbw8DCaTBXl5QcPHsrYum3duvUWi6XR8lqubZ9YYkLCkCGDU1KS/f39dDpdRUVFfkHB1oxtq/5e3ehVhk19XAkJPc4++8z4uDhPT8+iouL1Gzb88MOPpmMvQIyLi+vfv68QwtfX1356n969a2uPLmkymn5cusxho609rG07pk7cUEs+Db1eP2LEsIZtNuqbb75rtIe0ocMDAHCScH6MYcOGjfX19a6u/zXr5ubmsMzw4cOuv26G7W1GxtaGg92goMBbbp41Zsxp9k3ZXHvt9M1bMq6//iaH6VFRkbfOuWX48EZGD5dddkl2Ts6iRS/++eeKhnMblrR6zdrbbrv1/PPOtU0sKi5uc3np6UMc/g1gb/RoIYQoLDzyzDPP/fb7H00t1ry2fWLx8XFz584ZlDaw4SoXXnC+0WhcvPjrV1593TYMVTT8uNasXTf7llkTJlygUqls08eMOW3SVRNnz5mbmXnYNnFQ2sB58+Y03Ny4cWPHjRurvC4qKrYf7LbtsLb2mDpxQy3/NOLj4+6847aGm2vUDz8sdTgQbe7wAACcJLRabYc/Qa2wsLC1q/Tr1/ejD98744zTGx23KTQNZqUPGfzeu283+he/IiI8/InHF0yZPKklNdx5x232oyIhhOrfe8C2oTz7QU9TgoODFi6cf+74c1pSnoO2fWKjThn5zttvNDrSVeh0uiuvvPytt15zOAvrQKvVPvH4gosuurDhboaHhz391BNubtoW7ETjnHhYmzmmTtxQh34a9pzb4QEAkJLBYHDyYHfgwAEO4621a9e1qoWoqKinnnzMIfirqKura2qtuLi4hQsf9fT0sE2xWCz79u1fv35DUdExZ+9uuOG6sWPHNF9DamrK+PH/c5ioDF3aVp6N2Ww+fPjwxo2bVq5ctX79htzcPIcF5s2b0/zIsqG2lZSYmPDIIw/qdDqH6fX19Q5TkhITH3/sUbW6ya6SmpoybNjQpsuL/N//zm5qbvOceFibOaZO31AHfRr2nNvhAQCQlRNiDMFBQfHxcUIId3f31JSUqVMn28/dvn1HU3ncpsyZfbOPj4/9lJ07/3nt9Tc3b95sMtV6enr279f3vPPGBwYGHrvWLPu/+A2G7LvuvnfPnr1CCBcXl9m3zLr00ovtN/HXXysdfhG2p9VqhRD19fUrVqzcvXu3q0YTHxdrNlvaXJ7FYvnjjz+/+/7H9es3mEwm+1mD0gY+/sRC24MVdDrdOeec/fHHn7bow/p3d9r0id1sP9I1m80vv/zq1998V1lZGRMTfeuts4emD7HNHTCg/1lnntEwR2tvxYqVn3/xZWlp6dixY66ZcrX9rNGnnbpkyTfK6zVr19573wNCiFmzbgrR623LfPfdD2vXHf13kclo+rdIpx3WZo6pczfUqk9jz569yqfhoFevnldcfpn9lE2bNtv/08XpBQMAICUn3I3h2munX3vt9EZn7dz5z22339Wqh0rExEQ7XK+zefOWmbNm2043VlVVrfp79aq/V4eHhdmWiYuNTbcbmQkh7rn3fuUvfiGE2Wx+9rnnBw1Oi4+LU6YEBweNHTN66bLlzVRSXl4+6+Y5DrcIaFt5Qoh169avW7e+0Q1t2LhpyZJvJl11pW1K//79Wj7YbVtJPXrEpx2bXnjrrXc+/OgT5XVm5uF58+745OMPoqL+u7jwsssuaWawu3Llqttuv1N5vXfvvgB///PP/y8wkJCQYHudlWXIyjIIIaZeM1nYDXZ3797z88+/2rfp9MPa6DHtiA21/NMoLi522GshRFJS4h23z7Ofsm379lvn3m77o9QRHR4AACk5P8agKCoqnj9/4bTp1xUfewHQcQ0dmu4w5emnn2v4w7oQIic3126tY/7iP3jwkMOAxmKxbN60xX7KkPTBzVfywgsvNxwVta08ez4+PoMGpZ1//rkTr7xi2tQp06dPnT59alxcrP0yYaHHeUZd+0saMuSY3TebzV98+ZX9lLq6OtvZR0VycpLD+WN7bxx7T4PNm4/5tH19m1yxGU4/rI0e047YUHs+jbjY2Beef9b+vmy7d++ZPXteTU1NxxUMAICsOuqhEoGBAZdcctGWjK1ZWVmtWjEuLtb+bX5+/t59+467Vmxs7LFvY/5e9afDMg6R09iYmGYarKurW7b8J2eVpxiUNnDq1Cn9+/dzcXFpfkmHG9A2r20lOey+wZBdXl7hsMyOf+8op1CpVNFRUduPnagoLy93GGyVl5fbv3V1dVWr1a29sZpzD2tTx9TpG2rPpxEZGfHii8/Zx68PHDgw6+Y5lZWVHVcwAAASc0KM4cCBAwUFhV5eXvHxcR4e/4UIk5OTXn3lhUlXT23VyV2/Y6/Nys9v0TNjHU6VqVSq4w4off2auwjs8OGsRgOObStPCHHJJRfNvXV2S+7JIIQ4bvHtL8nhEystLW24TEmDiU19aHn5js/Aa3hquYX7fszmnHpYmzqmTt9Qmz+N0NCQl15cFBQUZF/zTTNnN7zVsdM7PAAAsnLCQyU++fTzb7/9Xgjh6ek599Zbzjnnvwveg4KC7rnnzrlzb295a7XH3j1Ao9W0Ya2W0Lg213JVVVVLNtTC8qKiombfMst+fGO1Wrdv35GTk2M0mYQQsTEx/fr1bUlTziqpru6Y4VejQ6WGdzFr6t4ONdU1DlMsrQlqN8W5h7WpY+r0DbXt0wgKCnzpxedD7RIsubl5N828pdF/Kzq9wwMAICtnxhiqqqrmP/pYdHR0nz69bRNHjhiePmTw2iauzWrI4a/2mOhoFxeX4z4FqqS4xP7trl27Fz3/YvOrNH9lelMX1bWtvDPPHGc/cKysqrrxxln2j1C+9NKL2zzYbVtJDmuFHXs5XVMTHT7njubcw9rMhZJO7z+t5efn99KLz0dGRtimFBYeufGmmwsKGj9P3+UFAwDQXTghxmDPYrE88+yid95+w37iddfNaPlgd9u2HVdc/t9bDw+PcePGLlvWeNTSxiFIGh0dtXXrtkYv0mqntpUXEx1t//bvVavtR7pCiJTkpE4uacfOf+zfBgYGJCYm7N17TNh32LGXvlVXVx84eLDNdbZBpx3WTttQo7y9vV944dnY2P8ytcXFJTfNvDknJ6epVbq2YAAAuhHn341h585//v57tf2UXr16NrxjQFPWrl1XXV1tP+XWObNTUpIdFvP29p4w4QL7tYzG/25e6+HhMWvmjU1tYvDgQS+99HxoaEgLS2p/eS4ux3zIDoHL+Pi4ceNOb0Mx7Slp7dp1Drf7veWWWfZhhoSEHueee8yz3FavXnPcE8bO1ZmHtXM21JCnh8fzi55JSky0TSkrK59182z7RwqfUAUDANC9dMjdGN56612HR5hOn3bNmjVrW7JuZWXlJ598Nm3aNbYpvr4+b7352m+//bFp8+bKyko/X79evXqedtqo/fsPLF78tbJMeXnF5198efWkiba1Lr/80ujoqC++/Cory1BZWenr6xsXF9und+8xY0aHhYWKNl0v1ebyDh8+5pYU6elDZsyYtnTpMqPRmJ4+ZNbMG5XnHbRN20oqKyv7avHXV17x32MLBg9Ke/fdN7///seSktLEhB4XXTTBzc3NNtdqtb7zzvttLrJtOu2wdtqGGpp18009e6baT6murp576+wmFp6jnL7twoIBAOhenBxjUGzfsWPduvX2d3Lt06f34MGD1q/f0JLV337nvQED+g8cOMA2xdXV9YwzTj/jjOZOf7755lsDB/Tv3buXbcrw4cMcxtxO0Ybyli//efLkSfa3gpo+7ZrpdsPTkpISf3//zixJCPHaa2+kDRyQbJegSEpMvHXOLY0u/PIrr7X8JmtO1GmHtdM25MDL08thSlhYqDI8bci+C3VVwQAAdC8d9VCJt956x2GK/anH5tXX18+bd8evv/7Wqi2aTLVzbp23cuWqVq3VBm0o7+ChQ2+9/W5Tczdv3vL2O+91cklCCKPROHvO3E2bNje/mNlsfvnl195//8N2FNh2nXZYO21DztLtCgYAoEvo9foOGexuydi6ceMm+ykD+vezP/XYvKrq6rvvuX/OrfPWrl3X6GU32Tk5q45NBgshyssr5s67444779m0aXOj6VKz2bxr1+73P/hoyjXTc3PzWliMU8p78823H3vsyZKSYy6ir6mp+fCjj2fdPKepW3p1aEni6IVQtzz8yKO2J83aq62t/fXX366ZOuO99z9oZ3nt0WmHtdM25CzdrmAAADqfVqtV9Uju39VlNMfNzS01JTkoOMjLy8toNJYUlxiys7Ozm7xQXeHu7p6amhIYGODl6VVfX19ZVZmTk5uZedhoNHZheRqNpk+f3hHh4RarpbDwSEbGVoerxDq/JBt/f7+UlBR/Pz83N7eKyoqCgsJ//tnV/lG4c3XaYe20DTlLtysYAIDOERXmd6IPdgEAAIC2SeuX1CExBgAAAKDLabVal4Cgxi/9BgAAALo1lbWWM7sAAACQU0fdjQEAAADocsQYAAAAIC1iDAAAAJAWMQYAAABIixgDAAAApEWMAQAAANIixgAAAABpEWMAAACAtIgxAAAAQFrEGAAAACAtYgwAAACQFjEGAAAASIsYAwAAAKRFjAEAAADSIsYAAAAAaRFjAAAAgLSIMQAAAEBaxBgAAAAgLWIMAAAAkBYxBgAAAEiLGAMAAACkRYwBAAAA0iLGAAAAAGkRYwAAAIC0iDEAAABAWsQYAAAAIC1iDAAAAJAWMQYAAADISe3iqtVq1WoX166uBAAAAHAmtYurm87DYDC4unt4dXUxAAAAgPMRYwAAAIC0tFotg10AAADIyWAwMNgFAACAnIgxAAAAQFrEGAAAACAtYgwAAACQFjEGAAAASIsYAwAAAKRFjAEAAADSIsYAAAAAaRFjAAAAgLSIMQAAAEBaxBgAAAAgLWIMAAAAkBYxBgAAAEiLGAMAAACkpdVqXbu6BgBAhzjtlGGD0/r6+XmrhEoIYRXW0tKK9Ru3/vHX6q4uDQA6icFgYLALALJJSoibePkFAf5+kZGRgYGB7u7uQoiampqioqLoqPDRpw796NOv9+w72NVlAkCH0+v1LiHhsV1dBgDAaUYMHXT5xeN79ezZq1cvDw8Pq9VqMpnq6urUarWPj09MTIy7ThcdGVJTY8oy5HR1sQDQscJD/DmzCwDySEqIO/d/YwYMGODr61tRUaFSqWyzzGaz2Ww2Go1hYWEeHh5CiMIjRZzfBSA3g8HQUWd2/3f2GelDBnl5eWUZsjuifQevvPjsxCsvy8vLz8oydNC6Xl5e77796kUTzs/I2FZcUtLMkn5+vr6+vmq1qra2trXFAEB73HzDNampKYGBgdXV1UIIawNCiNraWk9PT61WG6oP/OOvNQ0bGTN61IjhQ/v26a38FxQUePBQ5sMP3mO1ikOZh4UQ9q8DAvytVlFfX9+5O+p8vr4+77z1yvKffuWrG5BJTGSH3Y3hgvPHT71m0mmnjuyg9h34+vkG+Pu7uWk7bl21Wh0aog8N0Wu0muaXvH3e7E8+fPuayVe1oRgAaLPRo4b7+/uGhYXV1NSIxka6tvFuTU1NWFiYv7/v6FHDG7Zz5rixo0ePCg0NUf7z9/cXQuzatedIUZGyQGBAgIeHu/J6wSMPnDpqRCftYUdSvuTVam5SBEil8+7GEBDgr1arKyoqVSqRlJhQWFiUm5dnmxuiDw4J0ZstloKCwsLCI/YrhoToQ0NCioqKDNk5DVtTq9WJiT0OH86aefNcZcpx2wwODgoLDamurjl4KNNsNgshGq5rz8fbOy4uNi8vr8Zosp+uVqsjwsP8/PxcXV3y8gpsu+Pv56fVaIQQOp0uKCjQYrEUF5c0sy8A4CyDBvYJDQ2tq6uzWCzHXbiuri40NHTQwD6/r/i74dxNm7a89Mob9lN+WLrceOzXoBDC29vLxdXF28srKCiwrq6urKzcz8+3psbo6uqa0CP+UGZmWVl5iD44JDSkrLTscJZBGWo7UFZx02rj4mLz8vLyCwpts9RqdY/4OFeN68GDmUaj0X55+004NBgRER4cFFhZWWX7nm+qKSGEp6dnQo/4/IICk8nxS77R5QF0L513N4bXX30+wN//hx+Xjxw5zNfHRwjx/gefvPv+R2q1+sH77xo5YphtyR+X/vTUM88LIXr0iLt93uzEhB7K9IyMbQ/Nf6y0tMzW2tfffD92zGne3l4LH3/6umunBvj7L3jsqV9+/aOpNuPjYm+dPbNnzxRl4oGDh6ZfO9PWmrKuQ9kjRwy7+865Op3OarUu+fo7+1kvPf90cnKi7W1GxrY773nQZDI99eSjcbExQoizzjz9rDNPLysvv/CiK5vZFwBwFj8/Hz8/v9ra2kbHlA5qa2v9/Pz8/Hxa2PiCRx74YenyH5f+ZD/x0osvjAgPm3DheaePHX3g4KEnnnruicce2bfvwKC0AcUlJR9+9NnwYen9+vbOzcsPDwstKyu//a77Gp5ZeOKxRw4dyuzdq2fhkSNJiQnvvvfRZ18sFkJERUY8+sj9FoulrLw8KjJy4eNPr9+wSVnefhMrV/13JzWVSvXAfXf2TE05lHnYz9e3pLT0jrvub6apvn17z3/4vpzsXJ27LiNjm62dppYH0O3o9fpOvUDtjHFjFi/5LiYmamj64IlXXvrVkm/iYmNGjhhmMGS/8NJrrq6u8fGxVotVCKHT6R5f+HCAv/+PS3/6Y8XKCRecOzR98B23zbnrngdtrV1w/vh16zcWFBQ6jBp790pt2KZOp3visUcCAvyzDNmLl3zr4uKSYjdUbZROp7t19kydTpeRsW3FX6vGn3OW/dzNWzK+/vb7gsIjPt7eM6ZP6devz8UXnf/Rx59///3SCReeFxERvnv33vUbNhmNxpbsCwC0n0olNBqNwxnKZri5udldwHaMgQP7z7v1ZuX1km++27+/8evY3nrng8GD0pZ8893yn361TeyZmjzt2puUQe2u3XuOHCkSR4ehd116yYS33n6/YTupqSnX3nBLZWVl3z69nnri0RV//Z2bl3fHbXN++2PFu+99JIQYPiz9jtvnTJw0Xdk7+03Yi4uNGTwobcIlE5XFbFmLRpuqra299ZabPv988YcffyaEuPfu22ztNLNpAN1LZz9UYsnX3732xttBgYGff/qei4tLWFio8gOTv79/3769sw4b/vxzpfIT/+BBAwP8/c1m88ZNWzzc3TO2bh+aPjh9yCAfH5/y8qO/WP38y+8LH3+64VYabfOUkcMDAvyFEHfd/UBObl7DtRrq17e3n5+vEEI5C7t3/4Hnn33CNvf9Dz8dMXxo756pHh4elZWVQojkpEQhxJJvvh88OC0iIvyfXbvffvcDIcQpI4cfd18AoP1UQmWxWFqSYVBYLBbleRMNVVVWZeccDVw1TC80b+myn23D0CNHigYM6BcbE+3p4eHiok769wcuB8uW/6x8kW7dtuPAgUNDhqStXbehZ8+U1998p0ePOCFEfkGBVquNi4vZtWuPwybslVdUuLq6XHTheX/+tSo7O6e6ukYIERoa0mhTVVXV0dFRXy7+Rln3qyXfjhl9ajPLK5sG0L109kMlDhzMFEJUVVcrb7Va7fbtO7/+5vvx55w18YpLlYnf/7DsmedeVAamLi4u991zu30LQYEBtgFixtZtojE7du5q2Oa+/QeEEEajsYUjXSGEUoPJZFLOHOfl5ttm+fr6vPrycyF6fVlZWX5BYVBQoBDC28urmXaa3xcAaD+VSqWcfWxJjEFZWNXEqd3de/Z+8umXbSujqLjY9nr+w/cFBwet+ntNRXlFjdEY4O/f6Cq2axuU1QMC/PXBQRaLxfY1LoT4Z+cutUrdcBP2jhwpuue+hy++6IKrJl5WXFL65lvv/vHnyqaa8vf3q6mpseVxi4uOttn8pgF0L50dY7BYzKLBt/DzL776ymtvxcfFpg3sP33a5PHnnPXaG28rl5TV1tZNmjLDZDp6Fxidzk35OUzRzN1hGrb5yKOPCyF0Ol1sbMyhQ5ktqVapwc3NLTg4qLDwSFR0pG3WkMFpykj30ium1NXV3X3n3NPHjrbNVU4t2y7pbcm+AED71ZstJSUlgYGBdXV1x11Yo9EUFRXVm1t6GrgpFqulqRFzWGjo0PTB515wmXJ3CF8/34iwsEaXDAnR279evWZdfn6BWq1+8unnbbeAaKENGzdv2LjZ1dX13HPOuvvOeWvXbWyqqfDwMHd3d29vL+Uksa2GNm8awAlIq9V28T9Vk5ISHl/48AXnj4+MDHf3cBdC1NbWmUy16zdsysvL12o1d9w2Z2j64NGnnXLDdVMXzH+gJT/PNdrmmrXrlXO6jy98aMrkidOmXr1g/gPNt5OxdbsyTn30kfunXTPp9nm32GZVVVULIby8vCZceN6kiZePPm2U/Yp5eflCiNNOPeWuO+ZecvGF7dkXAGi5w4bcwsJCtVptsViauu+YwmKxqNXqwsLCw4bcdm60qKg4Ljam0fGu2WJWq9XKIDI8PMzhygd7Z581LigwUAgxYvjQyIjw1WvW5RcUbtqcceMNM3Q6N2WZ/v36HPe+YCH64MiIcCFEfX39nr37VCqV1WptqqmcnNw9e/dNmni5EMLV1fWKyy9R5rZt0wBOTJ0dY2jIZDTFxcYMHjRQeVtaWvbyq28oNyefe9s9M2+6dmj64IED+gkhKquqfvvtzza3WVNjnHvb3TNvvHbY0CFXX3WFEGL79p3Nt1NXV7fw8afvv/fOhB7x0VGRH3z06bRrrlZmrVm7fsVfq0adMuK6Gdfs2bvv9z9W2J/Z/fKrr5OSEpKTEsedPtrP1+eLL5e0eV8AoOVWrFyTEBdVUFAQEBDQTETBarW6ubkVFBTU1tatWNnIQyVa5dPPvrxt7i0XnD9+9+69N885JqxVUFD4+ReLX3nxmby8AldXl99++7NXz9RGG1m1as3zi54019cHBgYsev6VoqJiIcSCx56aO2fWV59/WHikKMDfLy+v4IaZc5ovJigocMH8B41GY2VVVVBg4PMvvqqkFJpq6qmnn390/v2njhqpVqt/+HF5+pBBSjtt2DSAE5Ner1f1HXRaV5chfH19fH19jEbTkSNFDuc7NRpNaIi+uqampKS0VadCm2pTo3EN0euNJlMLUwQajWtYWGhhYZHyM5y9wMAAN6225SHgNu8LALTQbXNuDAzw7hEf7+Hh0eh4VxnpVldX7z9woKi44slnX+7oknx9fby9vHJy85r63nv91ec//2LxnytWhoWFHjlSpFxVZqPT6YKDg0pKSpUr2I5LrVYHBwdpXF3zCwod4hyNNuXi4hIREVZUVKz8ZNeeTQM4AfVNiTwhBrsAAKfQBwfdduuN5npTeFhYYGCg2Wyur69XRplqtdrV1dXFxaWoqCgnN9fF1e3JZ14uOPY5Pl1CGew2vNM5ALRfgJdwCQmP7eoyAADOUVVdffBQ5uBBaVWVFSUlJUIIjUaj1WpdXFzq6+vLysqys7MrKirVLtrX3nw/y3BCPM0xJib6n3/25OcXdHUhACQUE3lixBgAAE6kDw6aePlFcbFRdbWmuvpa5WE9KrVK46rVaN0OHsr66NOvToRzugDQ0YgxAIC0UpIT0gb2S0ro4evrLYQoK6vYs2//xk0Zu3bv6+rSAKCTBHgJBrsAAACQU0q8nhsHAgAAQE5d/1AJAAAAoIMYDAYGuwAAAJCTXk+MAQAAAJLSarVd/LhgAACALqRSqUOT0wOiUjRfIDUMAAAgAElEQVQ6z66u5WRXZ6wqztqVt3ut1eq0B80aDIZWD3b1+lC/gACdzl2t5qww2s5isRiNNaXFxQUFLX3esnPRk+EUXd6T7VmtVpUQOnd3rU7n6uIqGjwrGOgQVmu9ub7WaDTW1FiFaPiQ6hNcaEp6SEJaV1cBIYTQ6DxDEtOESuT+s9pZber1+tYNdnskJnt7+zhr8ziZqdVqDw9PDw9Pb1/f/Xt3V1WUOrFxT2+/5hegJ8NZurYnO1AJlbevr0ardWINwPGpVK6uGlcvjUbrVlFW1tXVtFpAZHJXl4BjBEQmO3Gw27q7MehDQhkfwOm8vX30IaGduUV6MjpC5/fkhnTuOka66EIarVbnruvqKlpNo/Pq6hJwDOcekdbFGPz8A5QXOdmGwoI8q9XqxFJwslGpVMH60PCISGHXtToHPRlO1IU9uSGt7ug4o7qqsqamRtC30TlUKnd3dw9PLyGEVqczGo1dXRDwn9bdjUGnc1deMD5A+1mt1sJ/M462rtU56Mlwoi7syQ25uhw9f8FIF53Kaq2pqVFe2johcIJoXYzBdh0P4wM4ha0jdfIlYvRkOFdX9eRG2C4Mom+jk9m6XHe7Og3S46ESAAAAkBYPlQAAADixaF1d/Lx0GhcGaU7AQyUAAABOCCohhvaOGtE3OizQS7ldcVFZ9abducvW7iWa1GZteagEAAAAnEutUl1zzoBe8XrlbV29Wa1WBfp6jBvS49eNB2rrzF1bXvfV6odKAAAAwOnGDopXRrqFpVWf/rztUF6pSqUKDfA6pX+MsDutq/f3jAz2cXFRF5RUZeb99xSbYD8PN62r2WzJLaqM1PuEB3rvNRSVVBy9DVyAj3uU3tdN41JebTqUW2qsrXdxUYUGeAX6eOjcXM1mS35JlaGgvHP3uJMQYwAAAOhiKiFO6R8jhLBYre/+sDm3qFIIYbVac45UfPbLdmUZD51m4hl9U2ODbWtlFZS98/3m0kqjEOKi0b2SogKLy2u2H8gf1T9WCPHBsoySilyd1vXy03v3TfjvkTclFTWPvPPnZWP7DEoJt6/BUFD+xrcbKqprO3xvO1dHxRhGjxo6YmiaEMJqtRpNtaWlZQczDes3bauoqOyIzQEdbeZ1k3x9vV9546Piku73JEwAwAku2N/Ty10rhMgpLFdGug1ddWbflJjgunrzbxsPVlabxg7uEaX3nXbuwGc++dt25tffWzeqf2x2YbnZYlXuinjVWf16xgYLITLzSvccLvL2dIsJ9RVC1BjrVm/PyiuqrDHVhQd5j+ofG6n3+d+wpM9+3d4pe9x5OirGoNG4uri6fPzZt0IINzdtiD5oYP/ew4cO/PSL7/cdyOyILQIdJy42KjQkuKq6ZmD/3r/8vqqrywGAjhUbE1FWWtJwuq+f/6HM7M6v52TgodMoL0orGn/+nN7fMyUmWAjx+6aDy9fuE0LUmOqvOqtfRLBPj8iAfYZiZTGVSvXl7zv+3palvA3281RGuvsMxS8vXqdMVG7ysGTFP2q1KtjPw8NNU1JhTIwKjAj2SYjs4sdAdoQOjDFYLda9+w8pr7fv3PPX3+uvueqiyy4+5+lFbxlNJmW6n693WKjeTas9UlxqyM7toErQ3a1ds7KpWelDR3ZCAQP79zp0OPvgoayB/Xv9+vsqrohF23R5TwZaKMuQFxsdVlxcbD8xICDg0GH+pu4oNaZ65YWPl67RBUIDvJQXZwxJOGNIgsMs22C3tt68+t+RrhAiLPDoWtv259sm1pktQoihvSLPHZns7qaxb8o25pZJ592Noba2bulPf1479YrevZI2bNomhBgxNO300cOLikvr6upDQ4Kyc/Lf+3hxXV1959QDtJCbVtsrNfHHZX8czMwaPWpojx4x+/bz6wQAmZnN5sKiskB/v9LSo9c/+fn5FRaVmc3cEKCjFJZU1Zjq3N00EUHeQb4eR8qqHRaw/HvvsQPZxUXlNfaz7BeurK61PyNj/nct12Nv2Rvo637xmF5qlepQbumqrZmmOvOZ6QkRwT5O258TSafejSHLkFtXXx8edvSeGnv2HdyweZvJVCuE8PbyvG7aFSOGpv3x19pOqwdoiT69k1Uq1badu02m2sNZOWn9ezPYBSC98vIKfz9fb2/viooKb29vi1VdXl7R1UXJzGK1rt6eNSYt3sVFffXZ/T9cnlFQUiWE8PVyO6VfzPK1+7IKyqxWq0qlKiqv+eTnbbYVk6OD9mcXN9WsIb/MYrWqVaohPSNWb88y1tYLIYJ8PUICvdQqlRDizy2HMvbmuWlcLhnTq+P3smt06t0YrEKYjCadm5vytvBIsRBCq9V4e3m6uLgcOpwdExXRacWge0kfOnLtmpUN/98Jm07r32vX7v3Kv8o2Z+w856zTdDo3o9HUCZuGfLqwJwOtlXnYMKBfH41G4+Pjvzlj2/FXQPssW7MvNtQvPiIgUu9z56RTyquMarVauWrtp3X7yypNa3YYhvWOGpwa4e+tyzlS4e3hFh3iG+jrcferv9SbLY22WVZl+nvr4ZH9YkICvO6+elRmfqmXu9bH0+3VJeuVQfC5I5Liw/yTogM93CQMMCg6+6ESbm5aZdAghNAHB14wflxkZFhNjbG2ts5d51ZaJucN3tB+ymig4f87WnBQQFRk+F9/f+vq4iKE+Gf3vnPOHt2vT+ra9Vs6YeuQT1f1ZKBttm7fOXhQ//Ub+MbrDPVmyytL1o9Jix/RN8rHU+fjqRNCGGvrM/bm1ddbhBBf/bGzsrp2ZL/ohMjAhMhAIUSNqW7L3rymRrqKr1fsqqypHdU/1stD2ytOL4Q4nF9WWFr97V+7xg9PDvDxGNEv+u+th4vKa3ra3dRMJp0aYwgPC9FoNLl5Bcrbyy8eX1BYtODJl5WTZP8787QecdGdVgy6l646Hzawf28hxJWXnmc/Ma1/bwa7aBvO7KJ7MZvNa9Zu7OoqTiJmi/Xn9ft/Xr/f31vnodNWG+vKKo22tK7FYl26Zu/ytfuC/Dw0ri5VNbVlVUbbY4RfXbK+0TYtVutP6/b/vH5/kK+HVuNaWW0qqzIJIVZsyVy70xDo41FWZayqqeuU/esanRdjcFGrzxx7iqm2dvvOPUIIjcZVHxy4/JcVtp+DoyPDOqcSdEddcj5MrVL175u6cfP21es22yZGhIdceO4ZoSHBefmFHV0A5MOZXQAtUVJhLGniHmQWq1WJ87aK1SoKSx0vejPVmnOOyB/FNhgM6uMv1SYqlYiMCIuMCOsRFz0sfeBN102Kjg7/8utl1TVGIURdXX1lVXXf3ikuLi6uLi5jTh0WGqrvoEogAeXGTA3/36GSEuO8vTzXbsjIyy+0/bd5y46qquq0/tIG+dGhuqQnA8DJrANjDBqN5vppV1it1traupLSsv0HMtes31JU/N9DnL/+/ueLzz/r/jtnCpVq/4HMdRsyiDGgKV1yPmxg/95HikpycvPtJ1qs1u079/Trk7rs5xVmS3MxKaAhzuwCQCfrqBjDT7+u/OnX43yD79q9//FnXgsI8KupMZbzGGE0ratOfX38+beNTv9u6W/fLf2tk4uBBDiJCwCdr7PvxuCgrr4+v+BIFxYAAAAAien1+o7K7AIAOpvtwmyVqkvrwMnH1uWs3e+R6nVGfl4+sTj3iGi1Wga7ACCJevPRJ667u7sz3kXnUanc3d2Vl7ZO2I0UG3Z3dQk4hnOPSBfHGAAATlRrMrm6aoQQHp5eHp5eXV0OTka1pu73gMm8XWuFVQREpWh0nl1dy8muzlhVnLUrb/daJ7bZqQ+VAAB0qJrqKo1Gq9Fqu7oQnKTqamtrqqtUqm72o7HVasndtTp31+quLgQdovMeKgEA6HBWVXlZqbu7h1bn5uriSpIBncRqrTfX1xpNNTXVwqoS9DucSFoXY7BYLGq1WgihUqms3TCBjhON6t+/iS2de8NaejKcq6t6ciNUQlhFTU1VTY3jo5KAjmdlpIsTUOtiDEZjjYeHpxAiWB9aWJDHKAHtoVKpgvWhymujsaYzN01PhhN1YU9utBihEoLhBroGI12ciFoXYygtKVaGCOERkeERkR1WFU46pSXFnbw5ejI6Qif3ZADAcRkMhlakyAvy8yoqyjuuGpycKirKC/LzOnOL9GR0hM7vyQCA49Lr9aq+g05r5TqhfgEBOp27knoE2sZisRiNNaXFxQUFXTM+oCfDKbq8JwMAmtE3JbLVg10AAACgWwjwEpzTAgAAgJz0ej2DXQAAAMhJq9Uy2AUAAICcWnc3BgAAAKAbIcYAAAAAaRFjAAAAgLSIMQAAAEBaxBgAAAAgLa1W69qqFXjoFAAAADqI0x9LaTAYWjHY7ZGY7O3t45QNAwAAAA7UarWHh6eHh6e3r+/+vbvb32ArYgz6kFBGugAAAOgE3t4++pDQ9rfTihiDn3+A8iIn21BYkGe1Wtu/eQAAAMBGpVIF60PDIyKFEH7+AQX57Q0ztCLGoNO5Ky8KC/Iqy0vauWEAAACgUcpg1zb4bI9WxBhsV6RxThcAAAAdxDbUdMrtEHioBAAAAKTFQyUAAAAgLR4qAQAAAGkRYwAAAIC0iDEAAABAWsQYAAAAIC1iDAAAAJBWKx4qAXRHo04ZERqir6qq+mHpT85aEl2CA4SOxtcF2s/L09PLy7OktMxkMrW9ES+v/501TgixbfuOf3btcV51Jym9Xi/tYPehB+46b/zZQoiMrdunTLtRmXjdjGuuv/YaIcTFl03ef+BgV9aHNrEd1isnTW/JV8D0qZOGD0vPzs457t9JLV8SHcR2cO3V15sHDxstOEAysh1xi8VaV1dXVl5+6NDhX3/78+tvf6itre38evi6QHtMufrKGdMmh4Tolbf5+QUZW7ffOGtuG5rSBwctmH+/EOKZRS8x2G0/rVYr7WDXXafz9vYWQowcMezUUSP/XLFSCOHmplUmql3Ib3RLtsPq4tqirrtjxy4hRGFhkROXRAexHVx7ZrNZecEBko/DEQ8KCuwRHzd2zKlTJk+ccf2s7OzcTq6Hrwu02bXTp9w+7xYhhMViqaio9PHxDgnRjx1zalfXBSFOnhjDvFtnKoPdpvSIj+vZM0Wr1Rw+bNi8ZWt9fb0yPS4uxtPTs7a2ds+efWkD+0dHRW7Zuu3gwUwhREpyUmpKUubhrE2bM+ybio+L7dUrVaNxPXgwc/OWrR23U1DExkZ7eXkpxyg1JSklJdlgyF6/YZMy97MvF3st81LOEmk1mqTkxIYtbN++02FJm6Y6BjrUvNvv3Wf74eXfh0Y6HKDmj7sNfx67hXm335uTmxcfFzNl8sSEHvFJiT1ef3nRuRdebrFYlAWaP47h4WG9UpN9/XwrKiozM7P27ttv+zeSECIyIrxPn14eHu6FBUc2Z2ytqKi07zy9e6UmJyeuXrM+Jye3g74u6KsngwsvGC+E2Ltv/xVXTSstLdNqtT1Tk888Y6zDYs0cZZ1Od8rIYZ4eHmvXb2xqK3SStpE5xmBTXl6RmpI8/pyzvv9hWcO5fn6+Tz/56KmnjLBNyc7OmTPvbmUIO/+he9OHDMrJzdu0acv4c84SQlgslrvve7hHfNyMaZOV5b9a/O0ddz9wtKkn5p86aqStqe3bd94wa25ubl6H7uBJ7uEH7h4+LD0nN++PP/668opLlIk//fL7jTNvtc3Nzs45dew5YWGhX3/5UcMWknsNMpvN9kuK43UMdKh9Bw4qQwp7Dgeo+eMu+PPYrShHfN36jYuXfPf14k+SEnskJyeeMW7MsuW/HPc43jr7puuvnapW//dj3Y/Lfr559u1CCG9vr8cefdB+wJGTmzdq9Nm2vvTzL79PmTxRCDF77l05Obkd9HVBXz0ZeLi7CyFMptr6unohRG1t7ZaMbVsyttkWaP4ox0RHffDua+HhYUKI2tq6t9/9wKF9Okl7nBR3Y3j9zXeFELNvvsHFxaXh3GefWqh8Q33/w7I3336/srIqIiL8zddeCAwMsC0THhY6ZHDa4q+/q6qqVqvV8x+6d8rVV373/dLMw1lCiIsmnNczNVkI8cyTC04dNdJkMr3w0msPPLQwL7+gd++er738nEql6pw9PZmFh4WOP+esr7/9ITcvXwhxxumj04ekOSxTVV29bPkvyn9/rVytTKyoqLCdPbLXko6BDrJw/v2fffyO8p/yy2BTmjnu/Hnsjmrr6t7/4GPl9ZDBaeJ4xzEwMODG66er1epPPv1y3u33PvbEsz8u+9lYU6O08OxTC5SR7paMbS+98ubnXy6prKi0bSs8PGzK5Ik7/9m9ddt2a4MvAad/XdBX5bZx0xYhRO9eqWtX//bZx+/cdcetI0cMtV+g+aP84P13KSPdZct/+fKrr6dOmeTQPp2kPU6KGMMnn3152aUTYmOiL73kQodZPeLjThk5TAjx/Q/LZs+9Swix859dzzy5wMfH+8ILxr/51vu2JadMv3HPnn0VFZWTJ13h6ur6xFOLXn/z3RHDh7739itCiOTkJKPRNOqU4UKIN996f9ELrwohyisqnn1qQc/U5PQhg9asXd9p+3vSmn7drE2bM9KHpH30/ptCiJSU5LXrjvkx6MiRopm33CaE0Ol0b7/xohCiqqp66oyZ1n9/KLdpecdAR0hNSba9Li+vaH7hRo97fFwsfx67KUN2jvLC38/3uMfR18dHWXj/gYObNmcYsnNsg9G4uJjTTj1FCLF23YaJV89QJrq5udk2pFKp7n9wwcefftFoGR3xdUFfldjCJ56NiAhPG9jfTatNG9g/bWD/addM2pKxbdKUa2tqjM0f5cNZBqULLVv+i9LrDmUevvvO/65so5O000kRY6irq1v0/CtPPTF/5g0zvvnuR/tZCQnxyosNGzf/+2KL8iKxRw/bYsUlJXv27BNCFBUdvRxh9Zr1QoiiomLlra+Pd2Li0eVvunHGTTfOsN9KYkI8fbGjlZWVK78Y5uQc/U3H18fxUieFVqN59aVnhgxOMxqNM66/udHYUws7BjrIs4teNhiyldd5+fnNLNnUcefPY/cVHhamvCgrLz/ucTyUeXjX7j0pyUn33n3bvXffZjKZNm7asuiFVzdu2pKUmKAs+dMvv9vWsr8blNFo/OSzL5svxolfF/RVuRUWHrnsymv69e09+rRT0gb2H5Q2QKPR9O/X55rJE19+9a3mj7LtZ+d1/ya51x0b26WTtJPMd2Ow9813P86YNjk5OfGiCefZT7f8exGD67+X9mv+fVFv/u9SpJrqoz+Kmc1HzxlUVVUJIex/PbA1tX7Dpqwsg/1WMjOznLMbaFpl5dFfJy3WRn5ktHF1dX3x+adGjhhmqq29Yeat65q4DqCFHQMd5M+/VjXM7DaqqePOn8duysXFxZZq3bBxy3GPo8VimXj1jMsumTBk8MDY2JiY6Kjhw9J79UwdceqZ5vqj62o1mka3VVRU3PA0rT3nfl3QV08GGVu3Z2zdLoTo1TPlm8WfCCFSUpLF8Y5yXV2d8trWc1yPvd0QnaSdTooYgxDCarU+/dyLr7+yKDDgmMDltu07rVarSqUad/ro9z74xGq12i5l2Nayv2sbNpWVZbj9rgds008ZOczhx3R0FbVa/exTC8aMHlVfX3/z7NttObyGnNgx0CX489i96IODEhPi4+JiZ0yb3LtXqhDi0KHM5T/9EhgQ0Pxx1GhcNRrN62++q1ybMeHCc59Y+LCvr09UZPi27TssFotarb74ovM/+ewrZawZEx2lXGtxXJ32dUFflcPjCx5atXrNr7/9WVVVLYSw3VOvoqJCHO8oe3l5Kn319LGnvfPeRxaL5eyzxtk3Tidpp5MixqD47fcVGzdtSRvY335iXn7B518uueySCelDBv3wzeeFR44MH5YuhMgyZH/z7Q+taj8vv+CzL5ZcfumECReeFx4evmvX7qDgoL59ekVHRQ4YfEqX3CAdDsaOHqV8g5jN5vvvuf3+e25Xpo8ed67DRSdO7BjoEvx57F5ef2WR/dssQ/a1N8yuq6s/7nH09fVd9efy9Rs2Zx4+XF1dM/rUkUKImpqaLEOO0Wj86JMvJk28rEd83K8/fZORsT0wMCA4OGjUaMcHlzSq074u6Kty6NOn10UTzrNYLDk5eVZhjYqMUKb/uPRncbyjXFxc8s13P154/vjBgwYu/f7LsrLyvn162TdOJ2mnkyXGoHjiqUWfffyOw8QHH15YXlYx8cpLk5ISkpISrFbrir/+vveB+TU1xta2/+DDC4uKiq++6rKh6YOGpg8SQlRUVPy47GeTiY54QrA9h8LNzS0iItw2vdGrWZ3YMdAl+PPYvdTW1pWXl2cezvr5198//fSryqoqZXrzx7G2tvbgocz0IWnKLCFE5uGsh+c/YTQahRDzFzxZVFR8zeSJgQEBY0aPEkJs3ba9hfV05tcFfVUCX3719Xnn/q9Xz5TIyKO9pbDwyLOLXl719xrlbfNHef6CJ0ND9MOGDukRH5ebl3/fA48ufPQB+/bpJO1hMBhUfQed1pJF+w8crLzYsml9VUVpBxbVFTQa19jYGI2rqyE757hXfzfPxcUlJjrK3V1XXFySX1DY6H1q0F04sWOgS/DnUQ7NH0cvT0+9PtjdXVdUVJyXX+Cwrlqtjo6O9PTwOHKkKL+gsOOKbOfXBX1VAjqdTh8c5OPrU1ZalvXvVbb2mj/KUZER7h7u+/cftH8qSstXl4mnt5/9sLOdraXE6xnsAgAA4ETh3MFu35RI+R8qAQAAgJOTwWBgsAsAAAA56fV6BrsAAACQk1arZbALAAAAORFjAAAAgLSIMQAAAEBaxBgAAAAgLYPB0JYnqHl6+zm9FAAAAMC5iDEAAABAWsQYAAAAIC3uxgAAAABpEWMAAACAtIgxAAAAQFrEGAAAACAtYgwAAACQFjEGAAAASIsYAwAAAKRFjAEAAADSIsYAAAAAaRFjAAAAgLSIMQAAAEBaxBgAAAAgLWIMAAAAkBYxBgAAAEiLGAMAAACkRYwBAAAA0iLGAAAAAGkRYwAAAIC0iDEAAABAWsQYAAAAIC1iDAAAAJAWMQYAAABIixgDAAAApEWMAQAAANIixgAAAABpEWMAAACAtIgxAAAAQFrEGAAAACAtYgwAAACQFjEGAAAASIsYAwAAAKRFjAEAAADSIsYAAAAAaRFjAAAAgLSIMQAAAEBaxBgAAAAgLWIMAAAAkBYxBgAAAEiLGAMAAACkRYwBAAAA0iLGAAAAAGkRYwAAAIC0iDEAAABAWsQYAAAAIC1iDAAAAJAWMQYAAABIixgDAAAApEWMAQAAANIixgAAAABpEWMAAACAtIgxAAAAQFrEGAAAACAtYgwAAACQFjEGAAAASIsYAwAAAKRFjAEAAADSIsYAAAAAaRFjAAAAgLSIMQAAAEBaxBgAAAAgLWIMAAAAkBYxBgAAAEiLGAMAAACkRYwBAAAA0iLGAAAAAGkRYwAAAIC0iDEAAABAWsQYAAAAIC1iDAAAAJAWMQYAAABIixgDAAAApEWMAQAAANIixgAAAABpEWMAAACAtIgxAAAAQFrEGAAAACAtYgwAAACQFjEGAAAASIsYAwAAAKRFjAEAAADSIsYAAAAAaRFjAAAAgLSIMQAAAEBaxBgAAAAgLWIMAAAAkBYxBgAAAEiLGAMAAACkRYwBAAAA0iLGAAAAAGkRYwAAAIC0iDEAAABAWsQYAAAAIC1iDAAAAJAWMQYAAABIixgDAAAApEWMAQAAANIixgAAAABpEWMAAACAtIgxAAAAQFrEGAAAACAtYgwAAACQFjEGAAAASIsYAwAAAKRFjAEAAADSIsYAAAAAaRFjAAAAgLSIMQAAAEBaxBgAAAAgLWIMAAAAkBYxBgAAAEiLGAMAAACkRYwBAAAA0iLGAAAAAGkRYwAAAIC0iDEAAABAWsQYAAAAIC1iDAAAAJAWMQYAAABIixgDAAAApEWMAQAAANIixgAAAABpEWMAAACAtIgxAAAAQFrEGAAAACAtYgwAAACQFjEGAAAASIsYAwAAAKRFjAEAAADSIsYAAAAAaRFjAAAAgLSIMQAAAEBaxBgAAAAgLWIMAAAAkBYxBgAAAEiLGAMAAACkRYwBAAAA0iLGAAAAAGkRYwAAAIC0iDEAAABAWsQYAAAAIC1iDAAAAJAWMQYAAABIixgDAAAApEWMAQAAANIixgAAAABpEWMAAACAtIgxAAAAQFrEGAAAACAtYgwAAACQFjEGAAAASIsYAwAAAKRFjAEAAADSIsYAAAAAaRFjAAAAgLSIMQAAAEBaxBgAAAAgLWIMAAAAkBYxBgAAAEiLGAMAAACkRYwBAAAA0iLGAAAAAGkRYwAAAIC0iDEAAABAWsQYAAAAIC1iDAAAAJAWMQYAAABIixgDAAAApEWMAQAAANIixgAAAABpEWMAAACAtIgxAAAAQFrEGAAAACAtYgwAAACQFjEGAAAASIsYAwAAAKRFjAEAAADSIsYAAAAAaRFjAAAAgLSIMQAAAEBaxBgAAAAgLWIMAAAAkBYxBgAAAEiLGAMAAACkRYwBAAAA0iLGAAAAAGkRYwAAAIC0iDEAAABAWsQYAAAAIC1iDAAAAJAWMQYAAABIixgDAAAApEWMAQAAANIixgAAAABpEWMAAACAtIgxAAAAQFrEGAAAACAtYgwAAACQFjEGAAAASIsYAwAAAKRFjAEAAADSIsYAAAAAaRFjAAAAgLSIMQAAAEBaxBgAAAAgLWIMAAAAkBYxBgAAAEiLGAMAAACkRYwBAAAA0iLGAAAAAGkRYwAAAIC0iDEAAABAWsQYAAAAIC1iDAAAAJAWMQYAAABIixgDAAAApEWMAQAAANIixgAAAABpEWMAAACAtIgxAAAAQFrEGAAAACAtYgwAAACQFjEGAAAASIsYAwAAAKRFjAEAAADSIsYAAAAAaRFjAAAAgLSIMQAAAEBaxBgAAAAgLWIMAAAAkBYxBgAAALggNqsAABDTSURBVEiLGAMAAACkRYwBAAAA0iLGAAAAAGkRYwAAAIC0iDEAAABAWsQYAAAAIC1iDAAAAJAWMQYAAABIixgDAAAApEWMAQAAANIixgAAAABp6fV6166uAQDQqUYMH6IPDqqurln+8+8N33Z+Ae1cvfPrB9CNaLVaBruAtO6+Y/b/zhorhNi+Y9f1M29TJk6dfMXUKVcKISZdc9PBQ4e7sr4TQPqQgUOHpAkh3n7vk4qKSok3am/yxEvTh6Tl5OYpo0OHt63Vht1p5xadWz8AuRkMBga7gLTcdW7eXl5CiGHpg0YOT1/591ohhFarVSa6uJBiEgP69Zk6+UohxBdffdtp484u2WjHkWx3AEiGGANwsrj5punKYLcpsTFRqSlJGo3rocysrdt22s8KCw1JSU7w9fWprKw6nJW9/8BBs9nS/Kwe8bFublqj0XTgYKYQQufmFh8fI4TIzc0vKS2LiY709PSora3bt/9gclKPpMSE7JzcTZu3Nr8LEeGhPVOTPTzcjxwp2rptZ0VllW1WXGx0SnKiVqvJMuRs3bqj3mxWpje/objYaH1wkPI6MSHez8/XZKrdf+BQ8x/IcYtvft+b32hTO+KghR9gM8e0eRqNpkd8TGREuJeXZ11d3cFDh3f+s6fRJZvanZa30Ktnco/42JycvA2bMpxSf8s3DeBkQIwBOCmUV1QmJyWcdcaYZT/91nCur6/PgofuHjki3TZl5z+759x2f15+gRBi1g3Tpk65Uq3+7zTwT7/8cdtdDzU/64kF9yf0iNu1e99lV80QQsTHx3zy/mtCiIVPLPr0i6/vuWN2+pC0vLyCFavWXHrRecq6v/2xcs5t9zVav7eX54P33X76mFG2KXl5BWeee9nR4h++Z+TwIbZZObl5d947P2PrDiFE8xta8PDdPVOTlYnPP7NACLFv/8GLLp/a/Ady3OKb3/fmNtr0jjg4bg3N78JxPXjvbeP/N85+yj+79t40+46iohKHJZvanZa0oFapH7rv9gvOO1t5u/LvdbfMvae+vr6d9be8eAAnA+7GAJwU3n3/EyHETddPbTS6sPCRe0aOSDeZal99471HH38uv6CwZ2ryoqcfValUAQH+06depVarv1j87T0PLHhm0Ss//fKH0WgUQjQzy8ZqtTZTVWio/qwzxnz/48/5+YVCiDGnjRw0sF+jSy6cf68y0t26fecbb3+w+JsfbKd1H5t/rzJAXLr8t/c+/Kyqqjo8LPTF5x4LCPA/7obWrt+knHwVQqxctfbnX/9cvXZD8x9Iy4tvat+b2mhLdqTlH2BLdqEZ5RUVXy35/vGnXrj3gYXvf/S52WxOTUmcdcP0lu9OS1oIDdUPSx/0wcdfbN+xSwgxcviQKy69sP31t7x4ACcDYgzASeGLxd9NuGB8dFTEhPPPcZgVGxM1YtgQIcR7H372yuvvCiEqKiofm39vSnLC4LT+BYVHlMUOHjq8JWNHTm6exXI0wODj7dXULBur1XGKg5mz78zYumPQwH5vvfacECIpKaHhb9kxMVGnjBgqhNiwccu06+coE93ctEKIuNjo4UMHCyGWLv/tznsfEULs2r1v4SP3+Hh7nXvO/9u799gqyzuA42/bQwetUChQoS03AcXNC1dv0ejM5mUiw9vmLi4mOqaJM9MtbjMxm3G6sBkvY9PMy0RwKGJ0apB4S1y2eWVcrJeo8wKccinQVlBKW9vuj4NNV+zpKafG5cfn89fLeU+f93le/nngfPueU+5dvDT7hW5ZcMfu3c2XzrswSZLr59+8cdOWXm/IyytX5zj5ntb+mRfNfSG53MDcl9CT+TcuSBUVjR1bXTZk8KbNW46aOX3KIZNmzZyW43JyH+HSy6/KNA8rHrt/5Ijh550zZ/GSZXnOP/fJA/sDGQPsF1pbW2+/457rr7163sU/WL7i6a6nJk2ckDmYd9EF8y66oOupgyaMW7lq7dvvvHvw5IlXXXnZVVde1tzcsmZtze13LFy99rX1G2p7OpXjrHbs2Jn5jH7Tp59Nd26gu5r86Qyffe6fnS82N7ckSTLxoPGZP65eW7PnYM2eg4kTxvf1QhnZb0jnTqtPY/Yqx4V009McclxCFmfPPeOKyy/ptqIhQwb3+oN9GqGh8cNMrNza2lrz2psnn3R8VeXooqLCPOef/+SBSDyNAfYXy1c8c+EF50+edNA3zzy96+ttn/4K1KrVr6ZrN3Y9tSFd297eftElV5wzd/aM6UeMGztmTHXl0UfNOHTKwV//xnm7m5uznMp8hl9UVJQZatjQsr2n9NHHe1KEjr3+S7irTz7ZM8PiAQO6neqcfCpV1O2grcuvduV4oW4/+Jk3JJcxc1l7TxfNvpBueppDjkvoSXVV5TW/vLKwsPDVmjceWPbIrl1Nl/zwwimHTMqtgOjDCJ1r7Dxua2trb+/IZ/75Tx4IRsYA+4uOjo4Ft931h5tuKB82tOvrr7/5VkdHR0FBQbp24zXXzu98/bhjZq1ctSaVSg0YkLpn0f33LLo/SZI5s0+97le/GDJkcFXV6HXr0z2deve9DxoaG5Mkqa6qLC0t+fjjXWftlU/k7o0332pvby8sLJw75/SHHn48s8MbU125Ib2xc/Inn3j8kgce7ujo+NrJJ+5Z1xtv5TJ406eRcVlZWeYj+Ow3JJcxe117lovu80K6ynMJkyZOyPzS4eIly5565rmSkkHXXP3TLO/fezk5jjD4gAOOO2bW8y++Uj5s6IxpRyZJ8t776zo6OvKZf18nD4QnY4D9yN//8cLqtTXTjjy864t1ddse/tvyc86aPWf2aaNHj3r77f8MH15+2JenVFdXHv/V2cVfKn56+bJVa2o2bKjdtavphOOPSZKkaffu2tpNZWWDezqVJMmata8dNXNaaWnJYw8tbm5pObBi5D5Pu27rtgcfevT8b501YfzYxx+5r+a1N8vLh44cPvzUM79dV7ftkUefOHvuGTNnTF225O7t2+uPPmp6kiTp2k3dao2evPPOe5mDe+9asL2+/okVzyy4/e4sN6SlpbXXMXtd+2deNM+FdJX977TXJbz/wbrMvy5+8uMfTZt6+LFHz8zeAOy9nMeWP5nLCG1tbTf//rq1Na9PmjihtLQkSZJ771ua5/z7OnkgPE9jgP3LrQvu2PvFG+bfcudfFu/86KNZM6Z+7zvnnnbKyWVDhzz1zHPNLS0tLa3r1qdnTj/y7LlnfP+7544bW70hXfuzn/96d3NzllNJkiz664OZx76OGFHe2tLym9/elM+0f3fTH2/78z07duwsHzb0xBOOPfwrh27bXp85df38WxYuemBXU9PkSROOOXpGkiT/euHliy+5oul/nwvRk+dffGXh4qVbt20vLh5QOXpU2dAh2W9ILmP2uvbPvGieC+kmnyWsW5++8ZbbWlpaqipHnX/e3Jde/veLL63M8v69l5PjCFvqtt76pzunHnHY8PJhbW1tCxcvXfHks3nOv6+TB8KrqKgoOGLmSbm8der0WZmDNate+RxnBHxBiooKx1RXDRw4sKGxcevW7V0frVBaWjJyxPCBAwfWNzTU1W3r+lNZTiVJMurAipKSQZ2PpspTYWHhmOrKQYMG1dc3dD4mIiOVSo0fV51KpWo3bu6vL/HKckNysW9r79+F5LOE0tKSqsrRW7dua2j8cN+unuMIJSWDxo6p2ry5rvHDHd1O7fP885888MXqx23nEVOqbXYBAPg/0o/bzvIDEhkDAAAxVVRU2OwCABBTcXGxzS4AADF5GgMAAGHJGAAACEvGAABAWDIGAADCkjEAABCWjAEAgLBkDAAAhCVjAAAgLBkDAABhyRgAAAhLxgAAQFgyBgAAwpIxAAAQlowBAICwZAwAAIQlYwAAICwZAwAAYckYAAAIS8YAAEBYMgYAAMKSMQAAEJaMAQCAsGQMAACEJWMAACAsGQMAAGHJGAAACEvGAABAWDIGAADCkjEAABCWjAEAgLBkDAAAhCVjAAAgLBkDAABhyRgAAAhLxgAAQFgyBgAAwpIxAAAQlowBAICwZAwAAIQlYwAAICwZAwAAYckYAAAIS8YAAEBYMgYAAMKSMQAAEJaMAQCAsGQMAACEJWMAACAsGQMAAGHJGAAACEvGAABAWDIGAADCkjEAABCWjAEAgLBkDAAAhCVjAAAgLBkDAABhyRgAAAhLxgAAQFgyBgAAwpIxAAAQlowBAICwZAwAAIQlYwAAICwZAwAAYckYAAAIS8YAAEBYMgYAAMKSMQAAEJaMAQCAsGQMAACEJWMAACAsGQMAAGHJGAAACEvGAABAWDIGAADCkjEAABCWjAEAgLBkDAAAhCVjAAAgLBkDAABhyRgAAAhLxgAAQFgyBgAAwpIxAAAQlowBAICwZAwAAIQlYwAAICwZAwAAYckYAAAIS8YAAEBYMgYAAMKSMQAAEJaMAQCAsGQMAACEJWMAACAsGQMAAGHJGAAACEvGAABAWDIGAADCkjEAABCWjAEAgLBkDAAAhCVjAAAgLBkDAABhyRgAAAhLxgAAQFgyBgAAwpIxAAAQlowBAICwZAwAAIQlYwAAICwZAwAAYckYAAAIS8YAAEBYMgYAAMKSMQAAEJaMAQCAsGQMAACEJWMAACAsGQMAAGHJGAAACEvGAABAWDIGAADCkjEAABCWjAEAgLBkDAAAhCVjAAAgLBkDAABhyRgAAAhLxgAAQFgyBgAAwpIxAAAQlowBAICwZAwAAIQlYwAAICwZAwAAYckYAAAIS8YAAEBYMgYAAMKSMQAAEJaMAQCAsGQMAACEJWMAACAsGQMAAGHJGAAACEvGAABAWDIGAADCkjEAABCWjAEAgLBkDAAAhCVjAAAgLBkDAABhyRgAAAhLxgAAQFgyBgAAwpIxAAAQlowBAICwZAwAAIQlYwAAICwZAwAAYckYAAAIS8YAAEBYMgYAAMKSMQAAEJaMAQCAsGQMAACEJWMAACAsGQMAAGHJGAAACEvGAABAWDIGAADCkjEAABCWjAEAgLBkDAAAhCVjAAAgLBkDAABhyRgAAAhLxgAAQFgyBgAAwpIxAAAQlowBAICwZAwAAIQlYwAAICwZAwAAYckYAAAIS8YAAEBYMgYAAMKSMQAAEJaMAQCAsGQMAACEJWMAACAsGQMAAGHJGAAACEvGAABAWDIGAADCkjEAABCWjAEAgLBkDAAAhCVjAAAgLBkDAABhyRgAAAhLxgAAQFgyBgAAwpIxAAAQlowBAICwZAwAAIQlYwAAICwZAwAAYckYAAAIS8YAAEBYMgYAAMKSMQAAEJaMAQCAsGQMAACEJWMAACAsGQMAAGHJGAAACEvGAABAWDIGAADCkjEAABCWjAEAgLBkDAAAhCVjAAAgLBkDAABhyRgAAAhLxgAAQFgyBgAAwpIxAAAQlowBAICwZAwAAIQlYwAAICwZAwAAYfUhY2hvb88cFBQUfG7zAQBgv9a51ezcfOajDxnD7t1NmYORFaPsdwEA6HcFBQUjK0Zljjs3n/moqKhI5fjWxob6kpLSJEkqq6orq6rzvzYAAPSksaE+/0H6kDHUbdm8c+eO/C8JAADZ7dy5o27L5vzHSafTRQdWjs/x3Q3129vb2otSqaKilJIBAID+1d7e3tS0a+uWLekN6/plwHHVOWcMGXV1m+vq+mGXDQAAnzdfKgEAQFi+VAIAgLB8qQQAAGHJGAAACEvGAABAWDIGAADCkjEAABCWjAEAgLBkDAAAhCVjAAAgrHQ6/V8XLPiCzNF8uAAAAABJRU5ErkJggg==;" parent="1" vertex="1">
          <mxGeometry x="30" y="50" width="349.02" height="270" as="geometry" />
        </mxCell>
        <mxCell id="TVynHAeKMUivycCZFWxq-8" style="edgeStyle=orthogonalEdgeStyle;rounded=0;orthogonalLoop=1;jettySize=auto;html=1;exitX=0.5;exitY=1;exitDx=0;exitDy=0;endArrow=classic;endFill=1;startArrow=classic;startFill=1;strokeWidth=2;" parent="1" source="TVynHAeKMUivycCZFWxq-2" target="TVynHAeKMUivycCZFWxq-3" edge="1">
          <mxGeometry relative="1" as="geometry" />
        </mxCell>
        <mxCell id="TVynHAeKMUivycCZFWxq-2" value="" style="shape=image;verticalLabelPosition=bottom;labelBackgroundColor=default;verticalAlign=top;aspect=fixed;imageAspect=0;image=data:image/png,iVBORw0KGgoAAAANSUhEUgAAA6MAAALMCAIAAACe0fNwAAAAA3NCSVQICAjb4U/gAAAAGXRFWHRTb2Z0d2FyZQBnbm9tZS1zY3JlZW5zaG907wO/PgAAIABJREFUeJzs3Xd4VFX+x/Fvkklvk0wSEiCSBFIogYA0gaV3FFEQdFcXFVd/CihVV4oidkURUWwIiLsqbRdEuqAgRCCYBAhVpQXSSG9kYjL5/THuOEwyYRImlOP79eyzz9xzzz3n3Mvw8PHOuec6RLbqaKisEAAAAEAVjk4aVzcPR2IuAAAAFGOorNCXlTpe72EAAAAA9meorCDpAgAAQE0kXQAAAKiJpAsAAAA1kXQBAACgJpIuAAAA1ETSBQAAgJpIugAAAFATSRcAAABqIukCAABATSRdAAAAqImkCwAAADWRdAEAAKAmki4AAADURNIFAACAmki6AAAAUBNJFwAAAGoi6QIAAEBNJF0AAACoiaQLAAAANZF0AQAAoCaSLgAAANRE0gUAAICaSLoAAABQE0kXAAAAaiLpAgAAQE0kXQAAAKiJpAsAAAA1kXQBAACgJpIuAAAA1ETSBQAAgJo0177LO24fNnLUXabNkyd/fuWV16/9MOyo9jNS73xt5+LiotP5+/r6uru7l5aWXryYnZube70HVRutVjtgQL/Y2DaBAQHu7u7i8Hv5ggXvJSUlX9ehAQCAOrM16c6Y8UznTp1Mm6WlpQ/8/aHKyspaDnnpxRfatGlt2szLy3t43KNVVVUBgQEtY2JM5eX68jqO+YZT+xmpd75X5OenveuuEV06d2rdupWzs7P5rvz8/AMHftrx3c7vv99Z+/fn2uvTp9esWTO8PD2r7/Lx9r724wEAAFfJ1qR74EDincPvMC/p1q3rDz/ssVZfp9P169fH0fGP2RG7dv1QVVVVv1HiZuHs7PzE44/dffddbm6uNVbQarX9+/fr379fZlbWffc9UFJSco1HaE1oaOiLc+dY5HIAAHBTszXp7ty5s7ikxPx215DBg2pJuoMGDTCPuSKyYeOm+g0RN4tGjRq9/vrL5jewa6scFOTq6nrjJN2777rTIuYeO3487UKawVAlIplZWddpXAAAoP5sTbp6ffn27TvMb+v26NHd08OjpLS0xvpDBg8y3/z111MnTpw0fk5MTPrwo09MuzIzMus25JvNn+R8PT09313wdlhYs+q7SkpKc3NzXVyctVqtq2vN93qvu5YtLwvoGzdtfuGFl67XYAAAgF3U4Ym0jRs2mSddV1fXvn37rP9mQ/Wa4WFhUVGR5iUbNvxxQ/fgwUMHDx6q+1BvVn+S853z/GyLmFtVVbVly7Yvv1px/PgJY4mTk1N0dFSfPr2H3zFMq9Vej2Fa5X35TFzTmAEAwM2rDkk3+eChCxcuNGnSxFQyeMigGpPukCGX3dCtrKzcvGWraTM6OqpVq5amzZzsnF0/7K7eSEhIcM+ef4mKjAwKCnT3cC/XlxcUFBYUFly4kHbq11MpR44WFBSYKnfq1LFp0z8Gdu7suZ8Sk8xbCw8Li2vfzrRZVFT07bc7LHoMDAxo0aJFixbNmzRp7OPt7e3t7eHhUabXFxUWnj595uChw/v3JxgMBiuXx6razzcoKKh799tsbGrduvUGg6Eehxg/N9AJikhcXLuePXuYlxgMhrlzX960eYt5YWVl5dGjx44ePbZkybKHH37Q2hNpkS1adO7cKSYm2s9P6+bmVlRUlJmVdejg4T3xP5r/oZuzdpFbtGg+ZMigiPBwT0/PnJzchAMHNmzYqDd7KDA8PDwurq2I+Pr6mjcY26ZNefnv1fRl+o2bNlv0GBbWrGuXLq1axfj5+bm7uxcUFl44fyHhwIH4+L3WzsvaINu0bj1o0IDQ0Kbe3t4/7t23ePGSBuroildD6vWFNH5uuG8XAAD1VrdVxjZu3PyPf4wzbXZoHxcUGJh18aJFtYEDB5hv7tu3Pycnx7TZrdtt//fYP0ybBw8eski6zs7O06ZOHj78douZvhaefmbGzp27jJ/vHH7HgAH9TLs2bNhokXTj2rf75zPTTZtnz56zSLpdunR+d8Hb1vrq00dE5OLF7LfffmfHd9/XMqrqaj/fiIhw84HVbsOGTeXl5fU4RBryBEVk7N/vtyhZ/vm/LGKuuUuXLr3//gfVyyMiwqdOndzx1g7Vd9014s6ysrL//GftBx9+bMqgJtUv8t59+yc9NfHuu0c4ODiYyvv27f3A/X+bNHnq2bPnjCUdb+0wbdrk6t0NGNDP9I3Kyck1T7qhoU2nTH6qW7ca4uCYMfdcSEtbsOA90zez9kH+uHff9OlTzH8qyTFbhc2OHdl4NaReX0hp4G8XAAD1Vrc3R2zcuNl8/QRHR8dBgwZY1GnfPi4kJNi8pK7Pos2ePWPEiOG1x1wRcXGx+ph8PdZ4ME8A1gQGBrz66kt33D6szq3fABruBF1cXG69PJuWlJR+9tnndRufSM+/9Fi65JMaY66Rm5vbX/9676effmRx/7XGIb3x+isjR95V/awbNw55a94brq4udR2eUZfOnT5btqTG9GnUpHHjN15/5cGxD9jS2j+fmW6xpInD/5bwtWNHDXc1TJT/6wMAuEnVLemmpacnJx80Lxk0aKBFncGXlxQXF+/aVcPkBGtCQ0MHXX5LOCMjIyHhQHz8j0eOHC227VH9q1nOrLKy8ty5cz/9lLh7956EhAPp6RkWFaZNm3zFpHUjs/sJxrZpbfGcWXz8j6Wll+o0qsjIFi++OMfNzc2ivKKiwqIkKjLy9dderv0/hFq2jLnttq7W9oaGNh06dEidhmcUHh7+6qsve3p6mEoMBsMvv/yakHAgJ+eyN2I8/vhj/fr1rb21li1jbr99qEWhMTHavaOGuBo1Uv6vDwDg5lLnd6Rt2LCpffs402ZkZIvmzSN+/fWUcdPZ2blv397m9bd9u736b821aNu2jfnmJ4uXVJ+22KVL54ED+tcSZ6ukzknXYDB8//3O9d9sTEg4oNfrzXd1vLXD62+8alphzc3NbdiwIV988VVdu6jRyZM/z5r9fPXy1q1b3XfvGPOSxMSk3377rX6HSEOeYPDlt/BF5OixYzYeazJ50pPmMbeysnLRog/XrltfXFzcrNktU6ZM6tqls2lv+/ZxgwcNrD531sKuXbtXrlqdn5/fr1/fhx78u/muPr17/fe/60Rk7759xos5ceL4RkFBpgrr12/Yt3+/8bO+TP+/QU40T5/nz194dsaskyd/FhEnJ6dJT00cPXqU+Rn98MPuWr78Li4uIlJRUbFr1+4TJ05onJ0jwsMqKw1278j2qyE33rcLAICrUeeku33HjmnTJpuHksGDB5nmXHbv3s3Hx8e8vvmqC7bwvPwNVUeOHLWocObM2TNnzq5YsaqWu3pVhjon3f37E/bvT6hx14GfEv/733UP3P9XU0lcXDt7/VOdm5u7bdt2i8KoqMhnnp5mXnI4JWXK1KeN4b4eh0hDnqDW13IVhbzcPBuPNWrePMJi/sOnny7917+/NH4+e/bctGnPfPnF56GhTU0Vxoy5p/aku3v3nulP/9P4+eeff/H387vzzj/mCbRo0cL4ITX1fGrqeRF5+KGxYpZ0T5w4aXGRw8PCupilbRGZOes5Y/oUkcrKyvnvvNux060R4eHGksDAgH59+9QyWVlECgsLJz452WKdh4boyMarITfetwsAgKtR56RbWnpp585d5pMWBg0asGjRh8Z/84YMvmzqQmrq+cOHU+rUvsWPs3Oen7Vx4+YTJ0+mpp4/c+as+YsGanmO+2pmL/j4+ERFRTZp0tjL08vNzdXB0VFEwsPDzOuEBFvexbSj8LCwhe/ON1/06sSJk5MmTbt0yep8gDodYvcTdHSy/E+Oyjo+Yt+5cyfzzcrKylWr15iX/Pbbb//977onnxxvKomOjvLx8SksLLTW5ieX/xSQlJRsnu18fX2qHXEFXbtelj5Pnz5jkVANBkNSYrIpgIpI5y6dag+gCxcuqr6cWUN0dDVX4/p+uwAAuBp1TroismHDJvOk2ygoqEP7uJ8Sk7y8vCweoLni78vVHTjwU1mZ3vQuWa1W+9e/3mvam5mZmZx88Lvvd+7atdvaEksiYqiqz2JGHW/t8PDDD8bFtXNycqq9psXaq3bUtGmT9957x3yt2VOnTk18cnJxcfHVH9JAJ1iQb7nyV11zZFizyxbiPX/+QmFhkUWdI0eOmG86ODjcEhqacnmhSWFhoUU6tMjEGo3G0dGxTotehYWFXb7ZLH7PTos6Fr8zWJyXhd9++8189b2G6+hqrsZ1/3YBAHA16vZEmtH+hANZWZetLDZ4yCAR6d+/r3HqoVFVVdWmuifdgoKC995bZG1vo0aNBg0a+NqrL//rX8vMF9C9ois+G37PPSPfe2/Brbd2uOK/0yJiS516CA5u9P57CwICAkwl586ljp8wydoisnU6pOFOMDsn26IkOirK9sOlWjLOz8+vXievWqGv1uqDTRmZli+iq/5kmy3LBVzW3eWDdHBwcKrGos1aRigi586l1ji51u4d1ftq3AjfLgAArkZ97ulWVVVt3rzl72ZLqPbt0/vNN98efPkbgBMTk6o/eW2LVavXnEtNffihse3atbUWRyLCw1979eUH/v5QjRMVHB0sE7xOp6ulx9DQ0ElPTTTvq6qqKiXlSFpaWpleLyJhzZq1a9e2zmdSFwEBuvffezfY7Ifd9PSM8ROeys3NvfpDGvQEDx1KqaysNI8v3bp1dXJyquWmu4XffrsseNWYhDQay++q6XGo6i5VW/nBcBUTWozKrXdnjbPG6kJ4IlJiZSERu3dUv6txg3y7AAC4GvVJuiKyYeMm86Tr5eV1z6iRcZf/Y1bXZXTN7du3f9++/f7+fm3btg0PD7vlltDQ0KbRUVHm94wjI1u0btXK+Pu1Rd6tvlhV48YhtXQ3aNAA8yBVXFLyxBMTT5w4aSoZPXpUg/5TrdVq33/vXfO71BcvZj8x/smsrCy7HNKgJ1hcXHzkyNG2bWNNJTqdbsSI4WvW/NfGFizCU0hIDX9Y1Qvr+tzbVbLo7vjxEwvefa/2Q2pfD8HabHK7d1QPN863CwCAq1HPpHvmzNmjR4+Zv3H08ccfNb+pU1ZWtmPH91c5uNzcvO+/3/n9979PUvTy8vrgg4VRkZGmCuHhYcaka/FwTHBwI/NNb2/v3r161tJRs1tuMd+M3/Oj+b/TIhITXbef4+vE29t74cL5YWF/TLXMzc0bP+HJtLQ0ex3S0Cf41VcrzZOuiDw5cfyJEydTUmqeRysiw4YN2bnzB+N0zyNHL1uVTKfzj4xs8fPPv5gX3ta1i/lmaWnpqdOnr2bMdWUxJ/iWW0IPHTpcfRrATdSRNTfatwsAgHqrzzxdI4vlw5ydL/v9dMd339eyVkAtAgMDrK1yX1xc/PP/1loyctL8/jO3xa2mNm1ax8b+vi6vk5PT5MlPenh4iHVOl68eYDFRMiIifMCA/rYNv848PTzeXfC2eXwvKCic+OQk8xe0Xv0hDX2C23d8d+z4cfMSNze3999794EH/ubh4W5e7u7uPmTwoGXLFj83e6bpDv2+ffstFmF96qmJ5nMYWrRofscdl71b68cf99o+O8Iu9u3bX1b2xyA9PDwmTnjCWuVOnTq+//67Fv/FdaN1VKMb8NsFAEC91fOerohs3bZt0qSJFgHXpK7L6JrodLp35s/LzMzcvTs++eChM2fO5Ofl68vL/fy0Pbp3G3j569POn79g/GCxlplGo3lv4Ts7vvu+7FJZp04dzddhrdG5c6nmm126dP7HP8Zt2rS5rKysS5fOEyc8YT5rwr4mPjne/Na4iJSWlk6dMslK5ckVFRX1OOQanOCMZ2cvWfKxn5+fqcTNzXXC+Mcfe/SR4ydO5OTkOmucAwMDmjePqD4Nt6CgYM1/1v71vj9eTNCp463Lli3+5puNeXn5kS2ajxx5t/lr2KqqqpYuXX6VA66rwsKilatW//2Bv5lK7r139C23hK5avSY19XxxcbGvr294eFhsmzZ9+/YxvhC7rg+9XeOOanRjfrsAAKif+ifdwsKi3bv39OnTu/quzMzMn35KrP+gRBo1ajRy5F0jR95VS520tPSkpGTj54QDP2VmZjZq9MedLTc3t6FDBpuNttDilRbmtmzZNnbsA+YrNz0y7qFHxj1k2szLyzPPcHbk5ellURISEhxS7a1jRsYR1uOQa3CCaenpU6Y+Pe/N1ywe/nN2do5t08baUSYfffTJrR3aR5v9zB0VGTll8lM1Vl70wUc///JLjbsa1OLFn3ZoH9emTWtTSbdut1msrHdzdVTdjfntAgCgfuo/e0GsP3O2cdOWq3l3gy2Ki4tnPzfH9Pu1wWB47fU3rf2cvWfPjxYr51s4febMp0uWWdublJS8ZOlnVzHY6+/anODRo8fuf+ChvXv32VK5vLzcfO5pWVnZpMlTExOTaj+qsrJy0aKPli//11UNtL70+vLJU6bt3r1HmY7sQvm/PgCAm9dVJd34+L15eTU8/77xKlZdyMzM/PKrFYcOHbaYuGlSXFKyfv2G+x940OJpp/j4vdOfftZiXbPCwsL33v9g2vRnalmRymjx4iWvvfamxelcunTpX//+YuKTk694+I3v2pxgbm7uU5OmPjzu0a1bv61xWVwR+eWXXz/+ePGdI0ZavL8gNzdv/ISn5r748snLZ2MblZeXb9++46GH//HZ8s/tMtT6KSwsmjrtmWf+OTMxManG/7KqrKw8fvzE8s///eBDj9Rvlb1r3JFdKP/XBwBwk3JoHh13vcdQMycnp2bNbvHTarVarbePt6HSUFxcnHr+/KlTp2t5FMnR0bFVq5a33HKLk6NjekZGcvLBOj207uzsHBvbpknjxoYqw8WL2QcPHrIWuG9S1/gEw8PDQ0Ia+fr4urm7lZaWZl/M/uXXU7W8CMPEz08bExPjp9W6uroWFRdlZV08duz4jRaY3N3dW7aM0en8vTy9KioqikuK09LSz549V1ZWdpN2dJWU/+sDALjp3LhJFwAAALgaVzV7AQAAALhhkXQBAACgJpIuAAAA1ETSBQAAgJpIugAAAFATSRcAAABqIukCAABATSRdAAAAqImkCwAAADWRdAEAAKAmki4AAADURNIFAACAmki6AAAAUBNJFwAAAGoi6QIAAEBNJF0AAACoiaQLAAAANZF0AQAAoCaSLgAAANRE0gUAAICaSLoAAABQE0kXAAAAaiLpAgAAQE0kXQAAAKiJpAsAAAA1kXQBAACgJpIuAAAA1ETSBQAAgJpIugAAAFATSRcAAABqIukCAABAQY5OGkdHJ831HgYAAABgT45OGlc3D427h9f1HgkAAABgf8xeAAAAgJpIugAAAFATSRcAAABqIukCAABATSRdAAAAqImkCwAAADWRdAEAAKAmki4AAADUZOsL0uI6dGrQcQAAAAD1kJyYYG1XHV4FvGfnNnsMBgAAALCP7r0G1LKX2QsAAABQE0kXAAAAaiLpAgAAQE0kXQAAAKiJpAsAAAA1kXQBAACgpjqsMmYLdx/dpaJcqaqysf7w4bfrdLqqqqrKysqSkpIL5y8kJR8sLy+35Vg/P62bm1tJSUlhYZG1kvpZtnSxVqudP3/Bzl0/VN8EAADATcHOSTegWWttcPjJ+LX6kgJb6t9zz8ioyEjzkvz8/Hlvzd+2bfsVj501a0aP7t1WrV4zb958ayX1ExQUpNP5u3u4Gze1Wq1O5+/q6no1bQIAAOAas3PSFRGfwNC4oY+eSth08UyKjYccPpzy9fpvGoeE3H77sMDAgBfnziktKd0T/6OpQkhIcEhIyMWL2ampqcYSf38/VxcXEXF3cw8KDKw0GKqqDBYlOTk5jo6OTZs28ffz02g0aekZaWlp5v16e3tHRISnpaVlZ+cEBgSISG5eXkVFhcXwxj3ymJOjY0FhYX0vCQAAAK4D+yddEdE4u0Z1G6ENaX4qYVNlxZWnIly4kPb119+IyL/+/eUXXyxvFBT06KOPGJNuZGSL2bNmREdHGWsmJibNmDk7Ly///fcWREREiMjttw+9/fahBQUFOTk5FiUDBw1b8unHLVvGmDpKTEyaNHmaXq8Xkd69e815fpa7u7vBYFixctV9944RkXHjHks5csRieJ8vX6rT+T8/Z+7mzVvtcn0AAABwDTRI0jUKCo/1CQw9Gb+2KPu8jYcUFxdv3rRl7NgHYmKi3dzcHBwcFrzztk7nv+7r9du3fzd69Kge3bs9N3vm5CnT//PfdWNG3xMa2vTYseN79+67dKms9FKpRYmIJBz4adXqNZmZWb4+PuPH/1+HDu3vu2/MsmXLPT09Zzz7tLu7e2Ji0o7vvh9x5/CGuw4AAAC4Lhow6YqIm5e2Tb/7D25ZUpqfZeMhhf+bJODm5ta+fTudzr+ioiIh4YCnh0dyUnKP7t26dbvN19d31ao1Xbt2CQ1tmnLkyIcffWI8pHrJkiXLevbs0bZtrKenR1FRsYgYb/HGxbXz9fUVkWdnzM7Pzz927Piniz+y77kDAADg+mrYpFtWnH8yfq3tMVdEWrVqKSLFJSUFBQU6f52IaDSal158wbxOYGBAQcGVn3jTarWfLVscHBycn5+fkZEZGBgoIj7e3iLi7+cnInq9Pj8/X0SyMuswQgAAANwUGjDpZp0+bOM8XSNHR8eRI+/q27ePiGz/dkdVVVVmVqaIlJeXjxx1r3FyrYi4ubldvHhRRCorK0XEydHJ1IJFyW1duxhj7h3D7y4vL39hznODBw807rqQliYirq6uERHhp06djo1tY48zBgAAwA2kQZJuxW/6Oq290OMv3desXhEUFOji4iIiP//8y8L3FonIvn0JaWnpjRuHPPfczI0bN3u4u7dqFRMdHf23+8eKSHpauoj069fX3d395M8/f/HFVxYl51PPi4iXl9eY0aOcXVz69+9r6jE5+eCpU6ciIiI+WLQw5cjRuHZt7X0NAAAAcJ3Z/x1phRdTkzd+bHvMFREvT8/GjUPKysqOHT/+wQcfjXvksaKiIhEpLy8fP+Gp3bv3dLy1w/PPzZw+fUqvXj0PHTpsPOrLr1YkJx90c3MdMmRQl86dqpfs3hO/Y8f3Go1mwoQnevX8y7ff7jD1aDAYnn5mZlLyQU9Pz6ZNmsx/511jeflvtt6BBgAAwA3OoW3H3rbUi+vQac/ObVesVtd3pNnIxcUlOLhRaWlpbm6ewWCo07EBATpXV9cLF9Isyps0aZyRkWmc8DB69KipUyaVl5cPGjystPSS3cYNAACAhtS914DkxARre+08e+FSYY59GzQqLy8/dy61fsdmZ9c8pJF33zVkyOBTp097e3kZ1+tdvHgpMRcAAEAZDbv2wo1s9574oKCg4JBGJSUl69dvWPf1+sOH6zDjAgAAADe4P2/STUxMSkxMut6jAAAAQEOx/xNpAAAAwI2ApAsAAAA1kXQBAACgJltXGSspym/gkQAAAAB15umttbbL1ifSuvcaYKfBAAAAAHZjn/V0bXlzBAAAAHDN1H43lnm6AAAAUBNJFwAAAGoi6QIAAEBNJF0AAACoiaQLAAAANZF0AQAAoKY6rDJmC3cf3aWiXKmqsv0QBweH7t27dezYwdfXt7CgMDEp+YcfdhsMBvsOrHbLli7WarXz5y/YuesHe7Xp56d1c3MrKSkpLCy6cUYFAADw52HnpBvQrLU2OPxk/Fp9SYEt9b29vd+a93q7dm1NJffeO/ro0WOTp0zPz792b2XTarU6nb+rq6sd25w1a0aP7t1WrV4zb978G2dUAAAAfx52Troi4hMYGjf00VMJmy6eSbli5Weffbpdu7bl5eXvvvt+YlJS29jYSZOebNWq5ayZ/5w2/Z8iotPpnBwdCwoLnZwco6Ojz5w5k5eX7+3tHRERnpaWlp2dExgQICK5eXkVFRUi4ujo2LRpE38/P41Gk5aekZaWZurL1JSDg0NMTHRW1kXT3nGPPGbc5ezs7Ke97IVyhipDdnaOtXJr3fn7+7m6uIiIu5t7UGBgpcGQk5MjIg4ODiHBwUFBgRmZmRkZmdXHZn6aplHV548BAADgT8/+SVdENM6uUd1GaEOan0rYVFlRbq1aYGBA3z69ReSLL79atXqNiPz66yk/f7/HHn3kL3/p0bhx47S0tM+XL9Xp/FetXjNo4AAfH585c168VFY25/lZ7u7uBoNhxcpV9907RkTGjXss5cgREVny6cctW8aYukhMTJo0eZperxcRY1Pr1q3v3bunr6+viCz+dOknn3xq2vX8nLlZWRc/WLTQfJDFxcX9+g+OjW1TY7m17t5/b0FERISI3H770NtvH1pQUDBw0LDo6KhZs56Niow0Vk5JOfLSS6+ePnPGNADz09y0eYtpVJs3b72KPw0AAIA/qQZJukZB4bE+gaEn49cWZZ+vsUJ0dLSDg4OIJOw/YCrcvy/hsUcfEZGY6CjTLdJ7Ro388ce9GZmZl8rKZjz7tLu7e2Ji0o7vvh9x53CLNhMO/LRq9ZrMzCxfH5/x4/+vQ4f29903Ztmy5aYKQ4cOXrFyVVhYWI/u3R4c+8CKFSvN59FmpGcsXfqZiDg4OowaNdLL0zMtLb2Wcmvd/ee/68aMvic0tOmxY8f37t136VKZh4f7gnfe8vPzS0g4sO3b7XfcMSy2TZv58+eNuude491o89PMu4YzNwAAAFTVgElXRNy8tG363X9wy5LS/Kzqe00zUItLSkyFxSXFFntFZNOmLXNeeFFEunfvZrwd++yM2fn5+ceOHf908UfmbS5Zsqxnzx5t28Z6enoUFRWLiPk9VxFZuXL1woWLAgMDvlm/VqPRNG7cuLDwhGlvWnr6hx99IiIzZ/7Ty9Pz/PkLk6dMq6XcWnerVq3p2rVLaGjTlCNHjAf27dPbz8+vqqpq5qznCwoKkpKSV638MiQkOC6u3YEDP1mcJgAAAK5ewybdsuL8k/Fra4y5InLx4kXjh6ZNmxw//nvcbNKkicVeEUlMSjJ+8PfzExG9Xm98Xi0r87KWtVrtZ8sWBwcH5+cYX2y2AAAgAElEQVTnZ2RkBgYGioiPt7d5nV9+PSUiJf/L1jU+7zV92pThd9yekZHxxPgns7NzrJXb0p2Jv7+/iJSWXiooKBCR9PQM83KL0wQAAMDVa8D1dLNOH07e+LG1qQsicvTosdzcPBEZfc8oFxcXEdFoNH/9670iUlBQeDjljwfayst/n+x7IS1NRFxdXSMiwkUkNraNeYO3de1izJ13DL977IPjEhIOSDUGQ6VIbcugPTlx/KhRd2dnZ4+f8FRmZmYt5bV3V1lZKSJOjk6/X42sLBHx9PQIDAwQkbBmzczLLU4TAAAAV69B7ulW/Ka3Ze2FioqKdxa8O/eF59u1a/vFv5cfPXo0JiamWbNbRGThwvf1+hpiX3LywVOnTkVERHywaGHKkaNxZsuTyf/u1Hp5eY0ZPcrZxaV//751HXn//n3/9rf7ROTChbSHHxorImVl+jfefKvG8r1799XSXXpauoj069fX3d395M8/r1nzn8zMzEaNGs178/Wdu34YOKC/iJw+febQocN1HSQAAABsYf97uoUXU5M3fmzLEmMismXLtunT/3nq9OnQ0KaDBg1s1uyWc+dSZ8yYvf6bDTXWNxgMTz8zMyn5oKenZ9MmTea/866xvPy3chHZvSd+x47vNRrNhAlP9Or5l2+/3VHXwftp/Ywf2rVrO2zY0GHDhg4aNMBaee3dffnViuTkg25urkOGDOrSuZNeXz5+wqSEhAMxMdGPPfpIWFiz3XviJ02eeo3fkQEAAPDn4dC2Y29b6sV16LRn57YrVqvHO9KM/P39fH21hYWFxnVna9GkSeOMjEzj3IDRo0dNnTKpvLx80OBhpaWXjBUCAnSurq4XLqTV2ozd1LU7Nze3wMDArKws49pnAAAAqLfuvQYkJyZY22vn2QuXCq+QU63Jzc0zztm9opF33zVkyOBTp097e3lFR0eJyOLFS00xV0TMnyG7BuraXVlZWWpqagMNBgAAACYNu/ZCQ9i9Jz4oKCg4pFFJScn69RvWfb3+8GGbZkoAAADgT+XmS7qJiUmJiazGBQAAgCtowFXGAAAAgOuIpAsAAAA1kXQBAACgJltXGSspym/gkQAAAAB15umttbbL1ifSuvcaYKfBAAAAAHZjn/V0bXlzBAAAAHDN1H43lnm6AAAAUBNJFwAAAGoi6QIAAEBNJF0AAACoiaQLAAAANZF0AQAAoKY6rDJmC3cf3aWiXKmqqtNRbdvGdut2W1BgQHFxycmff96x47vS0kt2Gc+ypYu1Wu38+Qt27vrBz0/r5uZWUlJSWFh0xQNrrGzeml2GBwAAgIZj56Qb0Ky1Njj8ZPxafUmBLfVdXV3mvvB87969zAt79+o5bfo/7TIerVar0/m7urqKyKxZM3p077Zq9Zp58+Zf8cAaK5u3BgAAgBucnZOuiPgEhsYNffRUwqaLZ1KuWHnqlMm9e/eqqqpauXL15i1bq6qqWrVqeUtoqKmCg4NDSHBwUFBgRmZmRkamsVCn0zk5OhYUFrq6ujRv3vzMmTN5efkiEhMTbTAYfvnlV4PBYKw57pHHjDX9/f1cXVxExN3NPSgwsNJgyMnJERFHR8emTZv4+/lpNJq09Iy0tDQRsVbZ1Jp9rxgAAAAagkPbjr1tqRfXoZMt70gLje15S2xP4+es04dPJWyqrCi3VtnPT7txw9eOjo7r12946eVXq1eIjo6aNevZqMhI42ZKypGXXnr19JkzW7ds8PX13bBxU+9evTw9PfR6/XPPz713zD3t28eJSHLywSfGP1lZWSkiGzd8rdP5Pz9n7ti/3x8REWFquaCgYOCgYSKybOnili1jTOWJiUmTJk9btvSTGiubWtu8eesVLwUAAAAaWvdeA2p5G3ADPpEWFB4bN/RR74Cm1iq0atnS0dFRRLZ9u736Xg8P9wXvvBUVGZmQcOCVV18/nJLSpk3r+fPnaTS/34fu26f3ihUrT5782dXV9bVXX9JoNEuXLa+srIyLa9e7V0+L1v7z33WpqedF5Nix40uXfvbvf39lLE848NPcF18eP+GpGTNmX7hwoUOH9vfdN8ZaZQAAANxEGnbtBTcvbZt+93tog2re6+Zm/FBUVMMjYl27dPHz86uqqpo56/l169bPnfuyiISEBMfFtTNW+GrFqo8+Xrx6zX9ExMHB4Z/Pzvzww49PnDgpIrc0u8WitVWr1pw9d05EUo4c+fCjTz5b/rmxfMmSZRUVFW3bxrZq3bKoqFhEWraMsVYZAAAANxH7z9M1V1acfzJ+bWl+Vo17MzN/L28eEXH06DGLvf7+/iJSWnqpoKBARNLTM8zLReTcuVQRKS0tNf5/dnaOiJSXl4uIcZbtFWm12s+WLQ4ODs7Pz8/IyAwMDBQRH2/vOp0jAAAAbkwNeE836/Th5I0fF2Wft1bh2PHjGRkZIjJ27AOm/Oro6NiqVUsRycrKEhFPT4/AwAARCWvW7Pdms37PxwZDpakp0yNoDg4O1rozztx1cnQyldzWtYsx5t4x/O6xD45LSDhQS2UAAADcXBrknm7Fb3pb1l6orKx89bU335r3emho0xVf/eunnxINVVWtWrb89dSpqVOf3rd/f2ZmZqNGjea9+frOXT8MHNBfRE6fPnPo0OH6jSo9LV1E+vXr6+7ufvLnn7/44quSkhIR8fLyGjN6lLOLS//+fWupXL9OAQAAcL3Y/55u4cXU5I0f27LEmIjs3bvv8ScmHjx4yNvbu0+f3v369nF3d9u/P0FE9Pry8RMmJSQciImJfuzRR8LCmu3eEz9p8lTT7du6+vKrFcnJB93cXIcMGdSlcycR2b0nfseO7zUazYQJT/Tq+Zdvv91RS2UAAADcXOy8ylj93pEmIl5eXgEBupKSkuzsnKrLD3dzcwsMDMzKytLr9XVt1hYBATpXV9cLF9IaonEAAAA0nNpXGbPz7IVLhTn1O7C4uLi4uLjGXWVlZampqVcxqCswPsoGAAAAxTTsKmMAAADA9ULSBQAAgJpIugAAAFATSRcAAABqIukCAABATbauMlZSlN/AIwEAAADqzNNba22XrauMde81wE6DAQAAAOzGPuvp2vLmCAAAAOCaqf1uLPN0AQAAoCaSLgAAANRE0gUAAICaSLoAAABQE0kXAAAAaiLpAgAAQE11WGXMFu4+uktFuVJVZfshsbFtev6lhy5AV1JScuF8WlJy8okTJ+07KvtatnSxVqudP3/Bzl0/3BR9XcsBAwAA3DjsnHQDmrXWBoefjF+rLymwpf6YMfdMmfyUeUlKypFxjzxm31HZl1ar1en8XV1db5a+ruWAAQAAbhx2Troi4hMYGjf00VMJmy6eSbli5YcfGisiyz//9zffbPD09IyKigwNbWrcpdPpnBwdCwoLnZwco6Ojs7OzU1PPmx/r4OAQEhwcFBSYkZmZkZFpKjcd6ODgEBMTnZV1MS0tzbQ3OLhRcHCwwWDIyMjMysqyvTXjMM6cOTPukceMJc7Ozn7ay94+Z6gyZGfnWCsXEUdHx6ZNm/j7+Wk0mrT0DOPAaqlv6utqTtmiEQAAgD8J+yddEdE4u0Z1G6ENaX4qYVNlRbm1ak5OTj4+PiJy9uzZs2fPicjRo8dMez9fvlSn81+/fkPv3j29vb1FZOXK1W+9/Y5xb3R01KxZz0ZFRho3U1KOvPTSq6fPnDEduG7d+t69e/r6+orI4k+XfvLJp05OTq+88mLvXj1NXaz7ev0rr7xuS2urVq8ZNHCAj4/PnDkvTpw4Xqfzf37O3Kysix8sWmh+RsXFxf36D46NbVNjuYgs+fTjli1jTOWJiUmTJk9r3bqVtfrG3p+fM3fz5q31OGXzK2lsxNqfBQAAgHoaJOkaBYXH+gSGnoxfW5R9vsYKlZWVBw8eat8+bvasGRPGP37k6LEf4/eu/+Ybvf6PcNy3b59lny0PCgq8Z9TI0aNH7dz1w4EDP3l4uC945y0/P7+EhAPbvt1+xx3DYtu0mT9/3qh77q2oqDAeOHTo4BUrV4WFhfXo3u3BsQ+sWLEyIiKid6+e586lvvX2OxqNpkWL5lWGKhGxpbV7Ro388ce9GZmZefn5prFlpGcsXfqZiDg4OowaNdLL0zMtLb2WchFJOPDTqtVrMjOzfH18xo//vw4d2t9335itW7ZZq29Sv1MuLCy6yj9EAACAm1fDrr3g5qVt0+9+D22QtQozZj63Zeu2sjK9n59fj+7dpk+fsmzpYldXF1OFlStXLV/+r3nz5qekHBGRPr17iUjXLl38/Pyqqqpmznp+3br1c+e+LCIhIcFxce3MDly9cOGi1157Q0Q0Gk3jxo0rKytFxF/n3759Ox9v7+3bv/ts+ec2trZp05ZJk6e99tqbe/fuMxWmpad/+NEnH370ib+/v5en5/nzFyZPmVZLuYgsWbKsoqKibdvYVq1bFhUVi0jLljG11Dep3ynX6Q8LAABAMQ14T1dEyorzT8avLc3PslYhNzf3uedecHV1adWq1cCB/e++a0RERESXzp13/bDbWOHChd/nm6alpbdp0zogQCci/v7+IlJaeqmgoEBE0tMzjHWM5Ua//HpKREpKSoybrq6uBw8eWrV6zV0j7nxw7N+NhWvXfv3qa2/Y0lpiUpK1U5g+bcrwO27PyMh4YvyTxsm11sq1Wu1nyxYHBwfn5+dnZGQGBgaKiI+3d+3tmA+mrqdsbcwAAAB/Bg14Tzfr9OHkjR9bm7pgNHBAf41Go9eXJyUlv/32AuMP8c7OzqYK4eFhxg9hYc1EJDMzS0SMT5J5enoEBgaISFizZr/3aPaEmcFQKWK53Nm8efP79B344EOPLFr0kYiMGDHc09PTltbKy2uebfzkxPGjRt2dnZ09fsJTmZmZtZff1rWLMebeMfzusQ+OS0g4cMV2TOp9ygAAAH9aDXJPt+I3vY1rL8yZM3vq1EnHj5/Izs5p1SpGo9Ho9frDKUdMFUaPHuXk5BQUFBQVFSkiW7ZuE5F9+/dnZmY2atRo3puv79z1w8AB/UXk9Okzhw4drqWvmJjoxx9/bN++/dnZOR6e7iJSXl6u1+vr15qI9O/f929/u09ELlxIMy4iUVamf+PNt6yVG++2enl5jRk9ytnFpX//vrW3Y95XvQcJAADwp2X/pFt4MdX29XQ3b9na7bauXbt2MW6mp2fMn7/A/D7l6jX/6dO7V3BwcEVFxSeLlxw5clRE9Pry8RMmPfP01E6dOsbERFdVVe3eE//mm28ZDIZa+tKX6ZtHRHTt0tm4mZeX986ChRUVFRUVUo/WRMRP62f80K5d23bt2opIcXHxG2++Za189574HTu+79u394QJTxw/fuLbb3cMHjywlnYuG3y9ThkAAODPzKFtx9621Ivr0GnPzm1XrFaPd6SJiFar1Wp9CwsLc3PzTIUbN3xtXBtr69ZvmzZtkp+fX30lATc3t8DAwKysLL1eX6e+Ll0qy87ONj6jdjWt1UNAgM7V1dU0/7iurs0gAQAAbgrdew1ITkywttfO93QvFVo+SmWL/Pz8fLPVuywYDIZz51Jr3FVWVpaaWvOuevRVj9bqofrTZnVybQYJAACggIZde+Fq7N+f4O3jnZV18XoPBAAAADelGzfpznnhxes9BAAAANzEGvbNEQAAAMD1QtIFAACAmki6AAAAUJOtq4yVFFldGwEAAAC4Xjy9tdZ22fpEWvdeA+w0GAAAAMBu7LOeri1vjgAAAACumdrvxjJPFwAAAGoi6QIAAEBNJF0AAACoiaQLAAAANZF0AQAAoCaSLgAAANRUh1XGbOHuo7tUlCtVVbYfEhvbpudfeugCdCUlJRfOpyUlJ584cdK+o1q2dLFWq50/f8HOXT9crxYAAABwjdk56QY0a60NDj8Zv1ZfUmBL/TFj7pky+SnzkpSUI+Meecy+o9JqtTqdv6ur63VsAQAAANeYnZOuiPgEhsYNffRUwqaLZ1KuWPnhh8aKyPLP//3NNxs8PT2joiJDQ5uaVwgJCQ4JCbl4MTs1NdW8PDi4UXBwsMFgyMjIzMrKqr183COPOTk6FhQWGjcdHBxCgoODggIzMjMzMjJNx+p0OmM1BweHmJjorKyLaWlpNbYAAACAG5/9k66IaJxdo7qN0IY0P5WwqbKi3Fo1JycnHx8fETl79uzZs+dE5OjRY6a9kZEtZs+aER0dZdxMTEyaMXN2Xl6+k5PTK6+82LtXT1PNdV+vf+WV162Vi8jny5fqdP7Pz5m7efPW6OioWbOejYqMNNZJSTny0kuvnj5zxlRt3br1vXv39PX1FZHFny795JNPLVqw11UCAABAg2qQpGsUFB7rExh6Mn5tUfb5GitUVlYePHioffu42bNmTBj/+JGjx36M37v+m2/0+nJ3d/cF77yt0/mv+3r99u3fjR49qkf3bs/Nnjl5yvTY2Da9e/U8dy71rbff0Wg0LVo0rzJUiYi1cnMeHu4L3nnLz88vIeHAtm+333HHsNg2bebPnzfqnnsrKiqMdYYOHbxi5aqwsLAe3bs9OPaBFStWFhYWNdxVAgAAQANp2LUX3Ly0bfrd76ENslZhxszntmzdVlam9/Pz69G92/TpU5YtXezq6tK1a2edzr+ioiIh4YCnh0dyUrKIdOt2m6+vb2VlpYj46/zbt2/n4+29fft3ny3/XESslZvr2qWLn59fVVXVzFnPr1u3fu7cl0UkJCQ4Lq6dqc7KlasXLlz02mtviIhGo2ncuLH9rwsAAAAaXgPe0xWRsuL8k/FrS/OzrFXIzc197rkXXF1dWrVqNXBg/7vvGhEREdGlc2edv05ENBrNSy++YF4/MDDg8OGUVavX3DXizgfH/t1YuHbt16++9oa1cvPD/f39RaS09FJBQYGIpKdnmJcb/fLrKREpKSkxbvIUGgAAwE2qAe/pZp0+nLzxY2tTF4wGDuiv0Wj0+vKkpOS3315gnELg7OycmZUpIuXl5XcMv3vgoGHG/w2/c+SpU6dFZN68+X36DnzwoUcWLfpIREaMGO7p6VlL+R9DysoSEU9Pj8DAABEJa9bMvNzIYKgUqdM6aQAAALgRNcg93Yrf9DauvTBnzuypUycdP34iOzunVasYjUaj1+sPpxzJz89PS0tv3Djkuedmbty42cPdvVWrmOjo6L/dPzYmJvrxxx/bt29/dnaOh6e7iJSXl+v1emvl5t3t278/MzOzUaNG8958feeuHwYO6C8ip0+fOXTocENcBwAAAFxH9k+6hRdTbV9Pd/OWrd1u69q1axfjZnp6xvz5C4x3WMdPeGrqlKe6d+/WqeOtIlJcXLx167cioi/TN4+I6Nqls/GQvLy8dxYsrKiosFZu3p1eXz5+wqRnnp7aqVPHmJjoqqqq3Xvi33zzLYPBYKezBwAAwI3CoW3H3rbUi+vQac/ObVesVo93pImIVqvVan0LCwtzc/Msdrm4uAQHNyotLc3NzTPPo8ZDLl0qy87ONj6LVnu5BTc3t8DAwKysLIubvgAAALiJdO81IDkxwdpeO9/TvVSYU4+j8vPz8/Pza9xVXl5+7lxq9XJrh9TSlLmysjKLV1EAAABAMQ27yhgAAABwvZB0AQAAoCaSLgAAANRE0gUAAICaSLoAAABQUx3WXujea0DDjQMAAACwL1uTbi0LlQEAAAA3IGYvAAAAQE0kXQAAAKiJpAsAAAA1kXQBAACgJpIuAAAA1ETSBQAAgJpIugAAAFATSRcAAABqIukCAABATSRdAAAAqImkCwAAADWRdAEAAKAmki4AAADURNIFAACAmki6AAAAUBNJFwAAAGoi6QIAAEBNJF0AAACoiaQLAAAANZF0AQAAoCaSLgAAANRE0gUAAICaSLoAAABQE0kXAAAAaiLpAgAAQE0kXQAAAKiJpAsAAAA1kXQBAACgJpIuAAAA1ETSBQAAgJpIugAAAFATSRcAAABqIukCAABATSRdAAAAqImkCwAAADWRdAEAAKAmki4AAADURNIFAACAmki6AAAAUBNJFwAAAGoi6QIAAEBNJF0AAACoiaQLAAAANZF0AQAAoCaSLgAAANRE0gUAAICaSLoAAABQE0kXAAAAaiLpAgAAQE0kXQAAAKiJpAsAAAA1kXQBAACgJpIuAAAA1ETSBQAAgJpIugAAAFATSRcAAABqIukCAABATSRdAAAAqImkCwAAADWRdAEAAKAmki4AAADURNIFAACAmki6AAAAUBNJFwAAAGoi6QIAAEBNJF0AAACoiaQLAAAANZF0AQAAoCaSLgAAANRE0gUAAICaSLoAAABQE0kXAAAAaiLpAgAAQE0kXQAAAKiJpAsAAAA1kXQBAACgJpIuAAAA1ETSBQAAgJpIugAAAFATSRcAAABqIukCAABATSRdAAAAqImkCwAAADWRdAEAAKAmki4AAADURNIFAACAmki6AAAAUBNJFwAAAGoi6QIAAEBNJF0AAACoiaQLAAAANZF0AQAAoCaSLgAAANRE0gUAAICaSLoAAABQE0kXAAAAaiLpAgAAQE0kXQAAAKiJpAsAAAA1kXQBAACgJpIuAAAA1ETSBQAAgJpIugAAAFATSRcAAABqIukCAABATSRdAAAAqImkCwAAADWRdAEAAKAmki4AAADURNIFAACAmki6AAAAUBNJFwAAAGoi6QIAAEBNJF0AAACoiaQLAAAANZF0AQAAoCaSLgAAANRE0gUAAICaSLoAAABQE0kXAAAAaiLpAgAAQE0kXQAAAKiJpAsAAAA1kXQBAACgJpIuAAAA1ETSBQAAgJpIugAAAFATSRcAAABqIukCAABATSRdAAAAqImkCwAAADWRdAEAAKAmki4AAADURNIFAACAmki6AAAAUBNJFwAAAGoi6QIAAEBNJF0AAACoiaQLAAAANZF0AQAAoCaSLgAAANRE0gUAAICaSLoAAABQE0kXAAAAaiLpAgAAQE0kXQAAAKiJpAsAAAA1kXQBAACgJpIuAAAA1ETSBQAAgJpIugAAAFATSRcAAABqIukCAABATSRdAAAAqImkCwAAADWRdAEAAKAmki4AAADURNIFAACAmki6AAAAUBNJFwAAAGoi6QIAAEBNJF0AAACoiaQLAAAANZF0AQAAoCaSLgAAANRE0gUAAICaSLoAAABQE0kXAAAAaiLpAgAAQE0kXQAAAKiJpAsAAAA1kXQBAACgJpIuAAAA1ETSBQAAgJpIugAAAFATSRcAAABqIukCAABATSRdAAAAqImkCwAAADWRdAEAAKAmki4AAADURNIFAACAmki6AAAAUBNJFwAAAGoi6QIAAEBNJF0AAACoiaQLAAAANZF0AQAAoCaSLgAAANRE0gUAAICaSLoAAABQE0kXAAAAaiLpAgAAQE0kXQAAAKiJpAsAAAA1kXQBAACgJpIuAAAA1ETSBQAAgJpIugAAAFATSRcAAABqIukCAABATSRdAAAAqImkCwAAADWRdAEAAKAmki4AAADURNIFAACAmki6AAAAUBNJFwAAAGoi6QIAAEBNJF0AAACoiaQLAAAANZF0AQAAoCaSLgAAANRE0gUAAICaSLoAAABQE0kXAAAAaiLpAgAAQE0kXQAAAKiJpAsAAAA1kXQBAACgJpIuAAAA1ETSBQAAgJpIugAAAFATSRcAAABqIukCAABATSRdAAAAqImkCwAAADWRdAEAAKAmki4AAADURNIFAACAmki6AAAAUBNJFwAAAGoi6QIAAEBNJF0AAACoiaQLAAAANZF0AQAAoCaSLgAAANRE0gUAAICaSLoAAABQE0kXAAAAaiLpAgAAQE0kXQAAAKiJpAsAAAA1kXQBAACgJpIuAAAA1ETSBQAAgJpIugAAAFATSRcAAABqIukCAABATSRdAAAAqImkCwAAADWRdAEAAKAmki4AAADURNIFAACAmki6AAAAUBNJFwAAAGoi6QIAAEBNJF0AAACoiaQLAAAANZF0AQAAoCaSLgAAANRE0gUAAICaSLoAAABQE0kXAAAAaiLpAgAAQE0kXQAAAKiJpAsAAAA1kXQBAACgJpIuAAAA1ETSBQAAgJpIugAAAFATSRcAAABqIukCAABATSRdAAAAqImkCwAAADWRdAEAAKAmki4AAADURNIFAACAmki6AAAAUBNJFwAAAGoi6QIAAEBNJF0AAACoiaQLAAAANZF0AQAAoCaSLgAAANRE0gUAAICaSLoAAABQE0kXAAAAaiLpAgAAQE0kXQAAAKiJpAsAAAA1kXQBAACgJpIuAAAA1ETSBQAAgJpIugAAAFATSRcAAABqIukCAABATSRdAAAAqImkCwAAADWRdAEAAKAmki4AAADURNIFAACAmki6AAAAUBNJFwAAAGoi6QIAAEBNJF0AAACoiaQLAAAANZF0AQAAoCaSLgAAANRE0gUAAICaSLoAAABQE0kXAAAAaiLpAgAAQE0kXQAAAKiJpAsAAAA1kXQBAACgJpIuAAAA1ETSBQAAgJpIugAAAFATSRcAAABqIukCAABATSRdAAAAqImkCwAAADWRdAEAAKAmki4AAADURNIFAACAmki6AAAAUBNJFwAAAGoi6QIAAEBNJF0AAACoiaQLAAAANZF0AQAAoCaSLgAAANRE0gUAAICaSLoAAABQE0kXAAAAaiLpAgAAQE0kXQAAAKiJpAsAAAA1kXQBAACgJpIuAAAA1ETSBQAAgJpIugAAAFATSRcAAABqIukCAABATSRdAAAAqImkCwAAADWRdAEAAKAmki4AAADURNIFAACAmki6AAAAUBNJFwAAAGoi6QIAAEBNJF38f3t3Ehv3VQdw/I3H+5p4iRMnTk3ibCVN0r1sJahSw6UgESQOKSfggIAb4sCZE2dASBwKoohLixCU0qqooaC2JCJpopA2qbO4tePYSex43+3hMInltrFxmzgOv3w+p9F/3v/Nm9Ecvhq9/38AAGJSugAAxKR0AQCISekCABCT0gUAICalCwBATEoYfhkAAAfYSURBVEoXAICYlC4AADEpXQAAYlK6AADEpHQBAIhJ6QIAEJPSBQAgJqULAEBMShcAgJiULgAAMSldAABiUroAAMSkdAEAiEnpAgAQk9IFACAmpQsAQExKFwCAmJQuAAAxKV0AAGJSugAAxKR0AQCISekCABCT0gUAICalCwBATEoXAICYlC4AADEpXQAAYlK6AADEpHQBAIhJ6QIAEJPSBQAgJqULAEBMShcAgJiULgAAMSldAABiUroAAMSkdAEAiEnpAgAQk9IFACAmpQsAQExKFwCAmJQuAAAxKV0AAGJSugAAxKR0AQCISekCABCT0gUAICalCwBATEoXAICYlC4AADEpXQAAYlK6AADEpHQBAIhJ6QIAEJPSBQAgJqULAEBMShcAgJiULgAAMSldAABiUroAAMSkdAEAiEnpAgAQk9IFACAmpQsAQExKFwCAmJQuAAAxKV0AAGJSugAAxKR0AQCISekCABCT0gUAICalCwBATEoXAICYlC4AADEpXQAAYlK6AADEpHQBAIhJ6QIAEJPSBQAgJqULAEBMShcAgJiULgAAMSldAABiUroAAMSkdAEAiEnpAgAQk9IFACAmpQsAQExKFwCAmJQuAAAxKV0AAGJSugAAxKR0AQCIqXClFwAARJbJFKzd9mht8/ai0oqVXguhTI2P9HWc6j59KJebXWhMtrGp5TYuCQC4u6zb8VjjlgezhcUrvRCiyRYWV9Y1ZQoKhq90LjTG7gUAYBnVbti20ksgssW/YEoXAFhGRaWVK70EIlv8C6Z0AQCISekCABCT0gUAICalCwBATO6nCwBwm5QWF+7esjal1NEz0HVlKKW0/Z76msrSicnpY23dK726gJQuAMBS7d977wPb1qWUfv784XyqfizVFSXfeGJnSumvb7blT9/7wKe2Ntf1DY4tpXS3NNdtba5LKb165NzYxPTHXv3dR+kCACxVcVG2rKQopVRQkLklE3ZeGkgpDY1MLGXwpqbVTzy0KaX0xokOpbsUShcA4JNrWFVeUlw4MzN7sXe4qb6qqb6qb3DsXNfVuQFFhQXbN9YXFxee7ez76OmHTnYea+uemfnA/9muWV2xoaE6my24dHXkve7+uYPVFSX5x+vqKyvKiqamZ3v6hucvYMOa6qa6qrbO3qtD4/OnKswWXBkYbe/un53NLcuncKdSugAAn9z+L316a3Pd1aGxd9ovf/a+jfmDJ872PPOXt1JK9TXl3/3aw6urylJK0zOzr73VfsPT+wbHfvLr11JK5aVFB57ctaOlYW5Ax6WBZ154q394/MC+Xc1ravIHv/3Ugyml7t6hn/7u9bkZ/nOu5/E9LSml3750/OrQxY9O1Tc49uzLx9sv9i/XZ3Hnce8FAICbtbqq7P6t6/59qqt/aDyldN/mxs3ra1NK+/fem8/c42e6D7/d+cX7Wxaf5+l9u3a0NExNz7x86MzzB0/2D483r6n51lMPZFJq6+jt6RvOD3un/fLxM92n3++dt4DSx/e0XLg8+H7PQC6XSyl9c9/ufOYefffiwaPnxyena6vLvvOVByvLipflI7gj+U0XAOAW+NWfjrRf7N+8vvZ7+x9JKTXVV/UNjm67pz6ldPxM929ePJZSutw/+tUvbF9ohjWrK7bf05BSOnj0/MuHzqSUxiamn/7y7vUN1Zs31L7w+rtT07P7Hm1NKT138O2rQ2Pzz81kMs8dPPnGiY65qfIvffTdi8++dDyldOHy4NP7dpeVFD28Y/3Bo+eX5zO44yhdAICbNTo+ld8VMBeg5aVFDasq8o/PXbi2bffshRts1Z2ztrYy/+DJR1qffKT1Q0+dudE23zmT0zNvXs/c+VOdv75jeO5BY23F/34/UShdAICbNT557U4IuXlXfM3MXrvOLHv9Rg3ZRe/YMHv95HMX+noHP/CT7ZWB0cUXMDw6Of9as7mp5r30tT2rd9VFaUoXAGBZ9PSNzOZyBZnMzk1rXjvWnsul3a1rFxnfcWkgl8tlMpnewbHfv3Ji7vi2jfX5H4Mnp2byRyrKij60e2GhqXZuavznsfdyKe1qbbz+1ODNvrH/H0oXAGBZDI9NHj3V9dCO9ZvW1/7owOfHJqaaG2sWGT8wPPGvk52f2dn88I71q6tKu64MVZWXbGysqasp//Ev/zY9Mzv3XxU/+PqjQ6OTR093vfhm20JTHTrZ+djO5tYNtT888LmhkYktzXUppd6B0SOnum75O71jufcCAMBy+eM/TrV19KaUGmsrV1WWPffqycXHP//3t185fHZsYqp1Q93je1ru37quvLToWFv39MxsSun0+1cOHjk/ODJemC2orS4rLy1afKpXj5ybmJpeV1e1dWN9SunUe5d/8YfDk9Mzt+793ekyux7au9JrAADC2vPU91d6CSuvtrqspCib38ywlPEFmUz9qvKiwuzI2OTAyPjSTrqxbEGmYVVFNpvpGxyL+rdqx/78s4WesnsBAGB59Q0utqf2o2ZzuUtXR27JS8/M5rqv34X3LmT3AgAAMSldAABiUroAAMSkdAEAiEnpAgDLaGr87r0cittg8S+Y0gUAllFf5+mVXgKRLf4FyzY2tdyulQAAd52R3q5MpqCkoiZbWLzSayGUqfGRK+dPdJ8+lNKCNxz2zxEAAMRk9wIAADEpXQAAYlK6AADEpHQBAIjpv97VkzoeFLiZAAAAAElFTkSuQmCC;" parent="1" vertex="1">
          <mxGeometry x="449.02000000000004" y="50" width="351.07" height="270" as="geometry" />
        </mxCell>
        <mxCell id="TVynHAeKMUivycCZFWxq-9" style="edgeStyle=orthogonalEdgeStyle;rounded=0;orthogonalLoop=1;jettySize=auto;html=1;exitX=0;exitY=0.5;exitDx=0;exitDy=0;startArrow=classic;startFill=1;strokeWidth=2;" parent="1" source="TVynHAeKMUivycCZFWxq-3" target="TVynHAeKMUivycCZFWxq-4" edge="1">
          <mxGeometry relative="1" as="geometry" />
        </mxCell>
        <mxCell id="TVynHAeKMUivycCZFWxq-10" style="edgeStyle=orthogonalEdgeStyle;rounded=0;orthogonalLoop=1;jettySize=auto;html=1;exitX=0.25;exitY=1;exitDx=0;exitDy=0;startArrow=classic;startFill=1;strokeWidth=2;" parent="1" source="TVynHAeKMUivycCZFWxq-3" target="TVynHAeKMUivycCZFWxq-5" edge="1">
          <mxGeometry relative="1" as="geometry" />
        </mxCell>
        <mxCell id="TVynHAeKMUivycCZFWxq-3" value="" style="shape=image;verticalLabelPosition=bottom;labelBackgroundColor=default;verticalAlign=top;aspect=fixed;imageAspect=0;image=data:image/png,iVBORw0KGgoAAAANSUhEUgAAA6EAAALNCAIAAABRePDoAAAAA3NCSVQICAjb4U/gAAAAGXRFWHRTb2Z0d2FyZQBnbm9tZS1zY3JlZW5zaG907wO/PgAAIABJREFUeJzs3Xd4VeXhB/CXEEggjDBl7+1CpoITB1pH3dphl9rhBOfPvbVa66irVtyt1mqti2EddQAOMGwHKHvvFUgCSX5/XJteAwlZCLx8Po+Pzznvec877j1Jvpx7zrnVOnbtGQAAICIpO3oAAABQxWRcAABiI+MCABAbGRcAgNjIuAAAxEbGBQAgNjIuAACxkXEBAIiNjAsAQGxkXAAAYiPjAgAQGxkXAIDYyLgAAMRGxgUAIDYyLgAAsZFxAQCIjYwLAEBsZFwAAGIj4wIAEBsZFwCA2Mi4AADERsYFACA2Mi4AALGRcQEAiI2MCwBAbGRcAABiI+MCABAbGRcAgNjIuAAAxEbGBQAgNqk7pNfjjzv2lFNPKlqdPn3G7bffuUNGUlVKn1F88y2j3XbicfO2ArDzK0fGvfrqK/v17Vu0umHDhrN+9sv8/PxSdrn1lpv22mvPotVVq1b96uxfFxYWNm7SuHu3bkXlebl55Rnzzqj0GcU33zLabSceN28rADu/cmTc8eOzfnjC8cklAwbs/+GHY0qq36hRo8MPPywl5X+XQ3zwwYeFhYUVGCUAAJRdOa7Hff/999dnZyeXHHP04FLqDx58ZHLADSEMHzGyXIMDAIAKKMd53NzcvHfeeTf5VO6BBw7MqF07e8OGrdYvloC/+WbmV19NTyxnZU3486OPFW1asnhJOYa8C9rd5ltkt5143LytAOz8ynfP2YjhI5Mzblpa2qBBh73+xvAta7Zv165Ll87JJcOH/+8k7qRJkydNmlzOoe7Cdrf5FtltJx43bysAO7/yZdyJkyYvWLCgZcuWRSVHHzN4qxn3mGO+cxI3Pz9/1Jv/Llrt2rVLjx7di1ZXLF/xwYejt2ykefNmBx98UJfOnZs2bVKrdq283Lw1a9auWbtmwYKFM7+ZOXXa52vWrCmq3Ldvn1at/jewuXPmfpY1Ibm19u3a9dxv36LVdevWvf32u8V6bNKkcadOnTp16tiyZYt6devWrVu3du3aObm569aunTVr9qTJUz79dFxBQUEJL0+JSp9v06ZNBw48oIxNvfrq6wUFBRXYJbFc4QlWrMcyvtEhhM6dOvXr17dbt64NGmSmp6evW7duydKlkydNGTP2o+R3OVlJjXfq1PGYYwZ3aN8+IyNjxYqV48aPHz58RG6p90W1a9d2//79e/To1qBBg1q1aq1Zu3bB/AXjxo8fO/bj0u+qLF25DuAqGVLFeizvXrv52wrALqHczw4bMWLUueeeXbTaa7+eTZs0WbpsWbFqRx11ZPLqJ598umLFiqLVAQMO+O1vzi1anTRpcrG/kTVq1Ljs0qEnnHBcsSt6i7niyqvff/+DxPIPTzj+yCMPL9o0fPiIYhm35377/t+Vlxetzpkzt1jG7d+/35/uv6ekvg47LIQQli1bfs899737n/dKGdWWSp9vhw7tkwdWuuHDR+bl5VVgl1C5CVasx22+0YmWL710aJ/evbZs56QTf5iTk/Pyy6888ue/JBpMtmXjH3/y6ZCLLzz55BOrVatWVD5o0KFn/fQnQ4ZeOmfO3C27aN261SVDLx4wYCvx/YwzTluwcOH99z9YdIyVXQUO4EoOqWI9Vmyv3fZtBWAXUu7vgBgxYlTysxFSUlIGDz6yWJ399uvZvHmz5JLy3m123XVXn3jiCaX/3Q0h1KxZo6RNFXh+Q/Jf0JI0adL4jjtuPf64Y8vd+k5gJ5zgwQcd+OQTj201CSWkp6f/+MdnPv74o/Xr1y+9qZo1a9515+2nnHLSltNs0aL5H+++Ky2tZrHy/v36Pv3UE1tNQgktW7S4687bf/Hzs7Y1j+IqfABXeEgV67HyP2hbFevbCsAupNwZd+GiRRMnTkouGTz4qGJ1jv5uyfr16z/4YOsfZW5V69atB3/3NPDixYvHjRs/duxH06Z9XuzZDiWpzEPK8vPz586d+9lnWaNHjxk3bvyiRYuLVbjssqHb/Nu8M9tJJti5c6dbbrkxPT29WPnmzZuLlXTp3PnO399WehTr3r3bAQfsX9LW1q1b/eAHxySXtG/f/o47bsvIqF1UUlBQ8PXX34wbN37FipXJNX/3u98cfvig0ufy3b4qeABXeEgV67FKftC2FOvbCsCupSLfczZ8+Mj99utZtNq5c6eOHTt8883MxGqNGjUGDTo0uf5bb7+z5SeSpdhnn72SVx8b9sSwYU8kl7Rr17Z//35HHXlEKUG2MJQ74xYUFLz33vuvvzFi3Ljxubm5yZv69O5151131MnISKymp6cfe+wxzz339/J2sVXTp8+49robtizfc88ePzrzjOSSrKwJmzZtqtguoXITrFiPpRs65KLkJJSfn//ww39+5dXX169f37Ztm0suGbJ//35FW/fbr+fRg48aMXJU6W1+8MHof7z40urVqw8/fNAvf/Gz5E2HHXrIv/71alLvFyYnofnzF1x19bXTp88IIVSvXn3IxReefvqpyUP98MPRZTyMK3wAV3hIFeuxSn7QthTr2wrArqUiGfedd9+97LKhyX/Gjj568EMPPZJYHjhwQL169ZLrJz9RoSwy/pu0EqZN+7xYhdmz58yePeeFF14s5QxQYUG5M+6nn4779NNxW900/rOsf/3r1bN++uOikp49962qjLty5cq33nqnWGGXLp2vvOKy5JIpU6decukVibRRgV1C5SZYsR5L0bFjh97f/Sz78cef/Ovfnk8sz5kz97LLrnz+uWdbt25VVOGMM04rPQyNHj3m8iv+L7E8Y8bXDRs0+OEP//cYkE6dOhUtt2/Xrn9S0gohXHPt9YkkFELIz8+/974/9enbu0P79omSJk0aHz7osJGj3tzmvEJFD+DKDKliPVbJD1oxEb+tAOxaKpJxN2zY+P77HyRfojB48JEPP/znRLI55ujvXKgwb978KVOmlqv9Yh8p3njDtSNGjPpq+vR58+bPnj0nO+kj1FIecVCZaxXq1avXpUvnli1b1Mmok56eVi0lJYTQvn275DrNmzXb2q5Vo327dg/86d66desWlXz11fQhQy7buHFjlexSJROswCCT9evXN3k1Pz//xZf+mVyyadOmf/3r1YsuOr+opGvXLvXq1Vu7dm1JbT723dOQEyZMTA5D9ev/759e++//nSQ0a9bsL7/8KrmkoKBgQtbEojAUQujXv28Zw1DFDuDKDKliPVbJD1oxEb+tAOxaKpJxQwjDh49Mzrh7NG3aa7+en2VNqFOnTrFbPbb5KeSWxo//LCcnNz09LbGamZn54x+fWbR1yZIlEydO+s9773/wwehSHgBUUFjuJ3yFEPr07vWrX/2iZ899q1evXnrN5GxXtVq1avngg/dlZmYWlcycOfPCi4auX7++8rtU1QQrMMhi2rVtm7w6f/6CtWvXFaszbdq05NVq1aq1ad166ncLi6xdu7ZYoCkWm1JTU1NSUhJxrV27dt8ZTLu2Y8e8X6zBYicviw24FBU7gCszpIr1WCU/aMVE/LYCsGsp9z1nCZ+OG7906XeeF3b0MYNDCEccMahmzf/d5lxYWDiy/Bl3zZo1Dz74cElb99hjj8GDj/r9Hbf99a9PJT8Qd5u2+VSB00475cEH7+/du9c2818IoSx1KqBZsz0eevD+xo0bF5XMnTvv/AuGlPIg1bLvUlUTrMAgt5R8+i2EsHr16i3rrNqisH5miXfCLV5S/Nu2trzJqegYKNZ7tWrVqm+h2AFTStfFVOwArsyQKtbj9vhBi/htBWDXUsGMW1hYOOq7H/ANOuzQmjVrHv3d7+/Nypqw5T37ZfHiS/+86OJLJk6cVMolBx3at//9HbeVlFxTqhWfWqNGjUrpsXXr1kMuvjC5tcLCwilTpr755r9ffe31V197/Xv4YqfGjRs99OCfmiVdJLBo0eLzL7h45cqVld+lqiZYgUFu1aZN30kqW43UqanFP2co5W62jRuKXyNRUPLBk1e2u+KS1Ugtx/OzKnAAV3JIFfuRqfwPWjFxv60A7EIqeK1CCGH4iJE/+9lPi1br1Klz2qmn9Nx3n2J1Ktz+J598+sknnzZs2GCfffZp375dmzatW7du1bVLl+TzxJ07d9qzR4/Ep5zF/khv+eiiFi2al9Ld4MFHJv/pXZ+dfd55F3711fSiktNPP3Xf786uamVmZj704J+ST5gtW7b8vPMvWrp0aZXsUiUTrMAgS1IsEzdvvpV3Z8vCVStXlbejrSrWzpdffnX/nx4sfZfy3n1f3gO48kMqb4+V2ask0b+tAOwqKp5xZ8+e8/nnXyR/6+bvfvfr5JM9OTk57777XmUGF0JYuXLVe++9/957315UV6dOnUceeaBL585FFdq3b5f401vsVqdmzfZIXq1bt+6hhxxcSkdt27RJXh075qPk/BdC6Na1S0UmUDZ169Z94IF727X736WBK1euOv+CixYuXFhVu1R+ghUYZCmmff5F8mqjRg07d+40Y8bXyYUH7N8/eXXDhg0zZ82qQF9bKhbX2rRpPXnylC0/BK+8sh/AVTWksvdY+b22tJu8rQDs/Cp4rUJCsYeC1ajxnU/93v3Pe2W8xb6YJk0al/TU9/Xr18/475OAEqqnfvthaLFTiXvttefee3/7+M/q1asPHXpR7dq1Q8mqV//OS1Hswr4OHdofeeQRZRt+uWXUrv2n++9JzhNr1qy98KIhW/2S0grvUskJVqDH0n3yyafFntF78cUXJn+03alTx+OP/87XrX300cdlv/lpm73n5Pyv99q1a194wXklVe7bt89DD/2p2L+aSlGxA7gyQ6pYjxXbq3QRv60A7Foqfh43hPDvt94aMuTCYtG2SHkfi1ukUaNG991795IlS0aPHjtx0uTZs2evXrU6Ny+vQYPMAwcOOOq738w0f/6CxEKxJ5SlpqY++MB97/7nvZyNOX379kl+HudWzZ07L3m1f/9+55579siRo3Jycvr373fhBeclf3RbtS686Pzk0+EhhA0bNlx6yZASKg/dvHlzBXap5AQr0GMprYUQ1qxZ88+XX/nxj/73/RF9+/R+6qlhb7wxYtWq1Z07dTzllJPT0tKKthYWFj755DOlt1l2a9eu+8eLL/3srJ8UlZx55ult2rR+8aV/zps3f/369fXr12/fvt3ee+01aNBhiS+mLuMFqaGiB3BlhlSxHiu2V+kiflsB2LVUKuOuXbtu9Ogxhx126JablixZ8tlnWZVpfI899jjllJNOOeWkUuosXLhowoSJieVx4z9bsmTJHnv876xMenr6D445Omm0a4t9OUWyN9986+c/Pyv5uULnnP3Lc87+ZdHqqlWrGjRoUIGJbFOdjDrFSpo3b5b4A7ylxAgrsEslJ1iBHrfp0Ucf691rv65J10h06dz5kqEXb7Xyw488OuPrr7e6qWKGDXu8134999prz6KSAQMOKPbku8oo7wFc+SFVoMcK71WKuN9WAHYVlbpWIZR8V9mIkW9W5lsYymL9+vXXXX9j0aecBQUFv7/zDyV96DlmzEfFniRfzKzZsx9/4qmStk6YMPGJJ5+uxGB3vJ1wgjk5OUOGXpqVNaH0avn5+Q8//Ogzz/y1anvPzc0besllo0ePqdpmy67YAfw9DGnLHrfHXrv52wrATqKyGXfs2I9XrdrKPdEjKvFEhSVLljz/9xcmT55S7MK+Iuuzs19/ffhPz/rF1KnfucVk7NiPL7/iqmJPK1u7du2DDz1y2eVXlvJ8ooRhw574/e//UGw6Gzdu/OvfnrvwoqHb3H3ntxNOcOXKVedfcPHNt9w2/btXfybk5eW98867v/zVuU8/8+z26H3t2nWXXnbllf93TVbWhK1muPz8/C+//OqZZ//2i1+eU/an4FX4AK7wkCrWY2XGWboo31YAdi3VOnbtuaPHUKLq1au3bdumQWZmZmZm3Xp1C/IL1q9fP2/+/JkzZ5VyViklJaVHj+5t2rSpnpKyaPHiiRMnlevG6ho1auy9914tW7QoKCxYtmz5pEmTS0oAu6iddoINGmR269atQWZmWlrauvXrli5d9sUXX35vybtWrVrdu3dr1KhhnYw6mzdvXp+9fuHCRXPmzM3JyalwmxU7gCszpIr1WMlxli6+txWAXcJOnXEBAKACKnutAgAA7GxkXAAAYiPjAgAQGxkXAIDYyLgAAMRGxgUAIDYyLgAAsZFxAQCIjYwLAEBsZFwAAGIj4wIAEBsZFwCA2Mi4AADERsYFACA2Mi4AALGRcQEAiI2MCwBAbGRcAABiI+MCABAbGRcAgNjIuAAAxEbGBQAgNjIuAACxkXEBAIiNjAsAQGxkXAAAYiPjAgAQGxkXAIDYyLgAAMRGxgUAIDYpKdVTd/QYAACgKqWkpdcWcwEAiElqSkpKrdp1dvQwAACgyrgeFwCA2Mi4AADERsYFACA2Mi4AALGRcQEAiI2MCwBAbGRcAABiI+MCABCbcnzDWc9efbffOAAAoJImZo1LLJTvW3zHvP/WdhgMAABU1sBDjixadq0CAACxkXEBAIiNjAsAQGxkXAAAYiPjAgAQGxkXAIDYlO/ZYWVRq16jjetWhsLCMtY/4YTjGjVqVFhYmJ+fn52dvWD+ggkTJ+Xl5ZVl3wYNMtPT07Ozs9euXVdSScU89eSwzMzMe++9//0PPtxyFQCAnVnVZ9zGbffMbNZ++thXcrPXlKX+aaed0qVz5+SS1atX3/3He996651t7nvttVcfOHDAiy/98+677y2ppGKaNm3aqFHDWrVrJVYzMzMbNWqYlpZWmTYBAPh+VH3GDSHUa9K65w9+PXPcyGWzp5ZxlylTpr72+hstmjc/7rhjmzRpfMvNN27I3jBm7EdFFZo3b9a8efNly5bPmzcvUdKwYYO0mjVDCLXSazVt0iS/oKCwsKBYyYoVK1JSUlq1atmwQYPU1NSFixYvXLgwud+6det26NB+4cKFy5evaNK4cQhh5apVmzdvLja8s8/5TfWUlDVr11b0JQEA4PuzXTJuCCG1RlqXASdmNu84c9zI/M3bvvBgwYKFr732Rgjhr397/rnnntmjadNf//qcRMbt3LnTddde3bVrl0TNrKwJV19z3apVqx968P4OHTqEEI477gfHHfeDNWvWrFixoljJUYOPfeLxv3Tv3q2oo6ysCUOGXpabmxtCOPTQQ2684dpatWoVFBS88I8Xf3TmGSGEs8/+zdRp04oN79lnnmzUqOENN948atS/q+T1AQBg+9leGTehafu96zVpPX3sK+uWzy/jLuvXrx818s2f//ysbt26pqenV6tW7f777mnUqOGrr73+zjv/Of30Uw8cOOD6664ZesnlL//r1TNOP61161ZffPHlxx9/snFjzoaNG4qVhBDGjf/sxZf+uWTJ0vr16p1//m979drvRz8646mnnsnIyLj6qitq1aqVlTXh3f+8d+IPT9ierwQAAN+f7ZtxQwjpdTL3Ovynk958YsPqpWXcZe1/LwlIT0/fb799GzVquHnz5nHjxmfUrj1xwsQDBw4YMOCA+vXrv/jiP/ffv3/r1q2mTpv250cfS+yyZckTTzx18MEH7rPP3hkZtdetWx9CSJzW7dlz3/r164cQrrr6utWrV3/xxZePD3u0aucOAMAOsd0zbs761dPHvlL2gBtC6NGjewhhfXb2mjVrGjVsFEJITU299Zabkus0adJ4zZpt39OWmZn59FPDmjVrtnr16sWLlzRp0iSEUK9u3RBCwwYNQgi5ubmrV68OISxdUo4RAgCwM9u+GXfprCllvB43ISUl5ZRTTho06LAQwjtvv1tYWLhk6ZIQQl5e3imnnpm4iDaEkJ6evmzZshBCfn5+CKF6SvWiFoqVHLB//0TAPf6Ek/Py8m668fqjjz4qsWnBwoUhhLS0tA4d2s+cOWvvvfeqihkDALDjba+Mu3lTbrmeq3DgQQP/+dILTZs2qVmzZghhxoyvH3jw4RDCJ5+MW7hwUYsWza+//poRI0bVrlWrR49uXbt2/clPfx5CWLRwUQjh8MMH1apVa/qMGc899/diJfPnzQ8h1KlT54zTT61Rs+YRRwwq6nHixEkzZ87s0KHDIw8/MHXa5z333aeqXwMAAHaM7fI9Z2uXzZs44i9lD7ghhDoZGS1aNM/Jyfniyy8feeTRs8/5zbp160IIeXl5519w8ejRY/r07nXD9ddcfvklhxxy8OTJUxJ7Pf/3FyZOnJSennbMMYP79+u7ZcnoMWPfffe91NTUCy4475CDD3r77XeLeiwoKLjiymsmTJyUkZHRqmXLe+/7U6I8b1NZzzoDALBzqrZPn0PLWLVnr75j3n9rm9XK+z1nZVSzZs1mzfbYsGHDypWrCgoKyrVv48aN0tLSFixYWKy8ZcsWixcvSVzecPrpp156yZC8vLzBRx+7YcPGKhs3AADfi4GHHDkxa1xiueqvVdi4dkWVtxlCyMvLmzt3XsX2Xb5860M65eSTjjnm6JmzZtWtUyfx/N1hw54UcAEAdnXb/bkKO7PRY8Y2bdq0WfM9srOzX399+KuvvT5lSjmurwAAYOe0W2fcrKwJWVkTdvQoAACoYtvlnjMAANiBZFwAAGIj4wIAEJtyPDsse93q7TkSAAColIy6mYmFctxzNvCQI7fPYAAAoApU8Pm4ZfkOCAAA+P4ln5B1PS4AALGRcQEAiI2MCwBAbGRcAABiI+MCABAbGRcAgNiU79lh28MJJxzXqFGjxHJOTs6iRYs/+ujj3NzcHTsqAAB2XTs+45522ildOndOLlmxYsXFQy6dMePrHTUkAAB2adX3aNGujFWbNW85b87MKh/BySef2KhRo88+y7r7j/dmTZiwz957NWjQoGPHDq+/MTyE0KhRo7p16mzOz09Lq7nXXnvl5ubk5ORUq1atRfPmHTt2CNXC+vXZya3VrVu3e/duBQX5GzdubNqkSUZGRm5eXkFBwVbbSUlJad26Vft27Vq1ahmqVVu3bl2ikaLKGRm1e/TokagcQujWrWvDhg1XrVpdWFhYrpoldQQAQFVp067j4kULE8tVeR638/4/bNph761uWjpzyoyPXy1l32XLlo8ZMzaE0KlTx9NOPaVz506J8mefebJRo4YvvvTPwUcdWa9evRtvvGXmrFnXXntV0anfqVOn3XrrHbNmzw4hHHroITfecG2tWrUKCgpe+MeLPzrzjBDC2Wf/Zuq0aVu2M3LUm088/pfu3bsVjSEra8KQoZfl5uY+/9wz9evXHz5i5KGHHJKRUTs3N/f6G24+84zT9tuvZwhh4sRJ551/UX5+fgihjDVL6qjCLzUAAKWoynvOvhk/auP6VVuWb1y/6pvxo0rfNzW1ep06ddq1a9und+8QwuIlS5K3nnbqKdOmff6vV17dsHHj/ff9sUvnzuPGjb/9jjunTJ2611573nvv3ampqRkZGVdfdUWtWrWysibcc+/9ffv02bKXonZWrV4dQhg3/rObb7nt/Asuvvrq6xYsWNCr134/+tEZRZUHHXboCy/8Y/r0GWlpab+/49bU1NQnn3omPz+/Z899Dz3k4ORmt1mz9I4AAKhaVXket2Bz7oyxr+51xFkpKdX/V1iQP2PsqwWbt3HO8ogjDj/iiMOLVh9//MnkrSNHvnnjTbeEEAYddmiDBg0KCwuvufaGNWvWTJgw8cV/PN+8ebOePfdNS0urX79+COGqq69bvXr1F198+fiwR4v1UtROwhNPPHXwwQfus8/eGRm1161bH0JIPtv69xdefPQvwxYvWXL1VVdWq1bt/666ZvnyFf379e3Ro3ubtm2Sm91mzdI7AgCgalXxPWfrls+fP3V0m30OKSqZP3X0uuXzt7nj8uXLv/76m5zc3EWLFo0YMWr69BnJW7MmTEgsNGzYMISwYcPGNWvWhBAWLVpcVJ5Ws2YIITc3d/Xq1SGEpUuWbtlLUTshhMzMzKefGtasWbPVq1cvXrykSZMmIYR6desWVZg7d14IYcOGDYn/L1++IoSQl5cXQkj0Vcaa2+wIAICqVfXPVZg3dXT9Zu3rN20TQlizdO68qaPLstf48Vk33HhzSVsTeTGEsHTp0hBCRkbtJk0aL1u2vF3btkXlKSkpIYS0tLQOHdrPnDlr7733KqWdEMIB+/dP5M7jTzg5Ly/vphuvP/roo5IrFxTkJy0XJBaqVau2ZbOl19xmRwAAVK3t8eywwhljX+35g3NCCDPGvhpCYRU2/cmnny5ZsmSPPfa4+w93vv/Bh0cdeUQIYdas2ZMnTwkhzJw5s0OHDo88/MDUaZ/33Hef0pvKzs4OIdSpU+eM00+tUbPmEUcMqsJx7pCOAABI2C7fc5a7Yc0340d9M35U7oY1Vdxybt75FwwZN258t25df/Prc9q1azt6zNghQy8tKCgoKCi44sprJkyclJGR0aply3vv+1Nil7xNeVttavSYse+++15qauoFF5x3yMEHvf32u1U71O+/IwAAEqrt0+fQMlbt2avvmPff2p6DKYf09PQmTZosXbo0+QlcLVu2WLx4SeKpXqeffuqllwzJy8sbfPSxGzZsLKmdxo0bpaWlLViwcHsP+HvrCABg9zTwkCMnZo1LLO/47zmrmJycnHnz5hUrPOXkk4455uiZs2bVrVOna9cuIYRhw54sJeCGEBL3h30PvreOAADYVTPuVo0eM7Zp06bNmu+RnZ39+uvDX33t9SlTpu7oQQEA8H2LKuNmZU3Iypqw7XoAAERtu9xzBgAAO5CMCwBAbGRcAABiU77rcQcecuR2GgcAAFSV8mXcokeOAQDATqVnr75Fy65VAAAgNjIuAACxkXEBAIiNjAsAQGxkXAAAYiPjAgAQGxkXAIDYyLgAAMRGxgUAIDbl+56zMqpXPzMjIyO1Rs3t0TgAALuJzZvysrOz165ZXd4dqzjj1qyZ1q59h9oZdaq2WQAAdlsbstfPnjUzLy+37LtU8bUKAi4AAFWrdkaddu0dtyZFAAAgAElEQVQ7lGuXqjyPW79+ZiLg5ufnL1u6OC+3HFkbAACKqZmW1qRps+rVq9fOqFO/fuaaMl+0UJUZt1btjMTCsqWL58+dnZ+/uQobB3YH1UK1wlC4o0fBDuMAAJKlptasnpoaQmjWvGUIoVbtjB2TcVNrfNvapk2b8vM3b96UV4WNA7uDlJTqBQX5O3oU7DAOACBZSkr16iF106ZNidWiqFmmfbfPkAAAYIeRcQEAiI2MCwBAbGRcAABiI+MCABAbGRcAgNjIuAAAxKYqn48LQHkdfNDAZns0zc7OHj7y31VVE3Ytjm22Bxl3l1evXt23Rr1Ss0aNEMKoN9+56tqbdvSIvmPAAf0HDugfQnj0sSfXrl23o4ezFTv/CNmF3HTDVSccd0wI4cdnnfPFl9PLsss5vzprwAH9FyxYuM2/7mWvCTuVop+LZJs35/c94LDEsmOb7UHG3eUd+4PBjRo2TCwfd+zgW+/4Q3b2hh07pGR9evf8zbm/DCE89/cXd84EufOPkF1IrfT0unXrhhASXz5ZFtOmfRlCWLZsRRXWhJ1K0c9Fsvz8/32hnWOb7UHG3eWdfOLxIYTs7A0ZGbVr1ap1zNFHvvTPV4u2tmvXpk6dOnl5edOnf733Xnt27txhwYKFn3z6WRkrdO7UIS09PWdjztffzAwhpKend+rUIYSwcMGilatWFdu9e7cu3bp1nT9/wbjxWYndO3Zo37Rp08Ry1y6dGzRokJuTM+PrmTVr1OjUqUPr1q3q1q2zKW/TN7NmT536edGQ2rdvm5GRkWizd6+ebVq3mjh5yqxZc0II3bp26d6ty5y587ImTCr2OnRo327PPbvXqJE6a9acCRMnb3WCZR9h0dYePbrVrFlj7tz5EyZO3rx5c2XeKXZPpR+BIYQXXnq5zqg6eXl5IYSaNWp06dp5y0YSPyDJNYs4StmFXHbFtV/PnPXtSmFhUXmxY3ubPzWh5N/5UETG3bW1a9dmv577hBCeevpvJ510fIvmzU4+8fjkjHvzDVcPOKD/wkWLx4795NRTfpgofP/DMb89b8imTZu3WeH+e+/q0rnj5198dcJJZ4YQOnXq8MpLfwsh3HTL75/92wvJu7/33oc//tFpid3//fZ/zrvgkhDCH++6da+9eiQK//LI/SGE6TO++cHxp95+2w0nnnBs8kSmff7l2b++YPnyFSGEW2+6tn+/PgsXLc7KmnjcsUeHEAoKCq6+7uaOHdqfe/bPE/X/+fJrV159Q2I5M7P+H++69ZCDDyxqberUz3934aWLFi2u8AgzM+v/8Q+3HXLQwKI2FyxYOPSyq7fM1lC60o/AogoLFiw85PBjmzdvlvgRK6brnn3y8/OTa4bEke8oZZfy9cxZyWc0ihQ7tkv/qSn9dz4U8VyFXdtJPzw+sfD68FEjR70VQujbp1erli2KVWvRvNnAgfs/8dRfJ0+ZGkI45KCBZ/3kzLJXKEz61/ZWtWje7Lhjj37lteGLFi8JIRx1xGH9+/UOIYz9+NPECeAQwvsfjB715tujx3wUQlizZu3f//HyzbfddfmV1z3+5LP5+fl79uh26ZALirXZr2/vl195PTt7Q0pKyq03XfuLn/349TdGzpk7L4Rwyskn9OjeNVHznj/cfsjBB+bm5j7w0KM33HTH4iVL99qrx6MP31etWrUKj/Deu+9IRIc3ho8a9sQz69dnt2zZYtijDzRq1LD0lwK2qqQjsJjsDRtGvfl24r8PR3+UKFy3bl1BQcGWlR2l7HLuuPX6F557MvHfFZddXHrlkn5qyvI7H4LzuLu6k354bAjhq69mfP3NzDeGv3n2L8+qVq3aiT887sGH/1Ks5q/OOS9xkcB77wxv2rTJj8889Ymn/lrGCoVb+/tazDm/uTBrwqT+/Xr/7ZlhIYRu3bp+8ulnd919f05OzkUX/DaEcP1Nty9YsChR+Zbb7kpNTW3Xtk39+vUWLlp0wP79enTvuv/+fYu1+Ytzzps+/et169b//Kwfpaam3nX3/X8Z9tTAAfs//cQjIYSuXbt8/sVXHdq3O/igASGEYY8/c/8Dfw4hrF237t67b+/RvWv/fn0+/mRcBUbYsUP7gw48IITwxvBRQy69KoTw+Rdf3vOH2+vVq3vSiccNe/yZMr038F1bPQKL1Vm+fMUFF18eQkhPT3/isQdDCNnZG3517gVb/jvTUcquqHu3rkXLZbn/YcufmmXLVpTxdz7IuLuw/fv3bdGieQhhxKi3qlev/vkXX86bv6B1q5YnnVg8465ctSpxjWnepk0TJ0896ojDWrVqWb169aJL/kuqUMaRrFmzNvHx6MKF335UVL9e8dsLkp1x2klXXj603nfr1K9Xr9iYp0//OoSwYsW3dyF89PG4EMKKFSuTu+jcuWNi9fzzzj3/vHOTW+jcqUPR77tyjTBxzXEIYfxnE/67MPHbNjt2LGVeUJJyHYE1a9T480P39OvbOycn59zfXrTVaw0dpeyK7r3/4fnzFySWFy9ZUnrlrf7UlPF3PgQZd5d28knfXqgw9OLzhl58XlF52zate/fq+VnWxKKSGkm3eCeW8/Pzkz/9LLFCYWEIoXrqt2G3YWbmVkeyfv36xEJB4bbP+LZp3eqWm65NSUmZMHHyX//2woYNGy684Lc9unct9inTxg0bEwv5+d+2mZ2dHUIoVq3gvzF93PisefPmJ2+aM2dexUZY1Gbqf1+Wotdnc74beqiIsh+BqampD/7p7gMHHpCbl/e7Cy75dFzxc73ftuMoZRf0/odjtno97lZt9aemjL/zIci4u65atdIHH3l4SVtPOvH45Ixbt27dgw484MPRHzVs2KBvn14hhK+/mZX86WdJFVasXBVCaN2qVZ2MjPXZ2aedemJ5x7lh47dRtUFmZuJKgC6dO6WkpIQQnnzqryNGvZWRUfvWm68rb7NFpkz9vLCwsFq1avPmzb/iqhuKyg868IAtPwgu4wiL2jzyiMOefvb5wsLCwUcdXtRdhYcK25SSknLv3bcPOuzgzZs3XzTkiqJLcrfkKGX3VPnf+ew+ZNxd1dFHHZGRUTuEcPNtdz3z7PNF5W+8+kK3rl2OPebIm2+9s+g5LPn5+Y88eM+EiZO7dO5Up05GCGHYE9+5XK+kCllZEw/Yv2+dOhlvjXolNzevWbOm5R3nV1/NSCy88NyTy5evePX1ES+/8npBQUFKSsoVlw3p3Xu/AwfuX6/UCxtKt3jJ0hde/NeZp5988kkntGjR4ssvv2rcpPE+e+/ZpnWr/foeVOwpS2Uc4T33PfSPl/51xmkn9+/XZ/ir/1i2fPmAA/qHEObNX/Dqa8MrPFTYpsMPO/iYo48MIeTn519/zRXXX3NFovywI48vdtvZ4iVLHaXshir/O5/dh+cq7KoSFyrk5+cPH/Fmcvnrb4wKIdStW/fIIw4rKly8eMkf7nmg1377NmrUMD8//7HHn379jZHJe5VU4fGnnk08krBJk8Z5eXnX3XBbecf54eiPHnv86aVLl9WsWbNlyxYNMjNnz557++//mJuX16pVi7N+csbYjz4dM/bjCr0G37rx5jseemTYunXr9u/f5xc//8lxPxjcILP+iFFv5eaW6ZfdliNMtPnYsKc3bNjYpUungQP2DyF88OHYn/zs3I0bcyozVChd0TdHpKWltWzZoui/rd4w7ihl91TJ3/nsPqrt0+fQMlbt2avvxKzSruZu1aZt48ZNQwjz5s5eOH/O5k2Oth3vmSf/XPTQwYyM2m3btF60aMmq1avLXiGE0Lx5s4zatYuesVUl6mRktGrVcunSZYnvkqi86tWrt23Tulat9JUrVy1Zumyrz1oqrxo1Utu1a1sjNXX+goW+Au37kZJSvaAgf9v1+K/IjlIHAGW0PX7nsxOqmVarRs20Ro2btG7TLoSwfPnS+XPnlFI/Oay6VmE3kp294fMvvqpAhe3xYO312dlffjW9ChvMz8+fOWt2FTYYQti0afOMGd9UbZtQtRyl7J62x+98IuNaBQAAYuM8buSGXnZ1enpa/uYSP/vbZgUAgF2OjBu5om9MqHAFAIBdjmsVAACIjYwLAEBsZFwAAGIj4wIAEJvtdc9ZamrNlJTq26lxAACiV716xZPq9sq41VNTq3toAwAAO4JrFQAAiI2MCwBAbGRcAABiI+MCABAbGRcAgNjIuAAAxEbGBQAgNjIuAACxkXEBAIiNjAsAQGxkXAAAYiPjAgAQGxkXAIDYyLgAAMRGxgUAIDYyLgAAsZFxAQCIjYwLAEBsZFwAAGIj4wIAEBsZFwCA2Mi4AADERsYFACA2Mi4AALGRcQEAiI2MCwBAbGRcAABiI+MCABAbGRcAgNjIuAAAxEbGBQAgNjIuAACxkXEBAIiNjAsAQGxkXAAAYiPjAgAQGxkXAIDYyLgAAMRGxgUAIDYyLgAAsZFxAQCIjYwLAEBsZFwAAGIj4wIAEBsZFwCA2Mi4AADERsYFACA2Mi4AALGRcQEAiI2MCwBAbGRcAABiI+MCABAbGRcAgNjIuAAAxEbGBQAgNjIuAACxkXEBAIiNjAsAQGxkXAAAYiPjAgAQGxkXAIDYyLgAAMRGxgUAIDYyLgAAsZFxAQCIjYwLAEBsZFwAAGIj4wIAEBsZFwCA2Mi4AADERsYFACA2Mi4AALGRcQEAiI2MCwBAbGRcAABiI+MCABAbGRcAgNjIuAAAxEbGBQAgNjIuAACxkXEBAIiNjAsAQGxkXAAAYiPjAgAQGxkXAIDYyLgAAMRGxgUAIDYyLgAAsZFxAQCIjYwLAEBsZFwAAGIj4wIAEBsZFwCA2Mi4AADERsYFACA2Mi4AALGRcQEAiI2MCwBAbGRcAABiI+MCABAbGRcAgNjIuAAAxEbGBQAgNjIuAACxkXEBAIiNjAsAQGxkXAAAYiPjAgAQGxkXAIDYyLgAAMRGxgUAIDYyLgAAsZFxAQCIjYwLAEBsZFwAAGIj4wIAEBsZFwCA2Mi4AADERsYFACA2Mi4AALGRcQEAiI2MCwBAbGRcAABiI+MCABAbGRcAgNjIuAAAxEbGBQAgNjIuAACxkXEBAIiNjAsAQGxkXAAAYiPjAgAQGxkXAIDYyLgAAMRGxgUAIDYyLgAAsZFxAQCIjYwLAEBsZFwAAGIj4wIAEBsZFwCA2Mi4AADERsYFACA2Mi4AALGRcQEAiI2MCwBAbGRcAABiI+MCABAbGRcAgNjIuAAAxEbGBQAgNjIuAACxkXEBAIiNjAsAQGxkXAAAYiPjAgAQGxkXAIDYyLgAAMRGxgUAIDYyLgAAsZFxAQCIjYwLAEBsZFwAAGIj4wIAEBsZFwCA2Mi4AADERsYFACA2Mi4AALGRcQEAiI2MCwBAbGRcAABiI+MCABAbGRcAgNjIuAAAxEbGBQAgNjIuAACxkXEBAIiNjAsAQGxkXAAAYiPjAgAQGxkXAIDYyLgAAMRGxgUAIDYyLgAAsZFxAQCIjYwLAEBsZFwAAGIj4wIAEBsZFwCA2Mi4AADERsYFACA2Mi4AALGRcQEAiI2MCwBAbGRcAABiI+MCABAbGRcAgNjIuAAAxEbGBQAgNjIuAACxkXEBAIiNjAsAQGxkXAAAYiPjAgAQGxkXAIDYyLgAAMRGxgUAIDYyLgAAsZFxAQCIjYwLAEBsZFwAAGIj4wIAEBsZFwCA2Mi4AADERsYFACA2Mi4AALGRcQEAiI2MCwBAbGRcAABiI+MCABAbGRcAgNjIuAAAxEbGBQAgNjIuAACxSd3RAwBgJzJwQL+mTRpv2LDxzbf+s+Xq9z+ASu7+/Y8f2EnIuLA7uvrKIT84+vAQwtRpX/72gssThb/6+Y9+9YsfhxDO+uX5s2bP3ZHj2wn079dr/369QwhPPP38unXrI+60mJ//5PT+/XovXLQ4EQqLrZZLxaZTmR633L2SrQG7LhkXdke10tPq1qkTQjigf58DB/QfPfaTEELNmjUThdWru4op7Lfv3r/6+Y9DCC/+87XvLW7ukE63n8imA+xaZFzY3V10/jmJjFuSdm1bd+/WpUaN1Nlz5k2e8nnypubN9ujWtVP9+vXWr8+eO2/BNzNn5ecXlL6pY4d2aWk1c3JyZ86aE0JIT0vr0KFtCGHRoiWrVq8JIbRt0yojo3Ze3qavv5nVtUvHLp07LVi4KGvC5NJn0bJFsx7du9auXWv58hWTp3y+bn12orx9uzbdunauWbPGvPkLJ0+etjk/v2iXUjpq365N0yaNE9U6d+qQmVk/Nzfvm5mzt/malD740udeeqelTKSYMr6ApbytpahRo0bHDm1btWxRp07Gpk2bZs2e+/kX07das6TplL2FEMKePbp27NBu4cLF47MmVX7w5Ro/sKuTcWG3tnbd+q5dOh191KBR/353y63169e7/aarDxzYv6jk8y++Gnr59YuXLA0hXPi7s3/1ix+npPzvpO+/337v8qtuKn3TXbdf36lj+y+/+vqMn54bQujQoe3zzzwaQrjjrvv//uIrIYRrrhzSv1/vxYuXfjDm49NPOSGx+7vvjR56+XVbnULdOhk3XnfFEYMOLipZvHjp4OPPqF+/3u03X3PggH5F5QsXLf6/a2+dNHlaYrWUjm6/+eoe3bsmSv50z+0hhK+/mXXKmb/a5mtS+uBLn3tJnW5zIsVs8wUsfQqlu/Hay4/7wZHJJV98OeP8IVeuWLGqWM2SplPGFlKqpdx03RUnnnBMYnX02E8vvvSazZs3V2bw5Ro/sKvziSTs1p565vkQwvm//dVWr0+445ZrDhzYPzc378+PPX3bnfctWbqsR/eu9//xtmrVqjVs2OCcX/00JSXlxZdfu+aG2++5/5F/v/1eTk5OCKGUTUUKCwtLH1izZk2PPmrQGyPeWrJkWQhh0KEH9um171Zr3nHrtYmAO3nq54898ezLrw5PnMT9/a3XJnLhyDffffqvL2Rnb2jRvNmD9/2+YcMG2+zok3FZiVOtIYTRYz556533P/pk/DZfkzIOvqS5l9RpGSdS9hewLFMoydp16/75rzfuvPuBa2+445m//SM/P797t84X/u6csk+njC00a9b0gP59nn3uxanTvgwhHDig349OP6mSgy/X+IFdnfO4sFt78eXXTz7xuDatW578w2OLbWrXtvXAA/qFEJ7+6wuP/OWpEMK6det/f+u13bp26tu759JlyxPVZs2eO3HStIWLFhcUfHuVQr26dUraVKSwsHjJli4Y8n+TJk/r02vfxx+9L4TQpUunYh9YhxDatm190MD9QwjjP5t49m+HJgrT0mq2b9dmwP59Qwgj33z3/669JYTw5Vdf33HLNfXq1jn+2KOefvaF0ju674G/5OTk/u7Xvwgh3HbnvQsXLSnLa/Lp+AllGXxJc99qp+WaSFlewLJPYavuvPuB1OrV27RpVb9e3UWLl/Tr06tb1059++xXxumUq4XfXXRF4tqGka8936Rxo9NOOeHDMR9XZvDl6h3Y1cm4sFvbtGnTI3958rabrv71OT8bPvKt5E2dOrZPLPz67LN+ffZZyZs6tG87PmvS9BnfdOnc8YpLLrjikgtyc/MmTpryyF+emjBp6tx5C0raVPaBrV27LvFZ/KL/fgZdFJ2Tdf7vIN95b3RRYW5uXscO7RLLEyZN+XZh4rcLHdu3q0BHCaW/JkUZq1xtlq7sEymmpDGUcQolOfnEY4de9Nti06lXr+625lHuFlatXpO4FnnTpk1Tpn4x6NADW7Zo3qVzh8oMvkrGD+wqZFzY3Q0f+fYvzjqzc6cOPzz+mOTy/P/e1ZQ1YfL8BQuTN82bv6CgoODs3w495cTjevfap22b1q1btejfr3f3bl2O/MFpObm5pWxKfFBfvXr1RFMNMutvdVTrs7+9aaxwi3PAyTZv/naQNWvU2OrgU1OrF1vI/+7dWmXsqNi+W31NttlmGee+1R63OZFiShpDGaewVa1atrjuqktSUlImT/n87y/+a8OGjb899xfdunYq22UC5WuhaJpFy/n5+UVvdwUGXyXjB3YhMi7s7goLCx94eNif7rm9YYPM5PJpX3xVWFhYrVq1+QsWXnfTnUXlA/bvOz5rYmpqao0aqU8+8/yTzzwfQjjhuMG33PB/9erVbdmy+Zy580va9M3M2atWrw4htGrZIiOjdnb2hpO2uEaiXD7/4quCgoKUlJQTTzjmpZdfTwS71q1aFA1+0CEHPvf3lwsLC48YdMi38/r8q7K0vPG/FxDXr1+/6HP20l+Tbba5zblv2WnlJ1JMZabQqWP7xH2Ezz734r/ffq927VrXXX1pKfW3nE7ZW6hbp86A/fuO/XhcwwaZvffbN4Qwc9acqZ9/WZnXv7zjB3ZpMi4Q3v/wowmTpuy3797JhUuXLn/5leGnnHTcCccd3bx5s+nTv27UqOFePbq1atXiwMOOq5lW863hL2ZNnDJv3oINGzYedOD+IYSNOTkLFiyqX79uSZtCCBMnTe3XZ7+MjNqvvfRsbl7eHk2bVGbkS5ct/8dLr555+knt27V5/V9/nTL1i4YNM5s0ajT4+DP+9eqIk088tk/vni8+9/iKFSv79+sVQpi/YFGxSzJKMmPGzMTC08MeWLFy5YiRbz/wyOOlvyZ5eZtKb3Obc99qp5WcSDGVmcKs2XMS/6IYcuFv9uu59wH9+5T+Kf+W03lt+JtlbCE/P//eP9wyacq0Th3bZ2TUDiE8/dcXKvn6l3f8wC7NcxWAEEK4/4G/bFl4+533PfbEs+vWr+/bu+dPfnTq0UcNqp9Z799vv5ebl5eXt2nO3Pl9eu178onH/vTHp7Zt02re/AWXXXljTm5uKZtCCM/87R+JZ7U2btxwU17erXfcU8mR33XPgw8/+uTatesaNsg85KAD9t6z+/IVK0MIt91531PP/H3Dxo2dO7Xfv3/vEMKYjz4957dDN373CQ8lGfvxuKeefWHZ8hU1a9Zo0bxZ/cx623xNttnmNue+1U4rOZEtVXgKc+bOv/u+h/Py8lq2aHbmaSd+8ulnH//3cRNbteV0yt7CkqXL7n/osZ777NWoYYP8/Pynnn1h5JvvVGbwFRg/sEurtk+fQ8tYtWevvhOzxpVSoVWbto0bNw0hzJs7e8XyZZUfHLAzqF49pXWrlunp6atWr162bEXyQxIyMmo3adwoPT195apVS5cuT96rlE0hhGZ7NK1du1bRs6UqLyUlpXWrFrVq1Vq5clXRMx9CCKmpqe3atkpNTV2wcHEVftVWKa/JNlVs7lU+kQpPISOjdssWzZctW574zo4KKHsLtWvXatO65eLFS1evWVslgy9X78BOolHjJq3btAshLF++dP7c0n55JodVGRcAgJ1XxTKuaxUAAIiNjAsAQGxkXAAAYiPjAgAQGxkXAIDYyLgAAMRGxgUAIDYyLgAAsZFxAQCIjYwLAEBsZFwAAGIj4wIAEBsZFwCA2Mi4AADERsYFACA2Mi4AALGRcQEAiI2MCwBAbGRcAABiI+MCABAbGRcAgNjIuAAAxEbGBQAgNjIuAACxkXEBAIiNjAsAQGxkXAAAYiPjAgAQGxkXAIDYyLgAAMRGxgUAIDYyLgAAsZFxAQCIjYwLAEBsZFwAAGIj4wIAEBsZFwCA2Mi4AADERsYFACA2Mi4AALGRcQEAiI2MCwBAbGRcAABiI+MCABAbGRcAgNjIuAAAxEbGBQAgNjIuAACxkXEBAIiNjAsAQGxkXAAAYiPjAgAQGxkXAIDYyLgAAMRGxgUAIDYyLgAAsZFxAQCIjYwLAEBsZFwAAGIj4wIAEBsZFwCA2Mi4AADERsYFACA2Mi4AALGRcQEAiI2MCwBAbGRcAABiI+MCABAbGRcAgNjIuAAAxEbGBQAgNjIuAACxkXEBAIiNjAsAQGxkXAAAYiPjAgAQGxkXAIDYyLgAAMRGxgUAIDYyLgAAsZFxAQCIjYwLAEBsZFwAAGIj4wIAEBsZFwCA2Mi4AADERsYFACA2Mi4AALGRcQEAiI2MCwBAbGRcAABiI+MCABAbGRcAgNjIuAAAxEbGBQAgNjIuAACxkXEBAIiNjAsAQGxkXAAAYiPjAgAQGxkXAIDYyLgAAMRGxgUAIDYyLgAAsZFxAQCIjYwLAEBsZFwAAGIj4wIAEBsZFwCA2Mi4AADERsYFACA2Mi4AALGRcQEAiI2MCwBAbGRcAABiI+MCABAbGRcAgNjIuAAAxEbGBQAgNjIuAACxkXEBAIiNjAsAQGxkXAAAYiPjAgAQGxkXAIDYyLgAAMRGxgUAIDYyLgAAsZFxAQCIjYwLAEBsZFwAAGIj4wIAEBsZFwCA2Mi4AADERsYFACA2Mi4AALGRcQEAiI2MCwBAbGRcAABiI+MCABAbGRcAgNjIuAAAxEbGBQAgNjIuAACxkXEBAIiNjAsAQGxkXAAAYiPjAgAQGxkXAIDYyLgAAMRGxgUAIDYyLgAAsZFxAQCIjYwLAEBsZFwAAGIj4wIAEBsZFwCA2Mi4AADERsYFACA2Mi4AALGRcQEAiI2MCwBAbGRcAABiI+MCABAbGRcAgNjIuAAAxEbGBQAgNjIuAACxkXEBAIiNjAsAQGxkXAAAYiPjAgAQGxkXAIDYyLgAAMRGxgUAIDYyLgAAsZFxAQCIjYwLAEBsZFwAAGIj4wIAEBsZFwCA2Mi4AADERsYFACA2Mi4AALGRcQEAiI2MCwBAbGRcAABiI+MCABAbGRcAgNjIuAAAxEbGBQAgNjIuAACxkXEBAIiNjAsAQGxkXAAAYiPjAgAQGxkXAIDYyLgAAMRGxgUAIDYyLgAAsZFxAQCIjYwLAEBsZFwAAGIj4wIAEJv/b+9efuOq7gCOn/F4bONHnPgRO7bzQHZJUiDQtEkf6iIVUtoNqyxYwI4l/AVI7LpmxQKJBd1UrNgUEIJWtF30EbWA1YiGEBIbxUkck4w9zjw8M7aHxYCVusV10PUMc/z5rM5c37n6jXQXXzX+InkAAAUiSURBVI2O72hcAABio3EBAIiNxgUAIDYaFwCA2GhcAABio3EBAIiNxgUAIDYaFwCA2GhcAABio3EBAIiNxgUAIDYaFwCA2GhcAABio3EBAIhNko27Wl2tLzKZTIKXBQBg19oIy43U3I72BCcoFQv1xfD+0RBCpVxO8OIAAOw2HZ2d9bAM96TmdiTZuLncUrGQ7+7pTafTowfGE7wyAAC7WbGQz+WWtn9+wvtxZ2euFgv5ZK8JAMBuVizkZ2eu3tdbkvweN4RQqZQ/vXRxT//enp6e9kxHshcHAGBXWa1WCoXC8v18g1uXcOPWLeeWvsUoAACQCM8OAwAgNhoXAIDYaFwAAGKjcQEAiI3GBQAgNhoXAIDYaFwAAGKjcQEAiI3GBQAgNvf3O2ePnzy1Q3MAAEBS7qNxpz/8x87NAQAASbFXAQCA2GhcAABio3EBAIiNxgUAIDYaFwCA2GhcAABio3EBAIiNxgUAIDYaFwCA2GhcAABio3EBAIiNxgUAIDbtzR4AANhdUqm20aM/Hjh4LNPV0+xZaDHVlUL22ifzl87Xautbn5keGTvSkJEAAEII4cDxn4x874fp9o5mD0LrSbd39A6Opdra8rfntj7TXgUAoKEGJo42ewRa23ZuIY0LADRUpqu32SPQ2rZzC2lcAABio3EBAIiNxgUAIDYaFwCA2Hg+LgBA0xw7PNTf21WurE5fnm/2LFHRuAAAO+jcme+fPHpg08H19dqLr74fQjhz8sGHDg5ml0saN1kaFwBgB3Vk0g90ZjYdXF+v1RdzC7kQwt1CudFjxU7jAgA0wm/f+9etbH7TwfMfz01fnl9b++qXaYf3dnd2tK+trd+8kx8b6hsb6ssul67eWNz0rv37eiaG96TTbQuLhc/nlxoxfavRuAAAjXArm59bWN508NwvHq7vVfj1b/688XLxbuni7Bc/e/RQ/ZwLV2699vZH9XV3V+bpsyeOHxneuMK1hdxrb320lF9pyIdoGRoXAKARnnrikUp1rb6eubn41l8+/aYz9/U98IOHDvzzkxtT4wN7+7oenRyZHB+4cj0bQnjmlyeOHR6urq69/8FMvlh+4tTkwf39zz558qXX/1pr0OdoDRoXAKARxof3bKxL5erWJ7/6uw9mby5Njg88d+50CGFsqO/K9ez+fT3HDg+HEP744cy75z8LIZTKq8/86rHx4T2TEwOfzWV3cvwWo3EBABrhnb9dzi4X6+ul/Fb/ZFZcqc7eXAohLN4t1Y90d2VCCKMDvfWXZ09PnT09de9bRgd6Ne69NC4AQCNc/PyL/96P+z+tVFbri9p/7j9Y//r11evZO8ule/90O1dMYMSIaFwAgNZwbSFXq9VSqdSd5dLrv7+wcfzooaH6bl02aFwAgNaQy5f//vHcTx85eOr4+L6+rhu37/Z1dx4a6R/s737hlT+sfv0AMoLGBQBoIW/86d/5YuXnjx2amhicmhgMIZTK1enL8wJ3k9SJH51p9gwAwC7y+JPPN3uElteWSg3t7c60pwulSq6wUtt9jw2bfvPlrU/wPS4AQItZr9UWFgvNnuI7ra3ZAwAAQMI0LgAAsdG4AADERuMCABAbjQsANFR1Jd/sEWht27mFNC4A0FDZuUvNHoHWtp1bKD0ydmTnJwEA+Erhzo1Uqq2zpz/d3tHsWWgx1ZXC7ZkL85fOh/B/ngnsNyAAAIiNvQoAAMRG4wIAEBuNCwBAbDQuAACx0bgAAMRG4wIAEBuNCwBAbL4EJz2hQypzhrMAAAAASUVORK5CYII=;" parent="1" vertex="1">
          <mxGeometry x="430" y="460" width="362.78" height="280" as="geometry" />
        </mxCell>
        <mxCell id="TVynHAeKMUivycCZFWxq-4" value="" style="shape=image;verticalLabelPosition=bottom;labelBackgroundColor=default;verticalAlign=top;aspect=fixed;imageAspect=0;image=data:image/png,iVBORw0KGgoAAAANSUhEUgAAAhYAAAJuCAIAAABjVNwoAAAAA3NCSVQICAjb4U/gAAAAGXRFWHRTb2Z0d2FyZQBnbm9tZS1zY3JlZW5zaG907wO/PgAAIABJREFUeJzs3Xd8FMX/x/HP3aX3CiE9JJBQBKQjVQREREXFgiAWFAUbKkXF8lO/NqQogqAoVhAQUFGkSQdpgjRJI/QU0nu9y/3+WDhjAiGOkEvC6/nwj7nd2ZnZO9n37c7uRTdy9ITtm9cJAAA14+zqoRX01h0HAKD+IkIAAIqIEACAIiIEAKCICAEAKCJCAACKiBAAgCIiBACgiAgBACgiQgAAiogQAIAiIgQAoIgIAQAoIkIAAIqIEACAIiIEAKCICAEAKCJCAACKiBAAgCIiBACgiAgBACgiQgAAiogQAIAiIgQAoIgIAQAoIkIAAIqIEACAIiIEAKCICAEAKCJCAACKiBAAgCIiBACgiAgBACiysfYAcEXY2doGBQU6OjqITldaWhoXd9TaI7rMXF1dQkKCtXJc3NHS0tL63hFQHxEhdYi3t9eTY0dr5T/+2Ldy1VqFRnQ63WuvTLrrziH29vbaksTEpN433HzZRlk3dO3ccc7sGVr5pluGxscnWL2j//7xOTk5aoWysrKyMuO/H2yd1rD37qpFhNQh7m5u9w+/RyvbGAxqEfLQA8NH3HfPZR0XauS/f3wH9/2uFWbOmjtz1ieXc3B1QMPeu6sWEdLQ3NC3t1aIP5rw5NMTcnJzy03l1h3SlZB8NvWXX9do5bzcvAbQEVAfESH1j52dXVBgQFlZ2anTZ6qu9fdvohX27z+UcOx41QqeHh4+vt4moynl7NnCwqJLdmdvbx8UGFBcXHwmManqWhcXlyZ+jZJTUvPz8y0LPTzcGzXyTUk5m3uRY66Xl6ebm6uDvUNBQUFiUnJ5+b8OucOHj4x77oVqKvzb3bzYu3rJjv6t6j++mnB3d2vk62M0mZKSUkpKSqqvXP3Hd3n7ksuxd//2g4N1ESF1XZ/ePWZMfVsr3zP84Ztu7PfQAyNcXJxF5NTpMxNfePWPvX9qa19/7cVbB9/k4uKivbzt1psH3niDiCz/8Zc335oiIvfec+eDI++LCG+qVTCZTH/s/fOj2Z/s3PXHBbu7+76HBg8a+NADw52cHA8fPjJk6PAB/fu+9/b/aWtHPDB62D1D77zjVltbW6PRuHT5ijfefNfF1eWtN1/p17ePTqcrLy//ZeXql155s7i4WNvE37/JjKlvRzZvpo1fU1JSsmHjlqnTPzp56rS25Kfl3wUHBVzw3di4aetzEyZXGufQex6oGJb/djerf1er6agmatjRnNnTu3buaNnqsdEPP/TAcK184813pqamaeW77hzy0APDmzePOPfWlZZu3Ljl/WkzLW9dNR/f2vUbH314pIjk5eXfcOOtltkIvV6/bvWPXp4eIrLgu++nTv+ohn1d9r2ryQeHuoYIqetsbWxcXV218jv/e61tm9aWVcFBgZ/O+bDfjbdlZmWJiKODg6WmiNjZ2drZ2YqIo6ODiHww/d3Bg26s2LLBYOjSuWOnju1fe+Od7xYtrdrdCxPG9e7V41xtnU5EbG1tLWvfffv/WkRFamUbG5t7777DoNe3bXtN82bh2kK9Xn/rLYMKi4pffvVNbYm7m2uH9u0q7aC9vf1NA/t36dLxttuHJaecFREXF+eKO1KR4/kp2Yrj1Bv+vjddYTerf1cv1lEN1bAjZyenirtsb2dnb2d3rlOdTitMm/LWbbcOqti4vZ3dwBv7Xdety4gHHj0SHSvVfnwrV6559umxOp3O1dW1T68e69Zv0tb0uK5rSHCQVv75l9U17+vy7l0NPzjUNURIfdK2TesdO/fs2v1Hv769W7duKSJubq6DBw/8+pvvRGTr9p25uXlD7xyifQ2Mi0/4/fedIvLn/oPDh91t+fe5/8Ch7xYvdXZyGvv4Iz4+3nq9/v9eeWHXrj+OHT9RqbvevXrk5efv27e/tKzMydGx0toWUZGrVq+Li0+4f8Q9Xp6eInLX0CEisn7D5sN/RQ8fdpePj7eI3DHklrffnapdkTCbZe++/T//sirh2ImzZ1MdHOy7de383LNP2tvZeXl6jnro/v+9M1VEli3/SWtQ06lTh1Yto7RyUmJyNe+P2m5W/65eRtV0tHrN+ri4ow+e/26+/8Ch/fsPauX8gkIRufeeOy3H9G8WLP5+6Q8uLi6TXxzfqmWUm5vrh9Pfu/HmOypdD6z08Z08dXrX7r1du3QUkSG3DbZEyK3nmz1w8HBsXLxaX/9x79Q+ONQFREh9snnr9lGPPikiX3z17e4dG7Wvci0im2trf/5l1c+/rOrf73otQvYfOKgdkUVk9cplWiEjI3PEA6O1K0sHD/21dPHXImIwGIYPu+vNt9+v1N3pM4n3jRilnRlUteLnX7VrSgUFBS+98Ly2cOOmrY+NHSciqampb735qojY2dmGN2166PBfIhITG3fPfQ9VbORIdOw1rVsOvnmgiHQ+f63j47mfWyp0v67rsGF3WRp/Z8qMat6f+0fco7Cb1b+rl1E1HS1c9L2IWA6yW7Zur3TP0sgRw7TCjp17Xn/zXa088YVXV65YIiJhYSE9e1y3ecu2iptU/fiWLF2uRUifPj3d3Fxzc/McHBz633C9tnbxkuXKff3HvVP74FAXECH1yaLF55KgoKAwPS09IMBfRJwrzCtckIuzs+X68sZNWy0zE/sPHEpKTvFv4icibdteU3XDTz/78mL5ISIrflmlFSrO0/70869aoeIVc2dnJ0u5a5dO995zZ5trWjXy9XFwcKjYoI+3V6UuOna4du7s6drBaPvvO5946nmj8aLPEyjvptq7qkC5IxdnZ8vlQR8frw+mnzus6/V/X1hr17Z1pcN61Y9v9Zr1r07O8fBwt7ezGzSw/6Ily/v3u177dAoKCn/5dbVyX/9x79Q+ONQFREh9kljhYF1aWqYVLFeTL8bN3c1STktPr7gqIz1D+yfqUaGORWxsfDXNWmZBy8rKLAtTzh+zzGazZaHl6DN82N2vv/bixRq0tbWt+LLNNa0+++QjR0dHEdnzx77Hxj5bWqGjqpR3U+1dVaDcUcVdaxYR3iwivGodT0+PSkuqfnylpaU/rVj5wMj7RGTIbYMXLVk+5PwFq59XrtYuNqr1JZdp7/7VB4e6gAipT8oqfAeveIyuXl7e33fWelaYY6j4Mi8vX6rIy7/AwgsOxqKaswSDwfDcuCe0cvzRhFf/7+3jJ06ajKZXX554y+CbKlWOimz+xWcfa1fkDhw8/MhjT1m+nF6M8m6qvasKlDuquGs7du7Z88feqnUOHT5SeasLfXyLvl+uRUiH9u3aXNOq+3VdteWWq1hqfcll2rt/9cGhLiBCGr68vPyTp05rd9307tXdxsZGO9A3axYeGOiv1bngQeHyauTr437+u+TiJcv3/LFPRHQ6XVRU5VmH8KZhX30xR6scHRP70CNjCwoKL9l+HdnN/8JkMhkMBhFxdPjHzQt5efknTp4KDQkWkfJyU9VHuxs38tXuH7uk+PiE/QcOtWt7jU6nmzHtHRsbGxGJjonVJqsub18137v6/sFdzYiQq8KixcsmTRgnIk38Gn8y54NvFyx2cnKynBOYzebF3y+/0mPIzcsrLy/XLmoNumnAxs3bTEbjk2NHV7pU4ujo8PUXc729zs2L7N23/8GR91nWJhw7sfL8s+JV1YXd/C9SUs5qUwh3DR2iN+gLCgpSU9MWLVkuIt8tWvripOdEpPt1Xd/8v8lfL1h09myqh7t761YtBvTvO6D/Dd17DcjKzq5JL0u+/6Fd22tExHIvr+UURHMZ+6rh3tX3D+5qRoRcFb74akHPHt2u69ZFRHr37N67Z/eKaz+YOeevIzFXegwFBYVr120YeGM/EWl/bdv1a34SkfLy8oRjx8ObhlmqOTs7N27cyPKy0u99rVu/sZoIqQu7+V+sWvPbIw+PFBEPD/dRD90vIocPH9EOsl9+vfC6bp215zyG3Tt02L1DlXv55dfVk18cb7nHobi42HIThOYy9lVRNXtX3z+4qxl/L+SqYDQaH370yQ9mzsnIzKy4/GjCsafHTZw9Z17tDOPFl1//+fx9XCKSkZH59LOTdu++wNV2NXVkN5VN/2D2Z/O/TkxMMplMlVaZTKZHH3/m3SkzkpJTKi4vLy8/cPDwhx/NzS+o6WxBYWHRzytXW16uWvNbpZmGy9hXRdXsXX3/4K5mupGjJ2zfvM7aw0DtCW8a5uvrbTSaEhOTqrln98rx9vYKCw0pKiqKiY2vejS5XKy+m1dOYIC/n19jnU6XnpFx9mzqFf0hqdrsS9OAP7iGxNn13F15RAgA4N+xRAgXsgAAiogQAIAiIgQAoIgIAQAoIkIAAIqIEACAIiIEAKCICAEAKCJCAACKiBAAgCIiBACgiAgBACgiQgAAiogQAIAiIgQAoIgIAQAoIkIAAIqIEACAIiIEAKCICAEAKCJCAACKiBAAgCIiBACgiAgBACgiQgAAiogQAIAiIgQAoIgIAQAoIkIAAIqIEACAIiIEAKCICAEAKLIREWdXD2sPAwBQ/3AWAgBQRIQAABQRIQAARUQIAEAREQIAUESEAAAUESEAAEVECABAERECAFBEhAAAFBEhAABFRAgAQBERAgBQRIQAABQRIQAARUQIAEAREQIAUESEAAAUESEAAEVECABAERECAFBEhAAAFBEhAABFRAgAQBERAgBQRIQAABQRIQAARUQIAEAREQIAUESEAAAUESEAAEVECABAERECAFBEhAAAFBEhAABFRAgAQBERAgBQRIQAABQRIQAARUQIAEAREQIAUESEAAAUESEAAEVECABAERECAFBEhAAAFNnUcn+NG/sa9JfIrdS0jD69rhs4oK+I/Hng0ILvlv33fvv17XV5GwQA1HaEfPfVXG9vr+rr3D38kbDQ4P439BYRk8m0QJaJSIC/3xOPPywiJaWlr/9v6r/tt2qDCAr079ihnYhs/313alq6FRsBUE/VdoTUUEFB4dnUNBHJycnVlri7u918U38RKSwqUoiQq9DaX5Y4OTtebO3Qe0cNHjTg8UcfEJFBQ+4TkZCQoCG3DBSRX1evjz96rIa93HxT/zGjHxSRm4cM/+9jBlC/1HaEzJo739HRQSv36dW9c8drRSQ9PXP+1wstdVJT0xcuXr5w8XKF9m1tbW1tbQoLi2ptw7opOCigcWPfi63Nzc1LOZtqNpt37d5bUlqamJgsIj2u6/zwA/eJyJp1m2reUYuo5iKSl59/JjHpvw4aQH1T2xGy/MeVlnLjRr5ahGTn5FSan7jrjltGDBsqIlu275z2wZx33pzcrm1rbZWjg8NP33+llZ8Z//KJk6dFxNXFedRDwwf0uz7A309ECguLdu3Z++nn3xyJjqt+PDXZcNmi+TYGQ8Xu6r70jMxhIx/Tyi9NGndNqxYiMuapidk5OSJSXFwiIpu2bN+ybUdObp6ItGzRvFOHdiJiNpsd7O1btmielZWTnHJWa0Gn07W5pmVwYEBefkFs3FHLchFpEdlMRGJij1qWVFMZQANTRy9keXi4h4YGi0hM3FERadKksX8TP22VTqfTVomIvb2diHh5enz1+azgoADL5k5Ojtf37tGje9cXJr/524YtF+ulhhuGhQYbDAZLd/VCYWGRJQX9/RqLSGZW9u8791gquLu7Lf52noh89e3iJUtXfPf1J9pynU731ecficjsufM//fwbEenWpePLLz4XGNBEq2AymRYv/WnKtFlms9nTw10714mOOddXNZWv/E4DqG11NEIq+fLrxXtbH3zkoeEiUlpaOmXaLG15ytk0EZn4/JNaDKSlZ0yZNis9I/OB4Xf36d3d1sbm9Vcm7v7jz9zcvAs2q7xhPeLr463dvxATG19xuXb2ICIxsUddXV22bNvRq0c3ETlx8rQ2EbJj1x8icl3XTh/NeMfGxnDixKn1m7Z1bN+2bZtW991zx/ETp5Ys/Snq70biL1m5FncaQC2pHxGyacv21LQ0LUKMJtP3y3+2rHKwt+/Xt5dWnjJt1trfNolIdHTc2l+/d3N1cXFx7tunx48rVlVts+YbLli0TLsROSsr50ru5RXRIurcUT465p8REtX8/PK44ydOzZv/rRYhCxYtsxzubQyGVyc/b2NjSExKGf7g2PyCAi9Pj41rfxCRnt27LFn6U8XGL1m5VnYXQK2qHxFSjcBAf1tbW628/+BhrVBUXBwfn9ChfVsRaRoW8h83nPbBnCs2/CvOcqJgudak0Y7+hUVF2uxOpfMJTaeO1zbxaywiS5evyC8oEJGiomJtlY2NjWWrouLi4ydOde3cofrKABqeev90usHw9y4YjSZLuazMeK6C3nB5N6xfKpxt/OMsRDv6x8UlaLMUWqKYTKa4uARLndCQIK1w8tSZ81tFaIXYuKOWxrVGLlkZQMNTbyKkvPzcfKxe948xJyWfLS8v18qRzcK1gsGgDw8P1coXu9m05hveefvgu+645a47bnF3d7sMe1K7tON4pZtunZwctUkgyzlHRHiYiOTm5ZeUllqq5ecXaAXtXgY7O9snxowSkTKjcfmPK52cHIMC/eX8+U31la/wXgKwjnpzhSEv79zMtoOD/T13DUlIOG40mvYfPJyXl797z59du3QQkWeffuzsy2lp6RmPPjzC18dbRMqMxk1bfr9IgzXdcPKkcdodWQcPH7E86lgvuLm5agf0ijfdikhUZDOdTici0ecjRLvo5OnhvnHtD0VFRcMfGJOZlb11+868/HxXF5dnnny0S+f24U1D/Zv4mc3md6fMPHU6sf21bSo2Un3lWt5xALWj3kRIYlLKqdOJ2nfnlyY+IyLZ2Tm9+w8RkSnTZ30zf7azs1Nk84gflnxZcas5n35ZzXMJyhvWFxebCKm6/MNZn7760vjw8FBPD/fy8vLMrGwRyc7JHfPkxMkvPNsiqlnP7l1F5GjC8Zmz523euqNqI9VXBtAg1ZsIEZFnJ7wy8fknr2nVwsnpH7/bkXDsxPAHx4x/9onrunbUn/8NxzOJyXPnffXzyjXVNKi8YX2xe8++tp2ur7p84aJlCxf941nOv47E3jPi0ao1D/0Vfe/9o708PRo18snMzK74K1hVG6mmMoAGSTdy9IT9+/ZcumJ94OLsHBwcYGtrm56ekZiUUgsbAsDVrD6dhVxSfkHBJX/R5PJuCABXs3pzRxYAoK4hQgAAiogQAIAiIgQAoIgIAQAoIkIAAIqIEACAIiIEAKCICAEAKCJCAACKiBAAgCIiBACgiAgBACgiQgAAiogQAIAiIgQAoIgIAQAoIkIAAIqIEACAIiIEAKCICAEAKCJCAACKiBAAgCIiBACgiAgBACgiQgAAiogQAIAiIgQAoIgIAQAoIkIAAIqIEACAIiIEAKCICAEAKCJCAACKiBAAgCIiBACgiAgBACgiQgAAiogQAIAiIgQAoMim9rt0dHDw9HTXyknJZ//Vtv369ho4oK+I/Hng0ILvll32+gCAmrNChPTu1e29t17Vyp26DygtLav5tmGhwf1v6C0iJpNpgVw6Ev5t/atcUKB/xw7tRGT777tT09IvS00ADZgVIuS/KCgoPJuaJiI5OblXon4D88qLz9044HoRuf+hJ46fOHXJ+oMHDXj80QdEZNCQ+y5XTQANWN2NEDs7W7NZysr+cY6ycPHyhYuX17yR6uvb2tra2toUFhapj7Jua9e2tauLS0lJ6anTZ2pS32w279q9t6S0NDEx+XLVBNCA1ZUIueuOW0YMGyoiW7bvXLd+84TnnmjTuqXZbN6778Brb75/JjGparVpH8wRke8XfmZna1u1wbXrN8+eO79qfRFxdXEe9dDwAf2uD/D3E5HCwqJde/Z++vk3R6LjKrawbNF8G4NBRJ4Z//KJk6ev3L5fIfb2dmGhwSISf/SYyVSuLYyKjNDr9Tm5eUlJKR2ubdPEr3FsfEJcfIK2dtOW7Vu27cjJzRMRd3c37f2pqLCwSHsrKtbU6HS6Nte0DA4MyMsviI07mpzy72a5ANRHdSVCPDzcQ0ODRUSn19971xA7OzsR0el0HTu0e++tV4Y/OKZStZi4o9qS0JAgrXIlPj5eF6zv5enx1eezgoMCLDWdnByv792jR/euL0x+87cNWyzLw0KDDQaDiNjbX6D9ui+yeYQ2/ujYc9Ho7u62+Nt5IvLbhi0B/n4topqLiNlsfvWN91b8ssay9qtvF0//cO6wu28fM/rBSm2uXrth0uQ3K9UUkW5dOr784nOBAU20aiaTafHSn6ZMm2U2m2tnZwFYRV2JEIuQ4MBDf0UvXvJji6hmw4cNFZHWraJaRDWPjom7YP23p3yonSuISHh42LC7b9fK0dEXrj/x+Se1/EhLz5gybVZ6RuYDw+/u07u7rY3N669M3P3Hn7kVvlnXa1pCiEhMzLn4bBHZTCv069tr1+6927bv6tG9i06nu23wwBW/rLGsjYk9KiJ5+fnr1m/WllzXtZOzs5OI7Nqzr2I7Ws3runb6aMY7NjaGEydOrd+0rWP7tm3btLrvnjuOnzi1ZOlPtbOzAKyizkVIQUHhmKcm5uXl//zr2t69umtfbIODAi4WIT/89KtWCA4KePzRB7Xyp59/s2TZiqqVHezt+/XtpZWnTJu19rdNIhIdHbf21+/dXF1cXJz79unx44pVWoUFi5YZ9HoRycrKuXz7V3ssB3rLWYglVObN/2bWnPkisnPrKkcHh3KzueJa7a1e8N2yBd8t0+v1L4x/ytnZyWw2T/9w7vIfV1aqaWMwvDr5eRsbQ2JSyvAHx+YXFHh5emxc+4OI9OzehQgBGrY6FyGHDkfn5eVr5bT0dC1C3Fxdqt/Kv0njeR9P1y5efbPw+9lz51+wWmCgv+35iZP9Bw9rhaLi4vj4hA7t24pI07AQS2XL3Ek9pR3ojUZT/NFj55c0E5HS0tL5X30nIi7Ozo4ODiJyNOG4ZW1hUZFl4sfB3v69t1/t0+u6kpLSya+9bTkpqViza+cOTfwai8jS5SvyCwpEpKioWKtmY1Pn/u8CcHnVuX/k2Tl/f+U3GU012aSRr8+8j6f7+TUSkSXLVkyd8fHFahoMfz+Nb6zQeFmZ8VwFveHfDrhusrGxCQ8PFZFjx09YnryJimwmIkei47Sb0CIjI7TlMbHxlrVxcQnaBIaXp8dHM95p3SoqJyf3mecn/3ngsKXxijVDQ4K0hSdPnTm/9lyzsefnnwA0VHUuQv4tLy/PeR9PCwz0F5EVK9e89e6MaionJZ8tLy/X6/UiEtksfMeuP0TEYNBrR1sRsdz6JSJ33j5Yr9OJyNr1m+vdYyXNIpra2tjI+XgQEScnR20SKPr8EsuxPjom3rJWqx8SHPjxh+8FBvqfSUwe+8ykkxVuSKtUMz+/QFvu38RPROzsbJ8YM0pEyoxG7aoXgAasfkeIs7PTp7OnafdcJRw78fPKtR3bt9VWpWVknqxyJ25eXv7uPX927dJBRJ59+rGzL6elpWc8+vAIXx9vESkzGjdt+d1SefKkcdodTQcPH6l3EaJdaxKR6BhLYDTT6XRSIVRaRDYXkdLS0mPHTrRp00pbqwXM9ClvaKns4uw096MpWv0vv1m8+PsfLe1oNbdu35mXn+/q4vLMk4926dw+vGmofxM/s9n87pSZp04n1uIeA7CC+h0hgQFNmkWEaeXwpqHzPp5mWbX8p5Wv/29q1U2mTJ/1zfzZzs5Okc0jfljyZcVVcz79ssE8zVBpblzOX32quuRownGjyVRxrYO9vWVOyMPD3cPj3A+aJSenVG0nOyd3zJMTJ7/wbIuoZj27d9UanDl73uatO67sHgKoA+p3hChIOHZi+INjxj/7xHVdO2pXtETkTGLy3Hlf/bxyjXXHdhm99e6MStf0Fi5atnDRP34lbOiwhy+29touN1ys5artHPor+t77R3t5ejRq5JOZmc1PZgFXD93I0RP279tj7WFYgYuzc3BwgK2tbXp6RmJSirWHAwD1z1V3FmKRX1Bw5CKPHwIAaoI/OQUAUESEAAAUESEAAEVECABAERECAFBEhAAAFBEhAABFRAgAQBERAgBQRIQAABQRIQAARUQIAEAREQIAUESEAAAUESEAAEVECABAERECAFBEhAAAFBEhAABFRAgAQBERAgBQRIQAABQRIQAARUQIAEAREQIAUESEAAAUESEAAEVECABAERECAFBEhAAAFBEhAABFRAgAQBERAgBQRIQAABQRIQAARUQIAEAREQIAUESEAAAUESEAAEVECABAkU3td+no4ODp6X7BVaWlZekZmSLSr2+vgQP6isifBw4t+G5ZrY4PAFAzVoiQ3r26vffWqxdcdfDwkfsfekJEwkKD+9/QW0RMJtMCIUL+k8AA/8jm4W6urqKTn39Z06RJ444d2onI9t93p6alW3t0AOoxK0RITRQUFJ5NTRORnJxca4+lfhv/7NgRw4bqdDoRycjM+uGnXwcPGvD4ow+IyKAh91l7dADqNytHyPQP5xhNJsvL9PRMrbBw8fKFi5dXv62dna3ZLGVlZRerYGNjY2trU1RUfFmGWh+1uabl/ffdJSIrV63buHl7dnaOiJjN5l2795aUliYmJlt7gADqNytHyHdLfigtvUAG3HXHLSOGDRWRLdt3TvtgTqUl69ZvnvDcE21atzSbzXv3HXjtzffPJCZZtnVychz1wH0DB/QNDPQXkdzcvA2bts3+ZH5q6t8XbZYtmm9jMIjIM+NfPnHy9BXeS+to3iz89tsGaeU16zampWccP3FKRDZt2b5l246c3DxtVVRkhF6vz8nNS0pK6XBtmyZ+jWPjE+LiEyo21bJF87DQ4JKS0uiYuMSklFreEQB1lpUjpEkTv7LSUsvLnNy8goJCEfHwcA8NDRaRmLij2irLEp1ef+9dQ+zs7EREp9N17NDuvbdeGf7gGK2au7vbl/NmNg0LsbTp5uY65Nabevbo+sCoJ0+fOZc0YaHBBoNBROzt7WphN2ufg739om8+0fY2qNB2AAAgAElEQVRRRGZOf1tEBt02LN+ucPG380Tkq28XT/9wrru7m/bytw1bAvz9WkQ1FxGz2fzqG++t+GWNiLS/ts1rLz2vvfMiYjKZvvxm8czZ86yyUwDqGivf1Lti6derViyy/Dfk1psuuUlIcGBsfMLLr72z4Lul2pLWraK0Y5+IjH92rJYf+/Yfum3oyF79btMuiHl7eb7x6qQrth91jpeXx4ZN28xms4ikpKSuW7951Zr1iUkpLSKbaRViYo+KiOVlv769cnPztm3fJSI6ne62wQNFpP21bT6Z9X5oaPDOXXv/7833V61ZbzAYRj14X/dunayyUwDqmjo6nV6NgoLCMU9NzMvL//nXtb17dQ8MaCIiwUEB0TFx9vZ2A/tfr1V78+1p2hWqqTNm33HbzQ4O9u2vbRMQ0ESbAFiwaJlBrxeRrKwc6+3KFZSUfHbqjI+1u9p+WbXuo48/05ZbsjY6Jq7iy3nzv5k1Z76I7Ny6ytHBodxs1uv1b7w60c7OLib26NhnJppM5avWrL/pxhtEpFPHa7fv2FP7OwWgrqlb0+l79x245CaHDkfn5eVr5bT0dC1C3FxdRCQoMEC7wCUiPyz5suq24WEhWoRo8ysNW4uoc2cYWlpUXFhYVKTlq/aytLR0/lffiYiLs7Ojg4OIHE043rF926DAABGJiozYt3N9xZb1ep5IBSBi9Qi52HR6NbJz/j5vMBlNFVdVPLQVFhVV3dYSMFeDv084YuMtC6Mim4lIXFyCdo1Le3kkOq6wsEhEIiMjtGoxsfGW+aRNW37Pzf3HrdVbt+284qMHUB/UvwtZ1UhOTikvL9eC5M57HkpKPnuxmnfePliv04nI2vWbG+qjJ9oZRm5evuXmXScnx+CgABGJiY2v+NKSMVHnIyQ6Jt5yErNqzW+r127Uyi7Ozi1bRu7Zu7/2dgNAHdagIiQvv2DHrj+6d+ssIi9NGvfya+9k5+SKiKeHe9/re/bt3eOJcS9oNSdPGqfdrXTw8JGGGyHN5XxaaKIim2nPGGqZYXlpqdMisrmIlJaWHjt2IiMzs7CoyMnR8dWXxnft3LG0rCwkKLBd29YrVq7ZvWdf7e8OgDqoQUWIiLw3bdY3n89yd3fr2b3r+tXLU9PS7GztfHy8RCQp+Sp6oMHLy9PXx1v+ORESFfmP2ZFKLy1LjiYcN5pMGRlZY5+a+MKEZ6IiI7TnS4xG08HDR1av3VCL+wGgTmtoEXLy5OlhIx977pkxvXtdZ2tj49/ET0TMZnNMbPyadZusPbrak5mZ1bbT9ZUWLly0bOGiZRd7KSJDhz1c8eWfBw7fM+JRTw/3Ro188gsK09MzSkpKBQDO040cPWH/vgZ4g6aDvX1ISKCDg0N2Tm5aWro2XQwAuIwa2lmIRXFJSWxcwqXrAQBUcYM/AEAREQIAUESEAAAUESEAAEVECABAERECAFBEhAAAFBEhAABFRAgAQBERAgBQRIQAABQRIQAARUQIAEAREQIAUESEAAAUESEAAEVECABAERECAFBEhAAAFBEhAABFRAgAQBERAgBQRIQAABQRIQAARUQIAEAREQIAUESEAAAUESEAAEVECABAERECAFBEhAAAFBEhAABFRAgAQBERAgBQRIQAABQRIQAARUQIAEAREQIAUESEAAAUESEAAEVECABAERECAFBEhAAAFBEhAABFRAgAQBERAgBQRIQAABQRIQAARUQIAEAREQIAUESEAAAUESEAAEVECABAERECAFBkY8W+w5uGBgcF2NjY5OTkpqalnzx1xmw2W2sw/fr2Gjigr4j8eeDQgu+WWWsYAFCPWCdCrm3b+rWXJ4SFBldcWFhUtHrthtf/N9UqQwoLDe5/Q28RMZlMC6ShRYiXp4etnW1uTl5RcXGtdRoU6N+xQzsR2f777tS09FrrF0CtsUKEBAb4z5n1vqODQ6XlTo6OEeFhtT+eBszZ2WnM6AcHDxrg6eGuLcnIyNy5e+9Lr75dC73ffFP/MaMfFJGbhwyvhe4A1D4rRMjQOwZr+RETe3TqjNlnEpPd3V2DAgN69ejq7e1VzYZ2drblpnKjyXSxCjY2Nra2NkVFF/2irdPpnJ2cSstKS0vL/ssu1KQvCzs7W71OX1xS8h97/LdsbW0/nzujRVRzESkzGkuKS1xcnL29vfwaN6qdAWhd5+Xnn0lMqp0eAdQy65yFaIVlP/6yZ+9+EUlOORsTe3Td+s0Vq911xy0jhg0VkS3bd27dtnP8s2Mjm0eYTKYdO/94e8oHiUkplppOTo6jHrhv4IC+gYH+IpKbm7dh07bZn8xPTT138eSa1i2eGjOqWbNwTw93nU4nIhkZmdt+3/3xJ1+knE292DhDQ4Le/d/LWtotWLRsybIVNemr4rDXrd/84oSnW7aIjI07evfwR0Vk2aL5NgaDiDwz/uUTJ09flvfzYm6+qZ92EJ8+c+6ChUuNJpOri/N13Trb2dlZ6kRFRuj1+pzcvPT0jG5dOtnb2/154JBlXyxatmgeFhpcUlIaHRNX8Z13cXZu1qxpI18fR0eH7OzcIzGxFbdtEdlMRGJij2ovvb09GzfyFZGsrJzklLPVt2wZWHLy2Y7t2/r7+61Zt7EmgQ2gNlkhQtIzMrXCww8MMxqNu/f8ecFvqR4e7qGhwSJisDEMu+cOWxsbETEYDD26d/ni05l3DX8kJydXRNzd3b6cN7NpWIhlQzc31yG33tSzR9cHRj15+kySiAQHBXTp3KFi497eXrfdMrBrlw5Dh43Kzc2r2ntYaPBnc2b4+HiJyCeffa3lR036sgy7uKR06B23ODk6ioiWW1qzBoNBROzt7ar0eZlZxnn06DHt1C0vv2DNuo2WCu7ubou/nScim7fuiAgPC/D3E5Gi4uIJL7y+dftOrU77a9u89tLzoednrUwm05ffLJ45e56I2BgMG9Ysr7gjJpNp9idffP7FAhHx9HBv3NhXRKJj4kSkc8drp733upub674/Dz7/wv9V37JlYKvWrG8aFhLZPMJoNK1c9dsVe6sAKLLCTb1r1m3U7rxq4tf4tcnjV/64YOuGnz+c+r/+N/S2HGorCgoM2LZ952NPjH/z7ekFBYUi0rix7+iH79fWjn92rHas3Lf/0G1DR/bqd9vCxctFxNvL841XJ2l10jMy53z65b33P3b9gNu79rpp2MjHjiYcF5HGjXxvv21Q1R6bhoV8PneGj4+X2Wx+f/rsjz/5ouZ9WURFRohZFi35Yc6nX/6x78B/f9/+rdOnE7XCxzOn/LDky4nPP9nmmpYVK2hnCSLSq0fXw39FL13+s9FocnRweOXF57Tl7a9t88ms90NDg3fu2vt/b76/as16g8Ew6sH7unfrJCJNm4YePHzko48/f+X1d9+b+tGZM0kGg+GJxx5ysLcXkajzjUfHxN8x5OaPP5ri5ua6aMkPj455LjMzq/qWLQMb0K+Pl5fnH3v37/3zQFnZf732COCys8JZyJ/7D7039aNnnhptmVF3c3Xp07t7n97dt2zb8dSzL1Wqn5WdM+HFN8rKykT2urq6jHtqtIj079f7/Rmz7e3tBva/Xqv25tvTtEtDU2fMvuO2mx0c7Ntf2yYgoEliYvKu3ft27d7n4e4WGhLs7OJk0OuPRMdqU/etW0ZV6i4oMOCzuTO8vTxNJtMbb0/7ccUqbXkN+7K0YzabRz0+7kh0XMXGFyxaZtDrRSQrK+e/v5PV++mX1f369u7apYOINA0LaRoWMvzeO5csW/HWuzO0CtplLhH5cNa8L77+TkRcXV1u7H9948a+3t6eWVk5b7w60c7OLib26NhnJppM5avWrL/pxhtEpFPHa7fv2BMXn/DI488G+Pt5e3vZ2dru3L13aKC/wWDw8vJISj7bIupcDNzY//o+va4rKSl9+X/v/rxyjYjo9frqW7YM7LcNWya/9g7hAdRZ1rmp97slP/y6Zn3fPj06tm/Xrk0rbV5BRHr16DZwwPWr126sWPlIdKzlILL/4GGt0LiRr729XVBggOXK/g9LvqzaUXhYSGJickhw4CsvPd+xfduqZzmuri6VlrRqGakV3p36kSU/RKSGfVleHj4SUyk/RGTaB3OqbniFlJaWPfbk+LZtWvXueV23Lh1atogUkbvvvHXFz6sP/RUtItpRvri4ZOHiczcxFxefm/PX6/Qd27cNCgwQkajIiH0711dsWa/Xi8idtw9+bNRI7WpVhU5Lz6amSYWzkD69rhORJ56ZpM17icglW9YGZjKZ3n1/JvkB1GVWe7QwJyf3h59+/eGnX0UkKjLioxnvNPL1EZE2rVtWihCj8e9bsIxlRktZr9drRxxNYVFR1V60g/7M6W+HhgSJSFJyyo6dfxQXF0dFNuvQvq2I6KuEitls1pJm2N23/7Z+c2ZWtqW7mvRlkZJy0Yn62nTg4F8HDv41c/a8ic89MXzYUBHx9/c7HyHNRSQ55WxJSalWOSoyQkQyMrPS0jNuuL6ntnDTlt9zc3Mrtrl1286bbrzh1ZeeF5F16zev37i1uLj4tZcneHq4H004bjKVWxo/ezbNy9vT1sbm3rtvt0SIZZLmgi3L+fiJjom3vPkA6iYrRMi17a5JOHai4iR2TOzRAwf/0p7ss6syzxwRHqbT6bTpk2bNmmoLc3Jyi4qKk5NTysvLz30pvuehpOSzVbsLCw3W8qO8vHzY/Y9l5+SKyLNPP65FSFWbtmx3dnbu3PHapmEhn348fdTj47R5+5r0VZHpQjcf33n7YC201q7frDV7hdwyaEB4eOjyH1eeOp0oIq6uLi3Pn13FxSeIiJOTY1Cgv4h4eLjb29uVlJQOHtQ/snmEiCxctFxELA8hrlrzmyXUXZydW7aM3LN3/4dT/yci5eXlkya/YTKVd2jfVnv0RDvxsjS+cfO2M4nJ458d269vr4dGDtMul1XfspOTY3BQgIj8FR175d4fAJeFFSLk5pv6DR40YNPm7bt27zt5+ozZbG7XprV2uUNE4uKPVaof4O/31NhHFixaGuDfZPSoc7PoW7fvEpG8/IIdu/7o3q2ziLw0adzLr72jJYSnh3vf63v27d3jiXEvlJ6/EqLX6318vLJzcptFNL3jQrPompKS0hdfeWvenOnXtGrRLCLs09nTHhnzbF5efk36uuS+T540Trsj6+DhI1c0Qtq1bT30jlseGjksIzMrP7+giV8j7SRp+Y8rj584JSJRkc20ky1XF5dli+ZnZeW0bhUlIidOntaua237fVdhUZGTo+OrL43v2rljaVlZSFBgu7atV6xcs3vPPi0G9Hr9xx9OSUpJ6de3t9ZvdEx8xcajY+N/XLGqQ/s21/fu8dTYUUdiYnft3ld9y39vW+UyIIC6xjoXshwdHG668QZtBrWis2fTVq5aV2lhVnbOqAfvG/XgfZYlRcXFn3z2lVZ+b9qsbz6f5e7u1rN71/Wrl6empdnZ2mk34yYlp4hIYmJywrET4U1DRWTRt/My0jMbN/bNzMyqZnhFRcVjn570xacfRoSHRUVGzP3o/dFPPF9QUHjJvuqOw0dioiKbtWoZ6e3l6e3lKSLp6ZnfLPz+6wVLtAqW6e7X33r/qbGPaDdr7dq99+XX3y0sLBKRjIyssU9NfGHCM1GREdp9a0aj6eDhI6vXbhCRz774tn27No0b+3bt0mHvvgNLlv70yEPDRSQ6Nk7+cTtWnIi88vp7i7+NCPD3e++tV4fd/1hyytlqWv5721giBKjrrBAhK39dZ2drd123Tr4+3paFRqNp2/adU2bM1m7brWjX7r179x0Y99Rjzs5OIpKUnDL5tXdOnb9j9eTJ08NGPvbcM2N697rO1sbGv4mfiJjN5pjY+DXrNml1np/02ntvvRLZPMLWxsbHx3vR9z8mJaU8P25MNYPMzc17/MkJX372UWBAk9atoubMnPLYk+Nr0lcdoc0z2dvb+fh4u7m65ubmVnxwT0RaRDYXkbKysl9X/fbr6vVNw0Kyc3IqPVT454HD94x41NPDvVEjn/yCwvT0DMusydGEE4OG3BcSHFhUVKRd0/vo488sGy5ctGzhor9/ZywvL3/QbcNq2HKlbQHUZbqRoyfs37fHKn27u7t5e3m6uboWFRedPHmm0k+APPrwiCfHjBKR1Ws3TJr8pr29XXjTUKPRFH/02AV/0NfB3j4kJNDBwSE7JzctLV37Km2h0+kC/Jt4erifPH3mgs8S/ivV91UvLP1ufrOIsOiYuHvvf8zaYwFQX1nzx95zcnJrPh9QUlJa9R7ZiopLSmLjEi621mw2n0lMulw/1lR9X3WfnZ2t9jPJ2tQFAKixZoTAWkwm0y13DBeR3Nx8a48FQD1WdyMkOeXsH3v3i8ix4yetPZaGxmQqv+RNyQBwSXU3Qn75dd0vv1a+OwsAUHfwt9MBAIqIEACAIiIEAKCICAEAKCJCAACKiBAAgCIiBACgiAgBACgiQgAAiogQAIAiIgQAoIgIAQAoIkIAAIqIEACAIiIEAKCICAEAKCJCAACKiBAAgCIiBACgiAgBACgiQgAAiogQAIAiIgQAoIgIAQAoIkIAAIqIEACAIiIEAKCICAEAKCJCAACKiBAAgCIiBACgiAgBACgiQgAAiogQAIAiIgQAoMjG2gPA5deokZ+Hl5eDg6Nez1cE4OpVXl5eXFyUnZmZmppyhbogQhqa8GaRrq5u1h4FAOvT6/VOTs5OTs6u7u4J8bFXpIsr0SispVFjP/IDQCWurm6NGvtdiZY5C2lQPDy9tEJS4pm01BSz2Wzd8QCwIp1O59vIzz8gUEQ8PL1Sz17+y1mchTQoDg6OWiEtNWXqu6/5+npbdzwArMXX13vqu6+lnZ8FsRwcLi8ipEGxzJ+bzeb3ps5KS8uw7ngAWEtaWsZ7U2dZLkVcoZtriJAGKzUt3dpDAGBNtXAQIEIAAIqIEACAIiIEAKCICAEAKCJCAACKrPlooU6na+LXSCubzZKccrZShX59ew0c0FdE/jxwaMF3y2p7fACAalkzQrp16TjnoymWl8MfGHP4SEzFCmGhwf1v6C0iJpNpgahHSIC/3xOPPywiJaWlr/9vqnI79aVfAKgd1ryQdevgG6t5eRm5u7vdfFP/m2/qr53T1Bpr9QsAtcNqEeLs7HR97x4Vlwwc0NfG5hJnRXZ2tjYGw8XW2tvbOTs7/ZdR2dnZOtjbV1yi0+lcnJ3t7Gyr39Bg0P/HrgGg3rHahawB/fo4ONiLyMFDR1xdXcJCg93d3fr0uu63DVsuWL9zx2vHPzs2snmEyWTasfOPt6d8kJh07rdfnJwcnxwzqv8NvRv5+oiI0WhKTkmJjol/f8bs1NT0d96c3K5ta62mo4PDT99/pZWfGf9ypw7tRgwbKiJbtu9ct37zixOebtkiMjbu6N3DH72mdYunxoxq1izc08Ndp9OJSEZG5rbfd3/8yRcpZ1Mto7K3txtx3103D+zXNCxEp9OVlZXFxiXMnjv/9517qun3xMnTyxbN17JQe3mZ31wAqBVWi5Bbbz532WrV2g1uri5jRj8oIrcMGnDBCGnVMvKGvr1sbWxExGAw9Oje5YtPZ941/JGcnFwReev1l/r2+fuExsbGEBQYEBQY8MXX36Wmpjdp0ti/yblfOdbpdKGhwVrZ3t7Ow8Nde1lcUjr0jlucHB21OiISHBTQpXOHimPw9va67ZaBXbt0GDpsVG5unoi4ujh/NveDqMgISx1bW9vWraKiIiN+37mnmn5FJCw02GAwWF4CQH1knQgJCGhybbtrRKS8vHztuo3OLs5ahPTo3tXTwz0rO6dS/aDAgI2bty1a8mNggP9zzzzu7OzUuLHv6Ifvf3/GbBuDoXfPbiJy5kzS409NSEvLaNTIp1lE0759epaUlIrIl18v3tv64CMPDReR0tLSKdNmaW2mnE2ztB8VGVFYWLRoyQ9Z2Tnu7m4ikp6ROefTLzdv3XH2bGpRcXFYaPCbr70QER7WuJHv7bcN+uqbxSLy/LixWn6UlpZ+/uXCnbv2Ojs7duvaqaiouIb9AkC9Zp0IuWXQAO3L/t4/D6ZnZKZnZMbGHY1sHmFjY7hpYL+FiyrffJWVnTPhxTfKyspE9rq6uox7arSI9O/X+/0Zs8vNZqPRZDAYHJ0cW7WMio07evp04qnTies3btW23bRle2pamnYoN5pM3y//uep4zGbzqMfHHYmOsyzZtXvfrt37PNzdQkOCnV2cDHr9kejYiPAwEWndMkpE7OxsBw3sp1WeOfuzbxZ+r5W379hTk34XLFpm0OtFJCurcl4CQH1htQjRCqvXbDhXWLshsnmEiNx6841VI+RIdGxZWZlW3n/wsFZo3MjX3t6upKR089bfB/Tr4+3l+d5br4iI0Wg6EhP704rVS3+4QFpc0OEjMRXzQ0RCggNfeen5ju3balFXkauri4gEBwVYrkFt2Lythh1ZTPtgzr/dBADqGitESPtr2wQG+mvlB0feM+ye20XE0fHcn0NpEdUsIjz0aMKJipsYjaa/y2VGS1n7BfzX/zc1LT3jxn7X+/h4iYiNjaFN65ZtWre0s7NduHh5TYaUkpJaacnM6W+HhgSJSFJyyo6dfxQXF0dFNuvQvq2I6HU6EdHr/74xrKy0rEZ7DgANixUi5JabB1jKQYEBF6owcMbMuRWXRISH6XQ67W+nNGvWVFuYk5OrzTrkFxRMmTZryrRZXl6eoSFBgwbecNcdt4pI/359tAgpLz//R1d0F76J2WQyVXwZFhqs5Ud5efmw+x/LzskVkWefflyLEE1SUorJZNKmxDt1bLdy1W9Vm62m3ztvH6xF0dr1m7WbAgCg3qntCLG3txtwQx+tvHX7zrT0v/+sXkATP+0mqME39f9w1qfl5eV/r/L3e2rsIwsWLQ3wbzJ61P3nN9+lFcY9NXrz1h0HD/2VmZmVmZnl6uKsRYiz07kzm7y8PK3g4GB/z11DEhKOG40mywWxqkrPXzTT6/U+Pl7ZObnNIprecduginXyCwp+37mnZ/euIjL+2SdKSkp37trr6OjQpXN7o9G4eu3G6vudPGmcFj8HDx8hQgDUU7UdIX379HRxcRaR4uKSiS+9UVhYZFnl7e25buX3BoPBx8erW9eO23/fbVmVlZ0z6sH7Rj14n2VJUXHxJ5+de9Li9lsHPTRyWHl5eUZmlslo8jv/u1ubt+7QColJKadOJwYHBYjISxOfEZHs7Jze/YdcbJCJickJx06ENw0VkUXfzstIz2zc2DczM6tStXff/6hVyygvTw8vT49p771uWf7hrE/V+gWA+qW2n063/IrJ5q2/V8wPEcnIyPpj7/5z1W7+x4+d7Nq99613ZxQUFGovk5JTxj496dTpRO3lvv2H8vML9Hq9r4+3lh+FhUXfLlz6yWdfW1p4dsIru/bsq9RjNZ6f9Fps3FERsbWx8fHxXvT9j19+s7hSnTOJScPuf2zNuo2WqX6t67Opf9+2+2/7BYB6RDdy9IT9+/ZYexg1Ym9vF9401Gg0xR89Zvmb8hrtR3/d3d0d7O1y8/JPnjpjNBov1k4N6XS6AP8mnh7uJ0+f0Z4lrGZgIcFBTo6OuXl5p04n/veulbVr30kr1JfPFMCVdkUPC9b8pd5/q6SktNKttxZmszkp+WxScuWfi/8vzGbzmcSkM4lJNRlYXHzCZewaAOoF/uQUAEAREQIAUESEAAAUESEAAEVECABAERECAFBEhAAAFBEhAABFRAgAQBERAgBQRIQAABQRIQAARUQIAEAREQIAUESEAAAUESEAAEVECABAERECAFBEhAAAFBEhAABFRAgAQBERAgBQRIQAABQRIQAARUQIAEAREQIAUESEAAAUESEAAEVECABAERECAFBEhAAAFBEhAABFRAgAQBERAgBQRIQAABQRIQAARUQIAEAREQIAUESEAAAUESEAAEVECABAERECAFBEhAAAFBEhAABFRAgAQBERAgBQRIQAABQRIQAARUQIAEAREQIAUESEAAAUESEAAEVECABAERECAFBEhAAAFBEhAABFRAgAQBERAgBQRIQAABQRIQAARUQIAEAREQIAUESEAAAUESEAAEVECABAERECAFBEhAAAFBEhAABFRAgAQBERAgBQRIQAABQRIQAARUQIAEAREQIAUESEAAAUESEAAEVECABAERECAFBEhAAAFBEhAABFRAgAQBERAgBQRIQAABQRIQAARUQIAEAREQIAUESEAAAUESEAAEVECABAERECAFBEhAAAFBEhAABFRAgAQBERAgBQRIQAABQRIQAARUQIAEAREQIAUESEAAAUESEAAEVECABAERECAFBEhAAAFBEhAABFRAgAQBERAgBQRIQAABQRIQAARUQIAEAREQIAUESEAAAUESEAAEVECABAERECAFBEhAAAFBEhAABFRAgAQBERAgBQRIQAABQRIQAARUQIAEAREQIAUESEAAAUESEAAEVECABAERECAFBEhAAAFBEhAABFRAgAQBERAgBQRIQ0WI18faw9BADWVAsHASKkQSkvL9cKOp1u0vgnfX29rTseANbi6+s9afyTOp1Oe2k5OFxehrYduqckJ12JplH73D08bW3tRKS8vPzHn1YWFBRae0QArKOwsGjd+s2+jfxc3dxEpKioMCM97bL3YnPZW4QVZWdlOjk5i4h/QKB/QKC1hwOgrsjOyrwSzXIhq0FJPZuSl5dr7VEAqFvy8nJTz6ZciZY5C2loEuJjGzXy8/DycnBw1Ov5igBcvcrLy4uLi7IzM1NTr0h+CBHSIKWmply5/2MAwIJvqQAARUQIAEAREQIAUESEAAAUESEAAEVECABAERECAFBEhAAAFBEhAABFRAgAQBERAgBQRIQAABQRIQAARUQIAEAREQIAUESEAAAUESEAAEVECABAERECAFBEhAAAFBEhAABFRAgAQBERAgBQRIQAABQRIQAARUQIAEARESEAQ18AAAXzSURBVAIAUESEAAAUESEAAEVECABAkY21B4Crmk6n94vs4hUUZevgbO2xNEBlxQWZp2NSYneZzeXWHgsaJiIE1uQX1aVxRAdrj6LBsnVwbtysg+gkOXqHtceChokLWbAmr8BIaw+h4eNNxpVDhMCabB1crD2Eho83GVcOEQIAUESEAAAUESEAAEVECABAERECAFDEcyG4etnZGJwcbAuKSstMfz95FxXi4+7iUFJq3B+fYsWxAfUCEYKrjk6ka+ug7m2Cm3i76HQ6EcnIKdwXm7x6V7zZLH3ahzUP8s7MLSJCgEsiQnB10et0D918baumjbSXZUaTXq/zdnfq3zl8/d5jpWUm6w4PqF+IEFxdbujYVMuPtOyCResOnUjJ1ul0fl4uPduFiPmiWzXydA70dbMx6NNzCk+kZJeX/13V09UhwNfNycG2uMSYnlOYkpFfbjZX2tBg0KdmFZxMyb6SewZYARGCq4hOpGe7EBEpN5u/XPlncka+iJjN5qT0vMW/Hb7gJk4OtsMHtGkR6mtZkplb9O2aAyeSs0VkULdmfTs21et0lrX741O+XrX/ghueTs354pc/s/OLr8zOAVbAHVm4ivh6Ors42olIUlqulh+XdP+NbbUY2BeXvHHf8eJSo5eb46O3dnBxtHNxtOvXKVyv0/1+6NSCtQdXbIvZH59SZjx3KWzEjW1ahPqWGU1rdh1dtvGv7PzioEbuo25pr6u2O6B+4SwEVxEnB1utkJ1Xo1OBRp7OkSE+IrIvLvnb1QdEJDEtd8SNbR3tbTu1CPjreKpWLTWr4ERyVmZukeUKViNP56gQXxHZuO/4ml1HRaSoxDhiYNsAX7fwQK+jZzIv844BVkKE4CpSVGLUCm4uDjWp7+d17gcKjydlVSo09nLe9GdBUnqev4/rkF4thvRqUWY0HU/OXrMz/nhytmXDAZ0jBnSOqNQmEYIGgwjBVSQtq6CopMzR3jbAx9XH3Sk9p7D6+paJcYNed75w7tpvebnZbJaPl+3u2jqwaYCXr4eTj7tT8yDvQF+31+dvtGx4LDEzI7eoYpuX7BSoR4gQXEXKzeYdh0/37dDUYNCPvKndt2sOpGYViIi7i33PtiFrdh0tM/7jr/udTs0xm806na5108Zb9580i7SJaHx+Va5BrzMYdBv2Ht+w97iIdGoRMKz/NU4Otl5uTpYNM3KLvlt3yNJgZLBPQiKnIGg4iBBcXVbvPBrq59E0wCuwkdsL9/fMLSjW6/XaHPva3QmVKufkl+z660zX1kERgV7jh3fPKyhpFuQtIhk5hXtjkpwcbF97+PpjSZnp2YUlZaaWYb4iUlpmyswtLDOW7/zrTLfWQZ1aBHi6OiSl57k62Qc3dvd2d3pp7m9GE3+GFg0EEYKri9FUPueHPX07NO3eJsjN2cHN2UFEikuNB+JTjMYLHNmXbTpSWFLWvU1wE2/XJt6uZrM55mTa9xv+KjWaDAZdWnZBeIBXRKC3Vjk9u/CHzUe0U5llm47kF5b2aBscEeitVSgqKdsfn0J+oCHRjRw9Yf++PdYeBq5S7W550oq9e7o6ODnYFRaX5eQXV3wesCqDXufr4Www6DJziyxz8hp7O4O7s4OtjSG/qCQnv6TShnqdzsfDydbGUFBUmlNQXG0nV9D+n2dZp2M0dJyF4OqVlVecVbO7e03l5pTMCz9HUlJqSi0tuNiG5WazNt0CNEg8WggAUESEAAAUESEAAEVECABAERECAFBEhMCayopr9HO5+C94k3HlECGwpswzsdYeQsPHm4wrh+dCYE0pMbvELF5BUbYOztYeSwNUVlyQeTomJXaXtQeCBuv/27FjEwCBAAiCH1iQCPYf2oIdfBdqD5s8wkwFly2chLDS+z7zvuZ9rR4CFI4sACIJASCSEAAiCQEgkhAAIgkBIJIQACIJASCSEAAiCQEgkhAAIgkBIJIQACIJASCSEAAiCQEgkhAAIgkBIJIQACIJASCSEAAiCQEgkhAAIgkBIJIQACIJASCSEACibYyxH+fqGQD8zwc9mgQUm3CzPQAAAABJRU5ErkJggg==;" parent="1" vertex="1">
          <mxGeometry x="30" y="459" width="242.1" height="282" as="geometry" />
        </mxCell>
        <mxCell id="TVynHAeKMUivycCZFWxq-5" value="" style="shape=image;verticalLabelPosition=bottom;labelBackgroundColor=default;verticalAlign=top;aspect=fixed;imageAspect=0;image=data:image/png,iVBORw0KGgoAAAANSUhEUgAAAlgAAAGGCAIAAAAo2GhJAAAAA3NCSVQICAjb4U/gAAAAGXRFWHRTb2Z0d2FyZQBnbm9tZS1zY3JlZW5zaG907wO/PgAAIABJREFUeJzt3Wd8FFXbBvB7+yabToD0QhKSAIYWeg9VHkRRRCkqyouKiChSVBRERQEFRGmC8uCDdAIIIiQU6VVqID0klBTSyxay2fJ+OGFYkxCSmBDCuf4/PpydOTNzzsxmr50zM4soJLQ3AQAA8Epc3w0AAACoTwhCAADgGoIQAAC4hiAEAACuIQgBAIBrCEIAAOAaghAAALiGIAQAAK4hCAEAgGsIQgAA4BqCEAAAuIYgBAAAriEIAQCAawhCAADgGoIQAAC4hiAEAACuIQgBAIBrCEIAAOAaghAAALiGIAQAAK4hCAEAgGsIQgAA4BqCEAAAuIYgBAAAriEIAQCAawhCAADgGoIQAAC4hiAEAACuIQgBAIBrCEIAAOAaghAAALgmre8GwBNIJpN5uLsqlUqRiPT6ksSk5PpuUS2ztVF5erqzcmJSsl5f0tA31BBVuHOwx6AGEIRQysnJ8a1xr7DyhUtREfv/qsFKRCLRx9Pee27oYIVCzqakpWc8PXRkrbXy8RDavs33333Fyi+8/HpiUkq9b+jfHz4rKyUrlJQYDAZDtdv6yFW4cx7ZoYEnCYIQStnZ2rw8YhgrS6SSmgXhmJHDX3rxuVptF1TJvz98p4/uZYUVq9auXP1rbTYO4PGGIITa1LtnV1ZIup7y4YzZhUVFJqOpfptUF+5kZu2LPMTKhUXqJ2BDADxDEEL1yOUydzfXkhLD7dS08nNdXJqywpWo6OSUm+UrONjbOTs7GQzGO5lZOt3dh25OoZC7u7kWFxenpmWUn2ujUjVt2vjOnSy1RiNMtLe3a+zc6E5mVtEDksPJ0cHW1kahUGi02vT0OyZTtaM6OiZ+xswvK6lQ3W4+aK8+dEPVVfnhqwo7O9vGzo0MRmNGxp3iYn3llSs/fJX794epQtU9NMADBCFUpke3zt98NZOVx/7fe/379npl1IsqlTUR3b6d9umceRcvRbG5n8x4f/CgvjYqFXs5ZHD/fn17EtHuPZHzv/uRiIYPe2b0yBea+XqzCkaj8eKlqJWrfz13/tIDNjdp0ICw0SOHW1tZRcfEjXz17b59esyZNZ3N/b+3p7z4/DPPDn1aJpUaDMbfd+/95tsfbG1Us2Z+2LtnN5FIZDKZ9kUemvPVd3eLi9kiri5Nv/lqZnN/P9Z+prhYf/T4qSVLV926XRoMm9at8vBwrXBvHDt++uPP5pZp5yuvT7SM/Op3s7K9WsmGqqKKG/r+uy9D27cRlho3dtSYUcNZediLY7Oyc0rLQwePHjk8wN+XvdTr9UeO/WPXVXL4Dh0+/torLxGRWq0ZMmyMcA1SLBbvCv+fg4M9EW3ZtuuHZaureJhqoCqHBviEIITKSKUSWxsbVv78s2lPtQwWZnl4uP2w6Ouhz4/Jyy8gIiulQqhJRDKZTCaTEZFSqSCi+XM/GzQgzHLNEokktH2bVW1Dvp7//dbtu8tv7oNJb3fv1omVRSIREclkUmHuF7OmBzb3F5Z6YdgQsVj8VKtgf7/Sj2mxWDx4UD+d7u4XXy9kU+zsbNq2fqpMBxUKef++vULbt3lpzPg7d7KIyMbG2rIjloTbSSzbKZHcfwapBt2sfK8+aENVVMUNWVtZWXZZLpfL5aX3OonEIlb4+otP/vN0f8uVy+Xy/n17derYfvyED2LjEqnSw7cv8tDEt98QiUS2NjY9unX668gJNqtLp/aeHqU3ee6NOEhVPkzVVcVDA3xCEEJVPdUy+OzfF/8+f6l3z64tggOJyM7W5umBfTds3k5EJ0//XVSkfm7oYPZFPjEp+czZ80R0OSp6xPBnhc+gK1ejt23fbW1lNf6NMY0aOYnF4o+nTz53/lLKjVtlNte9Wye1WnPp8tUSQ4mV0qrM3MDm/vsPHklMSn55xDBHB3siGvbsYCI6fPRkTGz8iBeGNmrkRERDhwz8dvEyNgJmNtPFy1F7Iw4lp9zMzMxSKhUdQ9tNemecXC53dLB/bfSIBYuWEdHOXfucHO2FDbVr2zo4KICV09LvVLJ/atbNyvdqLapkQwcOHU1MSh49crjQ+KioaFbWanRENHzYM0IKbtqyY8euP1Uq1bQPJgYHBdjZ2syfO2vYiLFlhi7LHL5bt9P+vnC5Q/s2RDRk8AAhCAcPKl1t1LWYhMTrVOXDVC01OzTADwQhVNXxk2cnTp5BROs2bD2yfyc7aWge4Mfm7o04uDfiYJ/e3VkQXrkaLXxg7diylhVycvPGvz2FjVVejY797b/LiUgikYwY/uyChUvLbO52avobb01+0Nf/P/cdYKOUGo126gfvsIlHj5+a/OFMIsrMyp49cyoRyWSyZr7e16LjiCg+IWns/71nuZLYuMQWwYFPDwwjovbtSscGf/7vb0KFzh3bv/jCUGHli75fUcn+GXnvps1qdbPyvVqLKtnQlvBdRCQE4YmTZ8vcNTrypdKunf374jff/sDKn82Zt23jL0Tk4+3ZtXOH4yfPWC5S/vBt37mHBWHP7p1tbW2KitRKhSKsd3c2N3zHH6xQxcNULTU7NMAPBCFUVfiO0uEjrVaXnZPr5upCRJYXciqkUlkLV2WOHT8tXLGLuhqTkZHp4tKEiJ5qFVx+wbX/21jJINif+w6yQlr6/bsw9uw9wAq3bqXeb4D1/RZ2DG37wrAhrVoEOTs3YmO2gkaNHMtsom2bp75f+BULjNNnzk+ZPttgNNZ6N2u2V2ugxhtSqayFAedGTo7z537GymLx/aHap1oFlwnC8ofvwKEjH02dZG9vJ5fLB/TrHb7jjz69u1tbW7EmCTfHUjUPU1XaX7NDA/xAEEJVWUaO8IMd7OpdJexsbYVydk6u5ayc3Dz2MWRvZ1d+wfjE65WsNis7mxVKSu7/dMidzNJPXrPZLEwUrnKNGP7szBnvP2iFMuk//hZatQha9v08K6WSiC5cvDL5w5mWGyqvxt2s2V6tgRpvyLJrfs18/Jr5lK/DRqctlT98en3JH3v3j375BSIaMnhA+I4/htwbbt0bcVC4gbNah6kqanxogB8IQqiqf/zaiEXSVE6tvv8MQ5mPS4d7L9VqDZWj0VQwseLGVDqRkUjEkyaMY+Wk6ylfzVt84+Yto8H40bT3nh7Yt0zl5gF+K35cwM6Woq7FTHz/I+E04kFq3M2a7dUaqPGGLLt29u+L5y9cLl8nOiauzJQKD9/2nX+wIGzbulWrFkGdO4Wy6eE7S8dFq3WYatD+ah0a4AeCEOpWkVpz63YquzOwe9dOUomEDTD6+/m4u7mwOtfKfYzWOmfnRnZ2pWcG4Tv/uHDxChGJRKLyV+N8fbx+WvYdqxwXnzhh0nStVvfQ9T8m3fw3jEajRCIhInYeLChSa27eSvXydCcik9FU/kdnmjR2zs3Lr8omEpNSrlyNDmnVQiQSzZv7qVQqIaK4+ER2EZeqc5iq7gk4NFDXEIRQ57Zt/+OD994ioqZNGy9Z9PXmrTusra3evffF32w2CzdK1J2iIrXJZGKXtQb263Ps+Gmj0fjmuFfLDPRZKZWrli90cnRgLy9dvsrOYJiUGzf3RT7wp8seh27+G3cys9iFw2HPDhZLxBqNNis7h7V5a/iuD9+fQESdO7X/9OMPNm3ZcScz297OrkVw87DePfqF9ej39PD8gsKqbGX7zj0hrVoQkfDURPjOPcLcKh6m6mrohwbqGoIQ6txvG7Z27RzaqWN7IuretWP3rh0t5y7/6b+xcQl13QatVnfwr2P9+/YiotYhLXdv/42ITCZTcspNXx8voZq1yqpJY2fhZZnfTf3ryPFKgvBx6Oa/sf/gkdfGvERE9vZ2r44eQUTRMXEsIdZv2tapQzv2XOCLzw998fmhNd7KvshD06e8y+6RIaK7d4v/3LtfmFvFw1RdDf3QQF3D/0cIdc5gNL7z3ozlP/23zADa9eQb0z6es+qXdY+mGXO++pY9ss3k5OZN+3jO3xdq7VdFHpNu1tjSFb/8+tvmtPQMY7mbY41G06QpnyxasiIjI9NyuslkiroWs2LVWrVGW8Wt6HR3LY/C/oNHiv55fa4uDlNDPzRQ10Qhob3ruw3AEV8fL+dGTgajMS09o2Y/EfIvOTk5ent56HR3ExKTjHX2g+D13s264+7m0qRJY5FIlJObl1lnP9dZd4fpCT40UGMIQgAA4BqGRgEAgGsIQgAA4BqCEAAAuIYgBAAAriEIAQCAawhCAADgGoIQAAC4hiAEAACuIQgBAIBrCEIAAOAaghAAALiGIAQAAK4hCAEAgGsIQgAA4BqCEAAAuIYgBAAAriEIAQCAawhCAADgGoIQAAC4hiAEAACuIQgBAIBrCEIAAOAaghAAALiGIAQAAK4hCAEAgGsIQgAA4BqCEAAAuIYgBAAAriEIAQCAawhCAADgGoIQAAC4hiAEAACuIQgBAIBrCEIAAOAaghAAALiGIAQAAK4hCAEAgGsIQgAA4BqCEAAAuIYgBAAAriEIAQCAawhCAADgGoIQAAC4hiAEAACuIQgBAIBrCEIAAOAaghAAALiGIAQAAK4hCAEAgGsIQgAA4BqCEAAAuIYgBAAAriEIAQCAawhCAADgGoIQAAC4hiAEAACuIQgBAIBrCEIAAOAaghAAALiGIAQAAK4hCAEAgGsIQgAA4BqCEAAAuIYgBAAAriEIAQCAawhCAADgGoIQAAC4hiAEAACuIQgBAIBrCEIAAOAaghAAALiGIAQAAK4hCAEAgGsIQgAA4BqCEAAAuIYgBAAAriEIAQCAawhCAADgGoIQAAC4hiAEAACuIQgBAIBr0vpuwENYKZWOjvasbDKZSwwlarWmuFhfv62qUL+wnoMGhBHRxctR6zeG19EiAABQux73IOzVs8v8ubPKTMzLL7gWHff77r0HDh01mUz10rDyfH28+vftRURGo3E9VSnVarAIwGPF08MttH0bIjpx8mxmVnat1AR4xB73IKyQo4N9964du3ft+Pf5S9M+npObl1/fLSIi0mi0dzKziKigoLDuFgHOffbxlIED+hCR2UwlJSVFRerklBv7Ig/ti/yrXtozZPCAt8e/RkSDnxtVWzUBHrGGFISLlqwgkahpk8a9unfx8HAjotD2bZYsmjv2/yYZjWXPC6VSqUwm1enuPmhtCoVcKpVqNNpKtiiRiJVKZeV1iEgul4lF4g2bt2/YvL3KvSEiqnwRmUwmk0m1Wl1VViWXy9gnY4VzH7o3oKFo07qVrY2N8LKRk6OPt2efXt379uk57eM5j749ZrP5zNnzxXp9amp6bdUEeMQaUhBu3LJDry8hou8WL5/x4bsvjxhGRCGtWgz9z6Adu/5kdaytrca9NmrQgDCWlIWFRYcOH1/205rMzGyhwrsTxvXv26tJY2ciMhiM6RkZMbEJ3y5eJtRRKORjRr34n0H9mvl6i0SikpKSuPikZSvXnDx9johefP6ZMSOHE9HRE6f3Hzzy8bT3WgQHxsUnbg3fJUxf+P0KtqqtG36Wy2Tl+xJ58MiylWssVyUsYmujGvf66AH9+ri7uRCRVqs7c+78ql/WRcfEC4uXacO0KRNDWrUwm83nL1ye/eW3t1PTqrg3mPBNa6QSCRFNnvppyo1b/+ogQV1SKOS+Pl5ElJB4fdYX8x0dHbp26vDyiGFSqWRAv96HDh/fG3FQqNwiuLmvj1dxsT4mNj41LaPMqloEN/f0cJfL5fn5BdeTU8pU8GvmE+DvK5PJMzLuXLkaXVysDwr0F4vFBYVF6el3Qtu1dnNzidj/l0539/DRE0ePnyooLCIie3s79qa1pNXq2JvKsiYjEolCnmrh5eFepNbExSemZ9wRZgmbS0vLaN82xNWlaVxCUnxCUvleVNJHgCpqSEEoMJlM8xcu7dqlo5enOxE9PagvC0J7e7u1q39o5ust1LSzs31u6NM9und+bdy7t26nEdHcOZ+E9e4uVJBKJZ4e7p4e7v/930YWD7Y2qp9Xfh8U6C/UkclkrVoGBQX6syB0cLD38fEiorvF+uHPP2NtZUVEIpFImB4bnygs6+PtKZfLy3fB2dnJclXCIk6ODr/+spT1i7G2turTq3v3bp0/mvnlgUNH2URhQZFY/PKLz7FNiESi0PZt5s/9bPTYCVXcG4yvj5dEIiEihaKCpsLjI7C5PztSV6Ki2RejEyfPFqnVE94cS0T9wnqyIGzXNmT2Jx+ydwgRGY3Gtes2/7BsNXvp7eXx3bzPmwf4Wa75/amf/nXkBBEFNvf7/NNpLYIDhVm/7963cMmKzb+tJqK9EQeb+XoHNvc3GIx79h6wt7dj03/9bfOiJStHjhjGWmJpX+ShGTO/LFOTiLp0Cv304yke7q5CIzdv+33BwqVms1mofODQUXc3l+Cg5kRkNptnfTF/1x8RrH7lfQSolgYZhERkMplOnjrr5TmMiALv/UlP/eAd9rl/4VLUnK++zcsveHv8a6Neer6Rk+MXs2a8/uZkqUTSq0cXIrp9O+3tSdOysnKaNHEO8G8W1ruHcCfqh++/w1JQr9f/snbD6TPnVSqrLp07lB9XDAr012p1m7bsyMsvsLe3q7CdXy9Ywk62iMjPz3fkiGGsHGNxemdp+ofvshTMys5ZsHBpdk7ua6NH9O7VTSaVzvls+tm/LxZafKEmIm8vj6hrMZu37AwOChg9cjgRtWoZFBzUPCY2/qF7o1o7HB4HLBKIKCb2/vvn5OlzLH6cGzkRUbu2IT8t/VYul58+c35f5KFOHds9PbDvuLGjzl+4dOLUOSL6aNp7zQP84uITN2/7XUSiZr5e/fv1jotPJKKgwID/rl5ibWWl1er27T+Ul1fQqUO72LiE4MAAtq0B/Xrn5uX/ff6S0WQqKSkJDgxh02PjEomoSK3ef/AIm9K1cweVypqIzpy7QETCGljNrp07/Lj4G6lUkpJy8+Dh46HtWrcOaTnqpeeTU25u2fa7ULlfWM8zZ88fP3Gme7dOIpHo2SGDWBA+tI8A1dJQg5CI8u/dYKKyURGRQiEf1L8Pm/Ll1wvZaMx3i5c9/+x/lEpFu7Yh7u6u6el3DAajRCKxsrZq2SIoLj7x1q3Um7dSD/51jC0ol8sGD+rHyj8s+3ndhq2sXOFfl9lsHvf2+8KI5fg3xpSvs+P30jFbL0/3t8ePZeVVv6zbEr6rfGWlQtEvrCcrL1i4NPLAYSKKiYmP/HOrna2NjY0qrHf3nbv2Wi6i0WgnTJpeVKTe/Wdkr57d2PdrL0/368kpD90bwqWa9ZvCJWIxEeXlFVS0p+FxISREtEUQSqWlf8V5+flisfiLWdPlcnlsXOI7k6cbjaa9EQefHtiXiDqEtmVvY28vTyIqKCxKTU2/cjVaq9V9u3i52WwWiURfff6RtZWVWq0Z9drbN27eZqtVKOSjXnqBlQ8cOjpz9jfCpegywbx+Y/j6jeFisfijqZNUKmuz2bxoycrtO/eUqSmVSGbN/FAqlaSmZYwe+45ao3FydPgrcgcR9ejWacu234XKq9esW7piDRGdPrbXSqk0mc1EVJU+AlRLAw7Cxs6NWIGdJLELHmzKji1ry9f38/VOTU0/cuzkgH69Gzk5zp/7GREZDMbo2Ljfd+3btmM3EXl5ugvDg4eOHK+8AVejY6MfcGJXhptr09XLF7Hh0HUbti5buabCah4ebrJ7FxQvXbnKCrq7dxMSktq3a01EluOcTNTVmKIiNStnZWezILSztani3mBl4fIkPOZYQhgMxoTE68LETh3ascLFS1Gh7Vp7ergTUVCg/4XTBy2XFYtLfz3j/MXL7m4uHUPbdgxtW2IwnDx1bsHCpbdT00KeahHg34yItm7fJaQgERUX64ODAojIaDTO+/YHyxuy2HStTidcWlYqFPO/ntW7Z9fiYv3M2V8LJ4iWNTt3bO/q0pSItm3fpdZoiEgYbmGhzirr9fo1v24kIhuVykqpJKLEpGQiqkofAaqloQahQiHv2aMLK1+LjqV//g1odRXcacmCYc5X32Vl5wzs14fFklQqCWnVIqRVC7lctmHzdrFYItQv0Vd8B6YgIyOzKk1t0th59fJFLi5NiGhL+K7vFi9/UE2J5H4XDAbj/ZaUGEorWDSPyS+4fw5ntFikinsDGhCpVOrn50NE15NT9PfenP5+vq+MepGItDrdnr0HhBGFw0dPFhb+45mcY8dPs8LcbxbfupU6oF8ffz8fmVTaq0cXWxvV629O9vfzZRXK3zAVFBhARDGxCWUeVWLT4+OTzGYzETk5Ovy4+JtWLYMKCgonfzjz4uWrFdb08fZkE4W4FS7JCyO0RBQdE89umQ68Nzc2LoEsvg5W0keAammQQahSWX/1+cfCGeHvu/cRUXp6hslkYgHwwkuvp6XfqXBZtUazYOHSBQuXOjk5+nh7Dh7U98XnhxJR/369N2zenpaWYTQa2f0IHULb7Nl7oJJmGI3GSuYyTk6Oq5cvZDdt7toTMXfe4koqp6XfEboQGOB36szfRCSRiNnHHxEJt4M+VBX3BvPCsCFikYiIIg8ewRONj60A/2YyqZSIbt5KdXdzcXRw6N6t06ujR7BLcUt+XJWdk6u7W3pqtTfigPBkoY1K1aJF4Lnzl4jIw90tKzt71S/rVv2yzs7Odunib1qHtHR1bUpEQri2b9eajcCLRCI3N5e8vHx23fpaTJxle6ytrdh0lk/eXh7Ll8z38HC7nZr+zuQZNyzStExNtVrDpru5uhCRXC6bOGEcEZUYDNt37hEqx8QlsGpCTMbEJhDRQ/sIUF0NKQinTJ4gImratHHH0Hbsj5+Ijhw7xe6lLFJrTp35u1uXjkT0yYz3P539DbuI6OhgH9anR1iv7hPf/4iI3p/05pFjp65EXcvNzcvNzbO1UbEgVFlbEZFaozl5+lyPbp2JaOoHE4uL9afPnLeyUnbq2M5gMFT3mWWVynrVsoXsxrak6ym790SGtmvNZmXl5N4o9727qEh99tzFzp3aE9EH771159OsrOyc8W+MYZFfYjAcPnqyipuu4t5gZs54v/RexKvRCMLHFhswJKJ+YT2FMz8iKjEYflz+86atO4no+MkzWp3O2spq1idTO3cM1ZeUeHt6tGndateeiLPnLhDRW//3Su+e3c6dv5SRccfK2qp5cz8iYu+rE6fOsmWH/mdgc3+/O5lZzQOabdy8PeparEgkonJ3eAUFBpROj0sgokULvmBf+GxU1it/XMDqrF23efPWnWVqHjtxukittrWxmfzu+E4d2/k183FzdTGbzfMW/HDzVmq7tiGscuy9IAwObE5Eer3++vWUqvQRoLoaUhAKt1wK/vhz/1ffLBJezl+4dN0vS+3t7Xp063xw3/bMrCy5TM6GQNPSS58xGjZ08OuvjjSZTDm5eUaDkY1YEtGRY6dYYd63P7ZsEeTk6ODk6LBw/v0nlJcsXVXdBnu4uwb4lw43+TXzWb18oTBr++975nz1XflFFixaum7NMpXKOrC5f5lreytWrbV80OqhqrI3oAERbiEhohKDQa3WZGRkXrh4eev23ckpN9n0nJy8dyZN/2ja5KBA/2HPDiYig8F45Wr0vshDpUuKREqlom+fHuyVWq1Zu27zspW/EFFubt47k6bPmPpecFBAUKB/UKB/kVp96cq1li2CWOWYuLJBWDo9Nl6pUAgjlg4O9g4Opb8PnJ6eUaYmEeUXFE54d/rMjz4IDgpgXzoTk5J/WLaa/Q2WqSxMSUxKNhiNVeojQDU1pCA0m80Gg6FIrblzJ+tadOzO3XujrsZYVrhx49bIV9+aMnlCr55dZVIpG3gxm82xcQkR+w+zOhcuRXUMbWtjoxJGVrVa3fade376+X/s5e3UtJGvvDVl8tthvbsLt65otTr2W2h1Lel6yuixE6Z+MLFr51DhOt/t1PSVq3/dvSeiWquqyt6ABmTuvMWVD60zFy9ffWnMeEcH+yZNnNUabXZ2juWP1H/2+bw5X33n0rSJjY2qsLAwMzPbYDHCf/Hy1ZdfedPRwb5p08YajTY1LcNkMl2+cm3Dpgp+CHfDpnDL6W079X1Qk8rUJKKoazEvv/Kmk6NDkybOubn5lj89Wr7y8JFvVKuPANUlCgntXd9tqH1KhcLb20OpVOYXFGZlZZf5lTKRSOTq0sTe3l6pkBcWqW/cvG0wGMqvRKGQe3t5WltZFRYV3byVWmGdumOjUnl5uctksuzsnH/5kxmV7w0AAM49mUEIAABQRXjsBgAAuIYgBAAAriEIAQCAawhCAADgGoIQAAC4hiAEAACuIQgBAIBrCEIAAOAaghAAALiGIAQAAK4hCAEAgGsIQgAA4BqCEAAAuIYgBAAAriEIAQCAawhCAADgGoIQAAC4hiAEAACuIQgBAIBrCEIAAOAaghAAALiGIAQAAK4hCAEAgGsIQgAA4BqCEAAAuIYgBAAAriEIAQCAawhCAADgGoIQAAC4hiAEAACuIQgBAIBrCEIAAOAaghAAALiGIAQAAK4hCAEAgGsIQgAA4BqCEAAAuIYgBAAAriEIAQCAawhCAADgGoIQAAC4hiAEAACuIQgBAIBrCEIAAOAaghAAALiGIAQAAK4hCAEAgGsIQgAA4BqCEAAAuIYgBAAAriEIAQCAa9L6bsBDWCmVjo72rJyWfqday/YL6zloQBgRXbwctX5jeK3XBwCAJ8DjHoS9enaZP3cWK3foNkCvL6n6sr4+Xv379iIio9G4nh4ebNWtD/D48/RwC23fhohOnDybmZVdKzUBnjCPexD+GxqN9k5mFhEVFBTWRX2AR++zj6cMHNCHiF55fWJyys2H1h8yeMDb418josHPjaqtmgBPmCckCOVymdlMJSX/OF/csHn7hs3bq76SyuvLZDKZTKrV6mreSoB/rU3rVrY2NsXF+pu3blelvtlsPnP2fLFen5qaXls1AZ4wDTIIX3z+mTEjhxPR0ROn9x88Mm3KxJBWLcxm8/kLl2d/+e3t1LTy1RZ+v4KItm7306hnAAAUsklEQVT4WS6TlV9h5MEjy1auKV+fiGxtVONeHz2gXx93Nxci0mp1Z86dX/XLuuiYeMs1hG9aI5VIiGjy1E9Tbtyqu74DzxQKua+PFxElJF43Gk1sYlCgv1gsLigsSkvLaN82xNWlaVxCUnxCEpt7+OiJo8dPFRQWEZG9vR17G1vSanXsHWtZkxGJRCFPtfDycC9Sa+LiE9MzqneRHqChaJBB6OBg7+PjRUQisfjlF5+Ty+VEJBKJQtu3mT/3s9FjJ5SpFhufyKb4eHuyymU4OztVWN/J0eHXX5Z6eboLNa2trfr06t69W+ePZn554NBRYbqvj5dEIiEihaKC9QPUisDm/uxtFhNX+j3M3t5u82+riejAoaPubi7BQc2JyGw2z/pi/q4/IoS5v/62edGSlSNHDJvw5tgy69wXeWjGzC/L1CSiLp1CP/14ioe7K6tmNBo3b/t9wcKlZrP50XQW4JFpkEEo8PbyiLoWs3nLzuCggNEjhxNRq5ZBwUHNY2LjK6z/9YIl7LyNiPz8fEeOGMbKMTEV15/+4bssBbOycxYsXJqdk/va6BG9e3WTSaVzPpt+9u+LhRZfnwHqGss5IoqNLf2uFhwYwAr9wnqeOXv++Ikz3bt1EolEzw4ZtOuPCGFubFwiERWp1fsPHmFTunbuoFJZE9GZcxcs18Nqdu3c4cfF30ilkpSUmwcPHw9t17p1SMtRLz2fnHJzy7bfH01nAR6Zhh2EGo12wqTpRUXq3X9G9urZjX179fJ0f1AQ7vj9T1bw8nR/e/xYVl71y7ot4bvKV1YqFP3CerLygoVLIw8cJqKYmPjIP7fa2drY2KjCenffuWsvq7B+U7hELCaivLyC2usfwD8IcSWcEQrRuHrNuqUr1hDR6WN7rZRKk9lsOZf9RazfGL5+Y7hYLP5o6iSVytpsNi9asnL7zj1lakolklkzP5RKJalpGaPHvqPWaJwcHf6K3EFEPbp1QhDCk6dhB2HU1ZiiIjUrZ2VnsyC0s7WpfCk316arly9iw6HrNmxdtnJNhdU8PNxk9y4oXrpylRV0d+8mJCS1b9eaiJr5eguVhWuKAHWHxZXBYExIvH5vSgAR6fX6Nb9uJCIblcpKqSSixKRkYa5WpxOuWysVivlfz+rds2txsX7m7K+FE0TLmp07tnd1aUpE27bvUms0RKTT3WXVpNKG/YkBUKGG/bbOL7h/+mU0GKuySJPGzquXL3JxaUJEW8J3fbd4+YNqSiT3f3bHYLHykhJDaQWxpLoNBqgxqVTq5+dDRNeTU4QHaoMCA4goOiae3c8cGOjPpsfGJQhz4+OT2IU9J0eHHxd/06plUEFB4eQPZ168fFVYuWVNH29PNvHGzdv35pauNu7e5XOAJ0nDDsLqcnJyXL18oYeHGxHt2hMxd97iSiqnpd8xmUxisZiIAgP8Tp35m4gkEjH7MCIi4fZUInph2BCxSEREkQeP4DFEqAsB/s1kUindCzkisra2YtewY+5NERIrJjZBmMvqe3t5LF8y38PD7XZq+juTZ9ywuLe5TE21WsOmu7m6EJFcLps4YRwRlRgMbBwV4AnDURCqVNarli1k94UmXU/ZvScytF1rNisrJ/dGuWceiorUZ89d7NypPRF98N5bdz7NysrOGf/GmMbOjYioxGA4fPSkUHnmjPfZ7XxXrkYjCKEusNFLIoqJFWIvQCQSkUU0Bgc2JyK9Xn/9ekpISEs2l8XkogVfsK+ANirrlT8uYPXXrtu8eetOYT2s5rETp4vUalsbm8nvju/UsZ1fMx83Vxez2TxvwQ83b6U+wh4DPCIcBaGHu2uAvy8r+zXzWb18oTBr++975nz1XflFFixaum7NMpXKOrC5/44tay1nrVi1Fo9VwaNU5s4XujeeWX5KYlKywWi0nKtUKIRL2g4O9g4Opb/fm56eUX49+QWFE96dPvOjD4KDAnp068xW+MOy1UeOnarbHgLUE46CsAaSrqeMHjth6gcTu3YOZWOkRHQ7NX3l6l9374mo37YBb+bOW1xmMH/DpvANm/7xo7jDR77xoLltO/V90JrLryfqWszLr7zp5OjQpIlzbm4+fnoUnmyikNDe9d2GBsBGpfLycpfJZNnZOalpGfXdHAAAqDU4I6wStUYT/YCH7gEAoEHDf8wLAABcQxACAADXEIQAAMA1BCEAAHANQQgAAFxDEAIAANcQhAAAwDUEIQAAcA1BCAAAXEMQAgAA1xCEAADANQQhAABwDUEIAABcQxACAADXEIQAAMA1BCEAAHANQQgAAFxDEAIAANcQhAAAwDUEIQAAcA1BCAAAXEMQAgAA1xCEAADANQQhAABwDUEIAABcQxACAADXEIQAAMA1BCEAAHANQQgAAFxDEAIAANcQhAAAwDUEIQAAcA1BCAAAXEMQAgAA1xCEAADANQQhAABwDUEIAABcQxACAADXEIQAAMA1BCEAAHANQQgAAFxDEAIAANcQhAAAwDUEIQAAcA1BCAAAXEMQAgAA1xCEAADANQQhAABwDUEIAABcQxACAADXEIQAAMA1aX034CGslEpHR/sKZ+n1Jdk5uUTUL6znoAFhRHTxctT6jeGPtH0AANDAPe5B2Ktnl/lzZ1U468rV6Fden0hEvj5e/fv2IiKj0bieEITAL08Pt9D2bYjoxMmzmVnZ9d0cgIbhcQ/CqtBotHcys4iooKCwvtsCULc++3jKwAF9ykzUanQDhowgoiGDB7w9/jUiGvzcqHpoHEDD1JCCcNGSFQajUXiZnZ3LChs2b9+weXvly8rlMrOZSkpKHlRBKpXKZFKd7m6tNBWgjrRp3crWxqbMxITEZFYwm81nzp4v1utTU9MfedMAGqqGFIQbt+zQ6ytIsheff2bMyOFEdPTE6YXfrygzZf/BI9OmTAxp1cJsNp+/cHn2l9/eTk0TlrW2thr32qhBA8I8PNyIqLCw6NDh48t+WpOZeX9YKXzTGqlEQkSTp36acuNWHfcS4IEUCrmvjxcRxcUnfv7Vt8J0YSzk8NETR4+fKigsYi+DAv3FYnFBYVFaWkb7tiGuLk3jEpLiE5LKrLZFcHNfH6/iYn1MbHxqWsYj6QrAY6QhBaGrq0uJXi+8LCgs0mi0ROTgYO/j40VEsfGJbJYwRSQWv/zic3K5nIhEIlFo+zbz5342euwEVs3e3m7t6h+a+XoL67Szs31u6NM9und+bdy7t26X5qWvj5dEIiEihUL+CLoJ8CCBzf3ZW/FyVHR0THyZufb2dpt/W01Ev/62edGSlcLLA4eOuru5BAc1JyKz2Tzri/m7/ohgi7RrGzL7kw/ZHwsRGY3Gtes2/7Bs9SPrEcDjoCE9PrFr2//27tok/Htu6NMPXcTbyyMuIenT2d+s37iNTWnVMoh9IhDR1A/eYSl44VLUs8Nf7dnvWTbE2sjJ8YtZM+qsHwA1JLx1u3ftuPbnH9i/7+Z9Xjo3MIAVYuMSLV/2C+tZWFh0/MQZIhKJRM8OGcSmt2sb8tPSb318vE6fOf/5l9/ujTgokUjGjR3VrUuHR9clgMdAQzojrAGNRjth0vSiIvXuPyN79ezm4e5KRF6e7jGx8QqFfFD/0psOvvx6IRvz/G7xsuef/Y9SqWjXNsTd3ZVdaFm/KVwiFhNRXl5B/XUF4H62ubm6uLm6sPKRY6dK596LyZjYeMuXq9esW7piDRGdPrbXSqk0mc1EJBaLv5g1XS6Xx8YlvjN5utFo2htx8OmBfYmoQ2jbE6fOPbpeAdS3hhSEZW6WOX/h8kMXiboaU1SkZuWs7GwWhHa2NkTk6eHOhkyJaMeWteWX9fP1ZkHIrjsC1DuWbSUGw+wv5gsTk1Nu3psbQERanY59q2Mv9Xr9ml83EpGNSmWlVBJRYlIyEYW2a+3p4U5EQYH+F04ftNyKWNyQBooA/r2GFIQPulmmEvkF98/hjAaj5SzLv3atTld+WSEmAR4HUqnUz8+HiJKSUvbsPVC+QlBgABHFxyeZzWbhZXRMvFarI6LAQH9WLTYugYiES+OHj54sLPzHc0fHjp+us04API4aUhDWrvT0DJPJxOLwhZdeT0u/86CaLwwbIhaJiCjy4BE8qgj1JcC/mUwqpXtJVoa1tZWXp7swV3gZc69y0L0gjIlNICLd3dInhfZGHNgX+Rcr26hULVoEnjt/qU47AvC44TcIi9SaU2f+7talIxF9MuP9T2d/k19QSESODvZhfXqE9eo+8f2PWM2ZM95nt+pduRqNIIT6woY66QFBGBQYIBKJ6F7yCS+FysGBzYlIr9dfv55CRMdPntHqdNZWVrM+mdq5Y6i+pMTb06NN61a79kScPXfhUfQH4LHBbxAS0fyFS9f9stTe3q5Ht84H923PzMqSy+TOzk5ElJaOp6ng8SLc/PKgIGQFdqdMmZfClMSkZHahPScn751J0z+aNjko0H/Ys4OJyGAwXrkavS/yUN12A+Dxw3UQ3rhxa+Srb02ZPKFXz64yqZTdhmc2m2PjEiL2H67v1gH8w9x5i+fOW/yguRs2hW/YFP6gl0Q0fOQbZRa5ePnqS2PGOzrYN2nirNZos7Nziov1BMAfUUho7/puQ/1TKhTe3h5KpTK/oDArK5vdXAAAADzg+oxQcLe4OC6+7O9OAQAAD/DAEAAAcA1BCAAAXEMQAgAA1xCEAADANQQhAABwDUEIAABcQxACAADXEIQAAMA1BCEAAHANQQgAAFxDEAIAANcQhAAAwDUEIQAAcA1BCAAAXEMQAgAA1xCEAADANQQhAABwDUEIAABcQxACAADXEIQAAMA1BCEAAHANQQgAAFxDEAIAANcQhAAAwDUEIQAAcA1BCAAAXEMQAgAA1xCEAADANQQhAABwDUEIAABcQxACAADXEIQAAMA1BCEAAHANQQgAAFxDEAIAANcQhAAAwDUEIQAAcA1BCAAAXEMQAgAA1xCEAADANWl9NwCgTohEYpfATk6eQTKlqr7b8gQquavJvRWbEXfGbDbVd1sA/i1JUzef+m4DQO1zDe7cNKC9RCqv74Y8mSRSuU0jN5FYrM6+Xd9tAfi3MDQKTyYnj8D6bsKTDzsZngwIQngyyZQ29d2EJx92MjwZEIQAAMA1BCEAAHANQQgAAFxDEAIAANcQhAAAwDU8UA9Q++RSibVSptHpS4z3nzcP8na2t1EW6w2XEjLqsW0AUAaCEKDWiIg6t/LsFuLl2shGJBIRUU6B9kJc+r4zCWYz9W7n29yzUW6hDkEI8FhBEALUDrFI9Pp/2rZs1oS9LDEYxWJRI3vr/h39Dp6/ri8x1m/zAOBBEIQAtaNvaDOWgln5mk37o1Iy8kUikYuTTY823mR+4FJNHFUeje2kEnF2gTYlI99kul/V0Vbp3tjOWim7W2zILtBm5KhNZnOZBSUScWae5kZGfl32DOAJhyAEqAUioh5tvInIZDav3XMxPUdNRGazOS27aPOBqxUuYq2UjR4QEuzTWJiSW6j7LeJySno+EQ3uEhAW2kwsEglzLyVk/G/vpQoXvJVZ8N8/Luar79ZN5wCecLhrFKAWNHZU2VjJiSgtq5Cl4EO9MrA1C7ML8el/XUi+qzc42VmNH9rexkpuYyXv18FPLBKdjLq5PvLKruOxlxIySgylg6tjBoYE+zQuMRgjziSG/3UtX33Xs4n9uGfaiSrdHAA8CM4IAWqBtVLGCvlFVTota+KoCvR2JqIL8em/7btMRKlZhWMGtrZSyDoEu19LzmTVMvM0Kel5uYU6YUy0iaMqyLsxEf11ITniTCIR6YoNYwa1dm9s5+fhlHg7t5Y7BsABBCFALdAVG1jBzkZZlfouTqU/V52cllem0NRJdfiiJi27yM3Z9rmewc/1DC4xGJPT8yNOJySn5wsLDujoP6Cjf5l1IggBagBBCFALsvI0uuISK4XM3dnW2d46u0BbeX3htheJWHSvUHqdwmQym820PPxs51YezdydGjtYO9tbN/ds5NHYbs6av4QFr6fm5hTqLNf50I0CQIUQhAC1wGQ2n7p6K6x9M4lE/OrTbX6LuJyZpyEiextFj9beEWcSSwz/+J/cb2UWmM1mkUjUqlnTY5dumIlC/Jvem1UoEYskEtGh88mHzicTUYdg95H9n7JWypzsrIUFcwp1G/dHCSsM9HJOSsXpIEBNIAgBase+04k+Lg7N3J08mth99EqPQs1dsVjM7qCJPJtUpnKBuvjMtdudW3n6ezhNHd2tSFMc4NmIiHIKtOdj06yVstlv9Lmelpudry0uMbbwbUxE+hJjbqG2xGA6fe12l1aeHYLdHW2VadlFttYKr6b2jeytP1l5wGA0lW8YAFQOQQhQOwxG04od58LaN+sW4mmnUtqplER0V2+4nJBhMFSQT+GHo7XFJd1CvFwb2bo2sjWbzbE3srYeuqY3GCUSUVa+xs/dyd+jEaucna/dcSSanVaGH45Wa/XdW3v5ezRiFXTFJZcSMpCCADUjCgntXd9tAKh9bZ55tx637mirtFbKtXdLCtR3LZ+CL08iFjV2UEkkotxCnXDHDaOQS+xVSplUotYVF6iLyywoFomcHaxlUolGpy/Q3K10I3Xo0u6l9bNhgNqDM0KA2pdXdDevas9RGE3mjNyKnzss1hsz9ZoHLWgym9llSAD4l/BAPQAAcA1BCAAAXEMQAgAA1xCEAADANQQhAABwDUEIT6aSu1X6LyDg38BOhicDghCeTLm34+q7CU8+7GR4MkiauvnUdxsAap8mJ00kEitU9hKpvL7b8gQquavJTo7KiDtDVE9P8gPUHvyyDAAAcA1DowAAwDUEIQAAcA1BCAAAXEMQAgAA1xCEAADANQQhAABwDUEIAABcQxACAADXEIQAAMA1BCEAAHANQQgAAFxDEAIAANcQhAAAwDUEIQAAcA1BCAAAXEMQAgAA1xCEAADANQQhAABwDUEIAABcQxACAADXEIQAAMA1BCEAAHANQQgAAFxDEAIAANcQhAAAwDUEIQAAcA1BCAAAXEMQAgAA1xCEAADANQQhAABwDUEIAABcQxACAADXEIQAAMA1BCEAAHANQQgAAFxDEAIAANcQhAAAwLX/B+PcnabKYApRAAAAAElFTkSuQmCC;" parent="1" vertex="1">
          <mxGeometry x="30" y="890" width="292.31" height="190" as="geometry" />
        </mxCell>
        <mxCell id="TVynHAeKMUivycCZFWxq-11" style="edgeStyle=orthogonalEdgeStyle;rounded=0;orthogonalLoop=1;jettySize=auto;html=1;exitX=0.5;exitY=0;exitDx=0;exitDy=0;startArrow=classic;startFill=1;strokeWidth=2;" parent="1" source="TVynHAeKMUivycCZFWxq-6" target="TVynHAeKMUivycCZFWxq-3" edge="1">
          <mxGeometry relative="1" as="geometry" />
        </mxCell>
        <mxCell id="TVynHAeKMUivycCZFWxq-6" value="" style="shape=image;verticalLabelPosition=bottom;labelBackgroundColor=default;verticalAlign=top;aspect=fixed;imageAspect=0;image=data:image/png,iVBORw0KGgoAAAANSUhEUgAAAlMAAAGHCAIAAAAbZEAbAAAAA3NCSVQICAjb4U/gAAAAGXRFWHRTb2Z0d2FyZQBnbm9tZS1zY3JlZW5zaG907wO/PgAAIABJREFUeJzt3Xd8VFXex/HfzKT33kMgBUQgAekdUQEVlbWsBZS1wEpRhHVZXVddH3V1ERVRBFEECys1CAgKCogiEHov6RAgCSQhvU/m+eOSYUxIDCGNnM/7rzPnnnvOLbzmm3vvuYMurENXAQBADY7Obvrm3gYAAJoUyQcAUAvJBwBQC8kHAFALyQcAUAvJBwBQC8kHAFALyQcAUAvJBwBQC8kHAFALyQcAUAvJBwBQC8kHAFALyQcAUAvJBwBQC8kHAFALyQcAUAvJBwBQC8kHAFALyQcAUAvJBwBQC8kHAFALyQcAUAvJBwBQC8kHAFALyQcAUAvJBwBQC8kHAFALyQcAUItVc28A0KScnZ1CQtpo5djY+NLS0uulc1yjazw7nNzWhORDA/D09Jg8cbxW3rNn37rvNzbv9tSiT68ec+e8r5Vvv+v+uLiEpu/c8nBVV2E0vv6fdxpwq+rNwcFeK5SVlZWVlTds5wEB/g/cd0+3rpFeXp5lpWUXs3POn79w9Njxw0eOHTh4uGHH0lzjqW/UfzloYiQfGoCri8ujox/UylYGQ0tOvpbA8nBVZ2wxyXdo33atMPujebM/+qQBex4+7JZ3Z7xhZ2dXpf7+++4xGo0dOvVowLGA6kg+qCU1/fx36zdo5bzcvOuo81bD29tr5n9fN8deUVFRTm6ei7Oz+RKzkXB2YEbyoenY2NgEBwWWlZWdTjlTUxtfH293d/eS0pKLF7Ozs3Nqaubq6uLj7VVuNJ47l1ZSUlL7uLa2tsFBgcXFxWfOnjty5Nhz0164xtEdHR18fXz0en1GZqZls9o7v6LNW35Z9OX/LGsqKiquqocqrurISN1OSu3c3dy8vD2N5ca09PTCwqI/bD/8tqH29vYiUlFRMXnK33/8aYvJZBKR4KDAAQP63j3y9mscqH5nx8PD3cXF2c7WrqCg4Oy51Ks9C1d72NG8SD40liGDB7w/8z9a+cHRT9w+/NbHx45xcnIUkdMpZ6a/8MqevfvNjfV6/eSJ4x556AEvL09zZXZ2ztFjx//1yhspZ86aKx+4b9TjY0e3bx+ufSwpLd2y5Zd33p196nRK9XH//MjjI+8Y8fjY0Q4O9keOHBt1/2jLpfc/ODYhMemqRr/z9mFPPP5ol8436vWX5kWnnDk7893Z2g3eK3Zeu/T089t3xFxx0cQJT4174jERycvLv2X43eYnbXq9/scfvvVwdxORxd8sn/neh3U8MlLnkzJ3znt9el2+5fjX8U88Pna0Vh5+533nz1/Qyg89eN9fHnskPCxU+2g0Gvfs3f/hnE92xuypZZcDAvy1QkZG5sYfN5vrU86c/WbJim+WrKi+Sh0HqsfZCQjwf3/mfzq0j9AOwqVDV1KyecsvM9/70PLQ1aQuhx0tDcmHxmJtZeXs7KyV33rj1ajIzuZFbYKD5s/94Nbh92RdvKjVTJ0yccJfn6zSg5uba/9+fTw9PczZ8+6MN++5+w7LNrY2NiOG39qvb+8xY8cdO36yyrgv/P25wYMGXGqq01VZqjfor2r0N19/+cEH7q3SLDgosH37CO279Yqd105v0NvY2FjWGI1Go9EoIuvWbZj67ESdTufs7Dxk0IAfN/2sNRjQr09Im2CtvPa7H+p+ZKTOJ8XRwcHcTOvKtnIj9TqdVpj13tsj7xhuOaLBYOjdq0fPHje9+n9vXTHANGnp57WCj4/3m6+/vHzFt0eOHi8vr3EGTR0Hqt/ZcXVx7n5T1ypr2dra3j7itt69e9zzp4dT09Jr2jCp82FHS0PyoSlERXbesXN3zK49tw4d3LnzjSLi4uI8cuSIL7/6Rmtwz913aoXPPv9y5ao1IhIY4B8V2Xn4sFu1W2Ei8tCD95m/Zb5avHT5ilVOTk4vvfh8pxtvcHFx/uC9/w6/894qN6kGDxqQl5+/b9+B0rIyB/saHyPVZfT777vH/MWam5u36MvFCQlJPj7eQ28eJJVt6uHBB+6t8n29bMWqf/7r/0Tk1OmUmF17+/TuISKj7hlpTr67Kw/CwUNHTsbG1e/ISK0n5YcNm2Jj4/9SeZ134ODhAwcOaeX8gkIRGf3wn81pdODg4W+WrnB0cJj49FNeXp56vf7fL78QE7MnMSn5iru8bduO8vJyKysr8+6XlJYeO3YiZteetd/9oO2RWR0HqvfZMZlk774Da7/7PiExOT39vJ2dbd8+vaZNnWxrY+Ph7v7k44++8dbMmtat32FHS0DyoSls/fW3J8dNFpGFX3y9a8cW7QKiY4f25ga2tpcuKQ4fOabNF4+LS/h567YPPpxnbvPYmIe1wo6du197/W2tPP2FV9atWSYi7dqFDBzQb+sv2yzHTTlz9pExT9b+Z3sdR39i7BitUFJScu+fxyQnn9Y+LvxisZOTU90PxVVZtiJaS74hQwa6uDjn5ubZ2dnddsvN2tKly6K1Qj2OjNR6Uv63ZLmImJPvl19/qzK389Exl+amZmZmjRk7vri4WEQOHT66YumXImIwGEY//EBNM1QTk5LfeXf2C9On6iovH21tbLp1jezWNfLp8U8sX/HtS6+8bg6MOg5U77Nz4mTsg488bllz7PjJLp1vHHnnCBHp1au2Wab1O+xoCUg+NIUlS1dqhYKCwowLGYGBASLiaPFk5cjR44MH9heRD957+43XXkpITI6LS9i9d9/GjZvzCwpExMnRsX1EmNbYy8tj1nuXvmjMT3REpGtU5ypfNPM/W/SHsVeX0R0dHcwPcn7avNX8xarJz8+/moPxOxcvZqel/24Lz51LM5d/2LDplZdy3NxcbW1s7hhx25Jl0bfderOjo4OIFBQUfrf+B6nvkZE6nJSaODk6mh+5bfn5Vy2NROTAwcPnUtMC/P1EJCqqSy09LFj41c6Y3Y+OfmjggL6+vj6Wix64f1TyqdOffLqw7gNd49np07vnQw/eF9mlk4+3V5UXLbw8PWo5CPU77GgJSD40hbNnz5nLpaVlWsH8xEhE3vzPzBu/7ODt7SUizs7OXaO6dI3q8sD9o16cPm302HGxsfEuri7mxhHhYRHhYdVHcXd3q1Jz8mRc9WbV/fHoLpdHt9yXa/fDhp9e/vebNS0tLS1dvWbd2MceEZFR94xcsix6VOXttbXrftDmN9bvyEgdTkpNLEe8kJFhuSgzI1MLJDeLNld09NiJF176t4gEBPj37tn9T6NG9uvbW1t018gRWvLVcaBrOTujH/7za6++WNNSa2vrmhbV+7CjJSD50BTKLOYvmK703CUxKfnm2+66ZejgHt27hYW2DQttp10KuLu7vfD3qU+Mm5SXd/kFrB07d+/es7d6J4ePHKtSk1e3q7E6jH65H18fn5p7anhLlkdrydf9pq6RXTr179dHqzff6qzfkZE6nJSaWI7o7u5uucj80fKI1e7cudRVq79btfq7NauW3Nixg4hof4LUfaB6nx2DwTDtuUlaOS4+4ZV//ycp+ZSx3PjKv6bfVfPLFdW37aoOO1oCkg8tRXFx8br1G9ZVvms87blJE59+SkRu6BAhInl5+cmnTrcNaSMiFRXG6j8p4uvjbZ4p2uCj5+fnJyWdatcuRERuGTrYx8fbPLNfRGxsbBrvVxzj4hIOHDzcNaqLTqd7/923tIkhx0+cPHzkqNag8Y6M0Wg0GAwiYm/3u8lBeXn5p06naPNLBw/qb2Vlpc3MjIgICwoK0NrU8qU/6u47AwL9ly6LzszMMlcaDAbz09ac7NyrGqjeZ8fH28u18tJt6bLo3Xv2iYhOp7vhhvZXbF/lIDTqP0g0KpIPLcKn82bHJyTujNlz9uy5CxkZ7u5u2p//IlJU+XTnmyUrXvzHNBHp36/P6/9+6cvFS9LTz7u5unbu1HHYbUOH3XZL/0HDLmZnN9LoX/1v6SsvTRcRJyfHFUu//GT+woTEJG9vryGDBpxOSbGcC3NV7rxjeO9q0ygmPfu3uPhE88dly1d1jeoiIuaXGcwXfJpGOjJpaenaw78H7h+lN+gLCgrOn7+wZFm0iCxZuvIff39ORPz9fD+ZO+vrxUsdHBzM108mk2np8uiaunVzc502ZdKUyU/vP3Do0OGjFy5kODjY3zxkUFhoO63Bjphd5sZ1HKh+Zyc3L6+iokJ7MnfH7cO2bN1mLC+fPHH8FW9dVtd4/yDR2Eg+tAjeXp43Dxk47smx1RetjF6tFRZ9+b9+fXtp7+c9/ND9Dz90f1OO/vXipb17dh8+7BYRCfD3s3w4NGfuZ/Ue2sXF2cXFuUql7e/nWXy3/oeXXnxem9giIsXFxavXrrds0EhH5vsNPz31xGMi4ubm+uTjj4rIkSPHtORb+MXigQP6ak/mBg/sr80PMps1e+7RYydq79xgMPTo3q1H925V6jOzsubNX2j+WMeB6nd2CgoKN/64ecTwW0Xkpm5RmzasFpGKioqExCRzDNei8f5BorHx//OhRdgRs7v63ITMzKx33p398bwF2kej0Tju6Slvz3j/XGqaZbOKioqDh4588OG8/IJ6zrGsy+jaT2393xv/tfxJFxHJy89POVPP3/2qo8LCorXrfjB//H7DT1WeojXSkXlv1pzPPv/y7Nlz2pv1lsrLy58YN3nW7LmZWVmW9fEJic8+N33O3E9r6fanTT/P/mjegYOHq7zrVlZWtvHHzQ88ODbVYi/qOFC9z86L/3pt7Xffmz9mZmY9O/Ufu3Zd4aFddY33DxKNTRfWoervFwDNxd3NzcfH293d1WQypZ+/cOpUSk0zL4ICA/z8fHU6XUZmZnr6+br8XGQDjh4Q4B/g72cw6LOyLiYmnaoeDM2oMY5M7cJC23l7e5aXG8+ePVeXd0jM7Ozs2rQJ8nB30+n0ubm58QlJtf/iZR0HqsfZ8fT0aNc2pKio6MTJuPqdzaY/7Kg3R2c3kg8AoBBHZzfudgIA1ELyAQDUQvIBANRC8gEA1ELyAQDUQvIBANRC8gEA1ELyAQDUQvIBANRC8gEA1ELyAQDUQvIBANRC8gEA1ELyAQDUQvIBANRC8gEA1ELyAQDUQvIBANRC8gEA1ELyAQDUQvIBANRC8gEA1ELyAQDUQvIBANRC8gEA1ELyAQDUQvIBANRC8gEA1ELyAQDUQvIBANRC8gEA1ELyAQDUQvIBANRC8gEA1ELyAQDUQvIBANRi5ejs1tzbAABA0+GaDwCgFpIPAKAWkg8AoBaSDwCgFpIPAKAWkg8AoBaSDwCgFpIPAKAWkg8AoBaSDwCgFpIPAKAWkg8AoBaSDwCgFpIPAKAWkg8AoBaSDwCgFpIPAKAWkg8AoBaSDwCgFpIPAKAWkg8AoBaSDwCgFpIPAKAWkg8AoBaSDwCgFpIPAKAWkg8AoBaSDwCgFqvm3oBLvL299Po/iOHMzKy+fXrdMnSwiBw+cmxl9OprH3fggH4N2yEAoIVrKck3d877Hu7utbcZ9/QzIW2CBw3sLyJGo3GliIj4+fk+8ZcxIlJaWjbzvdlXO271DvGHAgL8u0Z1EZFdu/ZmZGY2YycAUA8tJfnqqKCw8EJGhojk5uZpNS4uzrfecrOIFBUV1yP5UN3S/y2yd7CvaelT4ycPu3XoY48+LCKjH31KRIKDAkcMv01ENm3+OTEpuY6j3HbLzWMfe0RExjz21LVvMwDUXUtJvoWLvrazs9PK/fr27tY1UkSysi5+s3SFuU1GRuaqb9eu+nZtPfq3traysrIuKipqshWvU4GBAd7eXjUtzcvLP3/+QoWpYt++A6VlZalpaSLSq1ePhx+6X0R+3vpr3QeKiAgTkfyCgnOpade81QBwFVpK8q1bv8Fc9vby1JIvJze3yrO3u0beft+994hITMzuuZ8s+OeLz3fudKO2yM7OdtHn87Tyy6++kZJyRkQcHR1HP/zAkMED/fx8RaSoqGjf/oNfLV4SGxtf+/bUZcUFn84xGAyWw7UCWVkXn570nFae8syEjjd0EJHpL76Sm5srIiXFJSKyfXvMzpjdebn5ItK+fbh209JkMtnY2rRvH56TnZN+/oLWg06nu7Fjh8CAgPyCgoSERHO9iESEh4lIfHyCuaaWxgDQgFpK8tWRq4tLm+AgEUlISBQRPx8fP18fbZFOp9MWiYiNjbWIuLm5fjjrncDAAPPq9vb2/fv16d2rx+tvzvh12/aaRqnjim2Cg7Tk04ZrHYqKiszp7uvrIyLZ2Tl79uwzN3Bxdp4/b7aILFsevWbt+nlzZmn1Op3uw1nviMjCRV9/tXiJiPTo3m3qlEn+/n5aA6PRuHrt+jkfzzeZTK6uLtqVZVzcpeSrpXHj7zQAtVxnyVfFkmUrOx4+MvrhP4tIaWnZnLnztfoL5zNEZNKE8Vp6ZWZmzZk7Pyvr4gP3/6l/vz5WVlbTn3/uwMFDeXn5V+y23iu2Jp6eHtqcoziLyzKpvEspInHxiU5OTjtjdvfp3VNEUs6cTUpKFpE9+/aLSI8eN731xqsGg+F0ypltv+2Iiuzc6caO94666/TplDVr12sXfObOa2/cdPsMQA3Xd/Jt3xGTkZmpJZ/RaFz73ffmRba2toMG9tPKc+bO/3nrNhGJjYtf9s0XTk5Ojo4OA/r1/X7Dj9X7rPuK0avWaG9i5GTnNu5+Nocq4XS5PiK8sj7+9OkzXy9eqiXfyujV5pQyGAx/mzrZYDCkpaVPemZaQUGhm5tr9PLFItKnd881a9dfjs+4hD9s3CS7C0Ah13fy1SIgwM/a+tJNyCNHj2uF4uKShMTkqMjOIhISEnyNK879ZEGjbX7zu5x8cQnV64uKilNSzopIeHioVh8fn2hu061rpK+Pj4isXfd9QUGhiBQXF2uLtPvD4WFhWuXplDPdb+pae2MAaFit9jdcLN+LN5YbzeXy8vLqDRpkxVbG4rLsd7OBIsJDRSQhMUl7Atc+IlxEjEZjQmKSuU1wUKBWOHPmrFYIr8xR7QFt+4gwcyd/2BgAGtZ1/yVuqrg0A0Kv11nWp6dfqKio0MphYe0q2+jbhrTRyqk1TKav+4oj7xhx18jb7xp5u4uzc4PsS4uixU+Vtw7s7e21J6DmOZnt2oaISH5+fmlpqbmZdukmIr6+viJibW2t/dpAeXn5uu832tvbBwT4S+XVZO2NG3kvAajour/bmZd/abKJra3tPXffmZx8utxYfvTo8fz8/P0HDnW/qauIjB/3+IULGZlZF8c88mdPTw8RKS8v374j5ood1n3FKc9O0G7HHTt+Ijcvr/H3tek4Oztpk2bjqzzkCw/V6XRicQu0qLhYRFxdXaOXf11UXDJx8tTs7Jydu/bkFxQ4OTqOe3LsTd2i2rYN8fP1MZlMsz+ad/bsucgunSw7qb1xE+84ABVc98mXlpZ+9uw57UJkyjMTRCQnN/dP9z0iInM+nv/R7JkODg7hYaELF8y1XGvRl/+r5XWxeq/YaoTX8JDPXB8bf+kW6KefLfrb1Gfatm3j6upaUZGdnZ0jIrm5udNfeHnqlEkR4WHa/Jek5FOfLfhix85d1TupvTEANLjrPvlE5JXX3pw0YXzHG9rb2//uN7eST52e+My0iU+P69G9m/nhXGpq2hdffbPxx021dFjvFVuN/fsPDr1tZPX66FVroletsaw5GRs3fsKz1VueOBH71wlT3NxcvTw9s7NzLH+Zs3ontTQGgAani+wxpLm3odE5OjoEBgZYW1llZl1MS0tvghUBAC2WEskHAIDZdT+3EwCAq0LyAQDUQvIBANRC8gEA1ELyAQDUQvIBANRC8gEA1ELyAQDUQvIBANRC8gEA1ELyAQDUQvIBANRC8gEA1ELyAQDUQvIBANRC8gEA1ELyAQDUQvIBANRC8gEA1ELyAQDUQvIBANRC8gEA1ELyAQDUQvIBANRC8gEA1ELyAQDUQvIBANRC8gEA1ELyAQDUQvIBANRC8gEA1ELyAQDUQvIBANRC8gEA1ELyAQDUQvIBANRC8gEA1ELyAQDUQvIBANRC8gEA1ELyAQDUQvIBANRC8gEA1ELyAQDUQvIBANRC8gEA1ELyAQDUQvIBANRC8gEA1ELyAQDUQvIBANRC8gEA1ELyAQDUYtXcG3CZnZ2tq6urVk5PP39V6w4c0O+WoYNF5PCRYyujVzd4ewBAq9GCkq9vn94vvzRdKw+/409lZWV1XzekTfCggf1FxGg0rmyE9qhdQIB/16guIrJr196MzMwGaQkAjaQFJd+1KCgsvJCRISK5uXmN0V41056bPGTIQBGZ/OzfTp8+84fth9069LFHHxaR0Y8+1VAtAaCRXH/JZ21tLWIqKyu3rFz17dpV366teye1t7e2trKysi4qKqr/Vl7nOnXq6OToWFpaeubMubq0rzBV7Nt3oLSsLDUtraFaAkAjaenJd9fI2++79x4RiYnZvfWX3yZNGNexYweTyXTo0JF33v3gXGpa9WZzP1kgIp9+8qG1tXX1Drf+sm3hoq+rtxcRR0fH0Q8/MGTwQD8/XxEpKirat//gV4uXxMbGW/aw4NM5BoNBRF5+9Y2UlD++Hrru2NjYtAkOEpHEpOSKigqtMjwsVG/Q5+Xmp6WnR3bp7OvjnZCYlJCYpC3dvj1mZ8zuvNx8EXFxdvbz963SZ1FRsXasLFtqdDrdjR07BAYE5BcUJCQkpp+/0AT7CEBlLT35XF1ctG9hvU53z90jbWysRUSn00VFdfnXS9MnTp5WpVlCQqJWExwUpDWuwtPD44rt3dxcP5z1TmBggLmlvb19/359evfq8fqbM37dtt1c3yY4SEu+K/bfCoSHhWo7GBeXoNW4ODvPnzdbRH75dbufn0/7iHARMZlMM2bO2rBxk3npsuXR8+Z/PmrUyL88NrpKn1t+/uX1N2dUaSkiPbp3mzplkr+/n9bMaDSuXrt+zsfzTSZTE+0tAPW09OQzCwoKPH7i5OrV6yIiwrTLtRs6tG8fER4bF3/F9rM/mqt9fYtI25A2fxp1l1auqf2kCeO12MvMzJozd35W1sUH7v9T/359rKyspj//3IGDh/Ly8q+4YusTERGmFeLiE6rUDBrYb9++AzG79vTu1UOn040YduuGjZss2ieKSEFB4S+//qbV9OjezcHBQUT27T/4+54TRaRHj5veeuNVg8FwOuXMtt92REV27nRjx3tH3XX6dMqateubZmcBKOi6Sb7CwsJ/vPhqfn7+xp829+vbW7tKCAjwrynJ1n+/USsEBgaMffQRrfzV4iVX/Eq1tbUdNLCfVp4zd/7PW7eJSGxc/LJvvnBycnJ0dBjQr+/3G37UGkSvWqPX60UkJzu3IfewxbicT3Hm5AvXCl8vXvr5oq9EZP3aFXZ2dhUmk+XSuPh4EVkZvXpl9Gq9Xv/MpL86ODiYTKZ58z9ft35DlZYGg+FvUycbDIa0tPRJz0wrKCh0c3ONXr5YRPr07knyAWg8103yHT8Rm59/6aorMzNLSz5nZ6fa1/L19Xl3xpseHu4isnzltwsXfX3FZgEBfuaHgkeOHtcKxcUlCYnJUZGdRSQkJNjc2PxcsLVqHx4uIkajMTEpWauJCA8TkdLSsm+WrhARR0cHOzs7EUlKPmVeWlRUnJJyVmtva2v78kvT+/XtXVpa+tZ/39v6yzbLfrSW3W/q6uvjIyJr131fUFAoIsXFxVoz88U6ADSG6yb5cnMvX2AZjca6rOLl6fnuO//x8fEWkTVr18+d91lNLbVruEudl1/uvLy8vHqD1s3Kyqpt2zYiknzqtPmVyojwUBGJjYvX5ruGhYVq9fHxCealCYlJ2sM5NzfX/7zx6g0d2ufm5v3r1dePHDlm7tyyZXBQoFZ55sylvAwPv3StaX74CgCN4bpJvqvl7uY28503A/z9RGTDj5tmzf64lsbp6RcqKiq0eAsLa7dn734R0ev1bUPaaA1SUy9PwR95xwidXiciW7duy81rba8DhrZra2VlJZWpJiL29vbaE9C4yhvLEeGXb4eal2rtgwID3n7r/wL8/VJT017456splalm2Y/WUrvOExFfX18Rsba2fuIvY0SkvLx8XeWdagBoDK0z+Rwc7GfOeEObvZl86vTGHzdHRXbRFmVlZVl+HWvy8/P3HzjU/aauIjJ+3OMXLmRkZl0c88ifPT09RKS8vHz7jhhz4ynPTtBuxx07fqL1JZ/5IV+s+SFfeKhOpxOR+PjEyppLNz+TT53udOMN2lLtoeBr/35J+2vDwdHhv2+/rrVfumzl6jXrzP1oLXfu2pNfUODk6DjuybE3dYtq2zbEz9fHZDLN/mje2bN1eokQAOqndSafv79fu3ZttXLbkDbvznjTvGj99xtnvje7+ipzPp7/0eyZDg4O4WGhCxfMtVy06Mv/qfOS2eXrucprPvNNyNh48zVfqIgkJ58yGo2WS21tbUPaXHog6uri4uriopW1X2Gt0k9ubu70F16eOmVSRHhYn949RSQp+dRnC77YsXNX4+4hAOW1zuSrh+RTpyc+M23i0+N6dO9mfqqXmpr2xVffbPxxU/NuW1OaNfvjKneGo1etiV61xrLmyfGTa1p66/C7a+q5ej8nTsT+dcIUNzdXL0/P7OwcfsYTQNPQRfYY0tzb0LI4OjoEBgZYW1llZl1MS0tv7s0BADQwrvmqKigorPJzZQCA1kSVyfoAAGhIPgCAWkg+AIBaSD4AgFpIPgCAWkg+AIBaSD4AgFpIPgCAWkg+AIBaSD4AgFpIPgCAWkg+AIBaSD4AgFpIPgCAWkg+AIBaSD4AgFpIPgCAWkg+AIBaSD4AgFpIPgCAWkg+AIBaSD4AgFpIPgCAWkg+AIBaSD4AgFpIPgCAWkg+AIBaSD4AgFpIPgCAWkg+AIBaSD4AgFpIPgCAWkg+AIBaSD4AgFpIPgCAWkg+AIBaSD4AgFpIPgCAWkg+AIBaSD4AgFpIPgCAWkg+AIBaSD4AgFpIPgCAWkg+AIBaSD4AgFpIPgCAWkg+AIBaSD4AgFpIPgCAWkg+AIBaSD42krKUAAANgUlEQVQAgFpIPgCAWqyaewMus7OzdXV1veKisrKyrKyLIjJwQL9bhg4WkcNHjq2MXt2k2wcAaBVaUPL17dP75ZemX3HR8eMnJz37NxEJaRM8aGB/ETEajSubdOtwWUCAf9eoLiKya9fejMzM5t4cALg6LSj56qKgsPBCRoaI5ObmNfe2tGbTnps8ZMjAKpVFhUUPPvIXERl269DHHn1YREY/+lTTbxsAXKMWmnzz5i8wGivMHzMzs7TCqm/Xrvp2be3rWltbi5jKyspramBlZWVlZVVcXNwgm9oqderU0cnRsUplUlKyVqgwVezbd6C0rCw1La2ptwwArlkLTb5V335XVlZWvf6ukbffd+89IhITs3vuJwuq1Gz95bdJE8Z17NjBZDIdOnTknXc/OJd6+avZ3t7+kYfuv/nmwQH+fiKSl5e/7bcdC7/4OiPj8v26BZ/OMRgMIvLyq2+kpJxp5L1soWxsbNoEB4lIfELizPdmm+vN19nbt8fsjNmdl5uvfQwPC9Ub9Hm5+Wnp6ZFdOvv6eCckJiUkJlXptn378DbBQaWlZbFx8Wlp6U2yKwBwBS00+fx8fUotki8vL6+wsEhEXF1ctC/lhIREbZG5Rq/T3XP3SBsbaxHR6XRRUV3+9dL0iZOnac1cnJ0/eH9GSEiwuU9nZ6fbR9zWp3fPZ577+7lzqVplm+AgLfm0ftQUHhaqHYRjx07ExsZXWeri7Dx/3mwRWbY8et78z80ff/l1u5+fT/uIcBExmUwzZs7asHGTtkpkl07Tpj6jnSYRMRqNS5dHf7bgiybbIwCw1EKT74uFn1h+nDP30z+cyRkUFHj8xMnVq9dFRIRpV4E3dGjfPiI8Ni5eRCZMeEqLvcNHjs5878Oc7JzHHnvk3lF3ubu7TX9+ynPTXmi0Xbn+RESEaYVevXrMfn+GVs7Mynrt9bctl8bFJ1p+HDSw3759B2J27endq4dOpxsx7FYt+SK7dJrx9hs2NtZ79x3YvGXrTd263jJ08CMPPXDw4OHde/Y18a4BgLTY5KuHwsLCf7z4an5+/safNvfr29vf309EAgL8Y+PibWxsbh48SGv23vsfabcxP5776Z23D7O1tY3s0tnfz097ZBW9ao1erxeRnOzc5tuVZmYOMz9fHz9fH628Y+euyqXhWiEuPt7y49eLl36+6CsRWb92hZ2dXYXJJCJ6vf7vzz9nY2MdH5/4jxdfqaio2LzlF+29lG5dI0k+AM2ihSZflRkuBw8e/sNVjp+Izc+/9OQpMzNLSz5nZycRCQz0N9+9XLhgbvV1Q0KCteTTnh0qrn14uIiUl5fPmDnLXHm68qlnRHiYiBQVFaeknDV/LC0t+2bpChFxdHSws7MTkaTkUyISFdk5MMBfRMLDQ3/asMZyFO0vDABoei00+Wqa4VKL3NzLV2lGo9FykV53+Uu2qOgKUzqtrdV9qleFlZVV27ZtRCQ5+fRPm36u3iAiPFREEhKTTCaT+WNsXHxRUZGIhIWFas3i4xNEJCSkjfZx+46YvLzfvYiyM2Z3o+0EANSmhSZfw0pLP19RUaFdZDwxbmJ6+vmaWo68Y4ROrxORrVu35eap+MpgaLu2VlZWIhIXn1B9qb29fWBggFQGm/ljXNyliTDaJaCIxMUliIj51ZFNm7du+fkXrezo6NC+fcSBOlzHA0BjUCL5CgoK9u7d37NndxGZ8syEt2e8r10gurq6DOzfr3//Pi++9G+t5ZRnJ1ya1nj8hJrJZ37IF3+l5IsID9XpdFIZbOaP8fGJlQ0u3fxMPnVaRGJ27SkqKra3t/vb1Mndu3ctKysLCgzs3Knjho2b9u8/2CQ7BABVKZF8IvLRx/M//GCmi4tzn949Vy776kJGpo21tYeHu4ik1XwJqKDLF22V741YCq9cGhsfX/2jVN78TE4+pd1wvngx+x//fOXZSU+Hh4feMWKYiBiNxmPHT2yuvP4DgKanSvKlnDn79KTnnh7/ZL++vaysrLQpiyaTKS4+4eet25p761qQWbM/njX745qWRq9aE71qTU0fReTJ8ZOrrHLkyLHxE551dXXx8vIsLCjKzMoqLS1t2G0GgKuii+wxpLm3oUnZ2toGBQXY2drm5uZlZGZp8zIAAOpQ5ZrPrKSkJCGh6g9rAQDUwTtVAAC1kHwAALWQfAAAtZB8AAC1kHwAALWQfAAAtZB8AAC1kHwAALWQfAAAtZB8AAC1kHwAALWQfAAAtZB8AAC1kHwAALWQfAAAtZB8AAC1kHwAALWQfAAAtZB8AAC1kHwAALWQfAAAtZB8AAC1kHwAALWQfAAAtZB8AAC1kHwAALWQfAAAtZB8AAC1kHwAALWQfAAAtZB8AAC1kHwAALWQfAAAtZB8AAC1kHwAALWQfAAAtZB8AAC1kHwAALWQfAAAtZB8AAC1kHwAALWQfAAAtZB8AAC1kHwAALWQfAAAtZB8AAC1kHwAALWQfAAAtZB8AAC1kHwAALWQfAAAtZB8AAC1kHwAALWQfAAAtZB8AAC1kHwAALWQfAAAtZB8AAC1kHwAALWQfAAAtZB8AAC1kHwAALWQfAAAtZB8AAC1kHwAALWQfAAAtZB8AAC1kHwAALWQfAAAtZB8AAC1kHwAALWQfAAAtZB8AAC1WDX3BgCNRafT+3Xo7RF8g7WdY3NvSytUVlyQlXIi7WSMyVTR3NsCXB2Db0Db5t4GoFH4d+zjG9HdYGXT3BvSOhmsbJw8A3R6fX7GmebeFuDqcLcTrZZHUIfm3oTWj4OM6xHJh1bL2s6puTeh9eMg43pE8gEA1ELyAQDUQvIBANRC8gEA1ELyAQDUwpvsQKOwsTI42FkXFJWWGS+/6H1DiJerk11JafmBuLRm3DZAcSQf0JB0In06B/ePbOPv6aTT6UQkM6dw38nUH2LiTCYZclO79sGeWblFJB/QjEg+oMHodbrH7+zWKdRH+1hWbtTrdZ6uDrf1Ctu0N7G0zNi8mwdAQ/IBDeaWHqFa7F3ILljy4+HktGydTufn4TSwa4iYalzLx90xyNvFyqDPyClMTsuuqLjc1N3ZLtDbxcHOurikPCOnMC0zv8JkqrKiwaA/f7HgVFp2Y+4Z0KqQfEDD0IkM7BoiIhUm06J1+1Mz80XEZDKdy8hb+tORK67iYGc9elhkx7be5pqs3KKvNxxMTs0WkTv6RgztEarX6cxLD8Slffn9gSuumHI+Z+F3+7Pzixtn54BWhbmdQMPwdnd0srcRkXMXcrXY+0OPDo/S0mtfbOqWfUnFpeUeLvbj7u7uZG/jZG9za88wvU63/fDpxRsPrdl24kBcWln5pfulY4ZHdmzrXVZu3BATv3LL0ez84mAf1yfvuklX63AANFzzAQ3Dwc5aK2Tn1enCy8fdsUOIl4jsi039+oeDInL2Qu6Y4VH2ttY9OwYeTTqvNTt/sSA59WJWbpH5NqePu+MNId4ismVf0oaYeBEpKikfMyIq0NslLMgj/kxWA+8Y0OqQfEDDKCop1wouTnZ1ae/ncem3npPOXaxS8PVw/Hl/wbmMvAAv51GDOo4a1LGs3JiUmr1hZ1xSarZ5xWG9wof1Cq/SJ8kH/CGSD2gYFy4WFJWU2dtaB3o5e7k6ZOQU1t7ePFfFoNdVFi49faioMJlM8vHKXX06B4UGeni7OXi5OrQP9gzydnnt8y3mFRPPZmXmFln2+YeDAhCSD2goFSbTjiMpQ7uHGgz6x27v+vWGg+cvFoiIq5PtwKiQDTHxZeW/+7/LU87nmEwmnU7XOdT31wOnTCKR4b6Vi3INep3BoNu8N2nz3iQR6dkx8OHbujjYWXu4OJhXzMwt+ubHw+YOO7TxSjjLBR/wx0g+oMH8sDO+rZ9baKBHkI/LC48OzC0o1uv12rSXjbsSqjTOyS+JOXqmT+fg8CCP50f3zysoiQj2FJHMnMK9J8452Fm/+sTNieeyMrILS8qMN7bzFpHSMmNWbmFZecXOo2f6dg7u2THQ3dnuXEaes4NtG19XT1eHf877qdxYUX3DAFgi+YAGU26smLtq99Duof0jg10c7Vwc7USkuLT8YFxaefkVAmnlz8cKS8r6R7bx93T293Q2mUwnTl1YvvloabnRYNBdyC4IC/QID/LUGmdkF67aeky7cFz587H8wtIBUW3Cgzy1BkUlZQfi0og9oC50kT2GNPc2AI2i612Tm3F0d2c7BzubwuKynPxiy9fPqzPodd5ujgaDLiu3yDxNRmNrY3B1tLO2MuQXleTkl1RZUa/Tebk5WFsZCopKcwqKax2kER1Y+1HzDAzUF9d8QKO4mFd8sW6vNxgrTGlZV37/r6TUeL60oKYVK0wm7VEigKvCm+wAALWQfAAAtZB8AAC1kHwAALWQfAAAtZB8aLXKiuv0HybgWnCQcT0i+dBqZZ052dyb0PpxkHE9MvgGtG3ubQAaRUHmOZ1Ob+voarCyae5taYXKigsykg6nnYyRWv6/eaBF4jdcAABq4W4nAEAtJB8AQC0kHwBALSQfAEAtJB8AQC0kHwBALSQfAEAtJB8AQC0kHwBALSQfAEAtJB8AQC0kHwBALSQfAEAtJB8AQC0kHwBALSQfAEAtJB8AQC0kHwBALSQfAEAt/w8BFxSnR71J1QAAAABJRU5ErkJggg==;" parent="1" vertex="1">
          <mxGeometry x="480" y="890" width="289.12" height="190" as="geometry" />
        </mxCell>
      </root>
    </mxGraphModel>
  </diagram>
</mxfile>
